<mxfile host="65bd71144e">
    <diagram id="SLTXZN1UZLYizokisdBo" name="Page-1">
        <mxGraphModel dx="1374" dy="790" grid="1" gridSize="10" guides="1" tooltips="1" connect="1" arrows="1" fold="1" page="1" pageScale="1" pageWidth="1600" pageHeight="900" math="0" shadow="0">
            <root>
                <mxCell id="0"/>
                <mxCell id="1" parent="0"/>
                <UserObject label="" id="2">
                    <mxCell style="strokeWidth=1;shadow=0;dashed=0;align=center;html=1;shape=mxgraph.mockup.containers.browserWindow;rSize=0;strokeColor=#666666;strokeColor2=#008cff;strokeColor3=#c4c4c4;mainText=,;recursiveResize=0;" parent="1" vertex="1">
                        <mxGeometry x="110" y="140" width="1430" height="1620" as="geometry"/>
                    </mxCell>
                </UserObject>
                <mxCell id="3" value="Page 1" style="strokeWidth=1;shadow=0;dashed=0;align=center;html=1;shape=mxgraph.mockup.containers.anchor;fontSize=17;fontColor=#666666;align=left;" parent="2" vertex="1">
                    <mxGeometry x="60" y="12" width="110" height="26" as="geometry"/>
                </mxCell>
                <mxCell id="4" value="https://www.draw.io" style="strokeWidth=1;shadow=0;dashed=0;align=center;html=1;shape=mxgraph.mockup.containers.anchor;rSize=0;fontSize=17;fontColor=#666666;align=left;" parent="2" vertex="1">
                    <mxGeometry x="130" y="60" width="250" height="26" as="geometry"/>
                </mxCell>
                <mxCell id="15" value="Court Case Created Event" style="strokeWidth=1;shadow=0;dashed=0;align=center;html=1;shape=mxgraph.mockup.text.textBox;fontColor=#666666;align=left;fontSize=17;spacingLeft=4;spacingTop=-3;strokeColor=#666666;mainText=" parent="2" vertex="1">
                    <mxGeometry x="310" y="160" width="730" height="30" as="geometry"/>
                </mxCell>
                <mxCell id="23" value="" style="shape=mxgraph.mockup.containers.marginRect;rectMarginTop=10;strokeColor=#666666;strokeWidth=1;dashed=0;rounded=1;arcSize=5;recursiveResize=0;" parent="2" vertex="1">
                    <mxGeometry x="40" y="325" width="220" height="165" as="geometry"/>
                </mxCell>
                <mxCell id="24" value="Version and Status" style="shape=rect;strokeColor=none;fillColor=#008cff;strokeWidth=1;dashed=0;rounded=1;arcSize=20;fontColor=#ffffff;fontSize=17;spacing=2;spacingTop=-2;align=left;autosize=1;spacingLeft=4;resizeWidth=0;resizeHeight=0;perimeter=none;" parent="23" vertex="1">
                    <mxGeometry x="5" width="170" height="30" as="geometry"/>
                </mxCell>
                <mxCell id="71" value="&lt;table cellpadding=&quot;4&quot; cellspacing=&quot;0&quot; border=&quot;1&quot; style=&quot;font-size: 1em ; width: 100% ; height: 100%&quot;&gt;&lt;tbody&gt;&lt;tr&gt;&lt;td&gt;Supported Versions&lt;/td&gt;&lt;td&gt;V1, V2&lt;/td&gt;&lt;/tr&gt;&lt;tr&gt;&lt;td&gt;Latest Version&lt;/td&gt;&lt;td&gt;V2&lt;/td&gt;&lt;/tr&gt;&lt;tr&gt;&lt;td&gt;Latest Version Status&lt;/td&gt;&lt;td&gt;Production&lt;/td&gt;&lt;/tr&gt;&lt;/tbody&gt;&lt;/table&gt; " style="verticalAlign=top;align=left;overflow=fill;fontSize=12;fontFamily=Helvetica;html=1;labelBackgroundColor=none;fillColor=none;" parent="23" vertex="1">
                    <mxGeometry x="10" y="45" width="200" height="110" as="geometry"/>
                </mxCell>
                <mxCell id="30" value="" style="shape=mxgraph.mockup.containers.marginRect;rectMarginTop=10;strokeColor=#666666;strokeWidth=1;dashed=0;rounded=1;arcSize=5;recursiveResize=0;" parent="2" vertex="1">
                    <mxGeometry x="40" y="120" width="220" height="180" as="geometry"/>
                </mxCell>
                <mxCell id="31" value="Integration Domain" style="shape=rect;strokeColor=none;fillColor=#008cff;strokeWidth=1;dashed=0;rounded=1;arcSize=20;fontColor=#ffffff;fontSize=17;spacing=2;spacingTop=-2;align=left;autosize=1;spacingLeft=4;resizeWidth=0;resizeHeight=0;perimeter=none;" parent="30" vertex="1">
                    <mxGeometry x="5" width="170" height="30" as="geometry"/>
                </mxCell>
                <mxCell id="7" value="" style="strokeWidth=1;shadow=0;dashed=0;align=center;html=1;shape=mxgraph.mockup.forms.rrect;rSize=0;strokeColor=#999999;fillColor=#ffffff;" parent="30" vertex="1">
                    <mxGeometry x="20" y="50" width="180" height="110" as="geometry"/>
                </mxCell>
                <mxCell id="8" value="Domains" style="strokeWidth=1;shadow=0;dashed=0;align=center;html=1;shape=mxgraph.mockup.forms.rrect;rSize=0;strokeColor=#999999;fontColor=#008cff;fontSize=17;fillColor=#ffffff;resizeWidth=1;" parent="7" vertex="1">
                    <mxGeometry width="180.00000000000003" height="30" relative="1" as="geometry"/>
                </mxCell>
                <mxCell id="9" value="Court Case" style="strokeWidth=1;shadow=0;dashed=0;align=center;html=1;shape=mxgraph.mockup.forms.anchor;fontSize=17;fontColor=#666666;align=left;spacingLeft=5;resizeWidth=1;fillColor=#CCE5FF;strokeColor=none;labelBackgroundColor=#CCE5FF;" parent="7" vertex="1">
                    <mxGeometry width="180.00000000000003" height="20" relative="1" as="geometry">
                        <mxPoint y="30" as="offset"/>
                    </mxGeometry>
                </mxCell>
                <mxCell id="10" value="Court Scheduling" style="strokeWidth=1;shadow=0;dashed=0;align=center;html=1;shape=mxgraph.mockup.forms.anchor;fontSize=17;fontColor=#666666;align=left;spacingLeft=5;resizeWidth=1;" parent="7" vertex="1">
                    <mxGeometry width="180.00000000000003" height="20" relative="1" as="geometry">
                        <mxPoint y="50" as="offset"/>
                    </mxGeometry>
                </mxCell>
                <mxCell id="11" value="Courts Digital Display" style="strokeWidth=1;shadow=0;dashed=0;align=center;html=1;shape=mxgraph.mockup.forms.rrect;rSize=0;fontSize=17;fontColor=#666666;align=left;spacingLeft=5;fillColor=none;strokeColor=none;resizeWidth=1;" parent="7" vertex="1">
                    <mxGeometry width="180.00000000000003" height="20" relative="1" as="geometry">
                        <mxPoint y="70" as="offset"/>
                    </mxGeometry>
                </mxCell>
                <mxCell id="12" value="" style="strokeWidth=1;shadow=0;dashed=0;align=center;html=1;shape=mxgraph.mockup.forms.anchor;fontSize=17;fontColor=#666666;align=left;spacingLeft=5;resizeWidth=1;" parent="7" vertex="1">
                    <mxGeometry width="180.00000000000003" height="20" relative="1" as="geometry">
                        <mxPoint y="90" as="offset"/>
                    </mxGeometry>
                </mxCell>
                <mxCell id="33" value="" style="shape=mxgraph.mockup.containers.marginRect;rectMarginTop=10;strokeColor=#666666;strokeWidth=1;dashed=0;rounded=1;arcSize=5;recursiveResize=0;" parent="2" vertex="1">
                    <mxGeometry x="40" y="512" width="220" height="170" as="geometry"/>
                </mxCell>
                <mxCell id="34" value="Contacts" style="shape=rect;strokeColor=none;fillColor=#008cff;strokeWidth=1;dashed=0;rounded=1;arcSize=20;fontColor=#ffffff;fontSize=17;spacing=2;spacingTop=-2;align=left;autosize=1;spacingLeft=4;resizeWidth=0;resizeHeight=0;perimeter=none;" parent="33" vertex="1">
                    <mxGeometry x="5" width="90" height="30" as="geometry"/>
                </mxCell>
                <mxCell id="48" value="&lt;table cellpadding=&quot;4&quot; cellspacing=&quot;0&quot; border=&quot;1&quot; style=&quot;font-size: 1em ; width: 100% ; height: 100%&quot;&gt;&lt;tbody&gt;&lt;tr&gt;&lt;td&gt;Name&lt;/td&gt;&lt;td&gt;Some One&lt;/td&gt;&lt;/tr&gt;&lt;tr&gt;&lt;td&gt;Email&lt;/td&gt;&lt;td&gt;someone@gov.bc.ca&lt;/td&gt;&lt;/tr&gt;&lt;tr&gt;&lt;td&gt;Organization&lt;/td&gt;&lt;td&gt;ISB Integration Services&lt;/td&gt;&lt;/tr&gt;&lt;tr&gt;&lt;td&gt;Role&lt;/td&gt;&lt;td&gt;Point of contact&lt;/td&gt;&lt;/tr&gt;&lt;/tbody&gt;&lt;/table&gt; " style="verticalAlign=top;align=left;overflow=fill;fontSize=12;fontFamily=Helvetica;html=1;labelBackgroundColor=none;fillColor=none;" parent="33" vertex="1">
                    <mxGeometry x="10" y="49" width="200" height="110" as="geometry"/>
                </mxCell>
                <mxCell id="55" value="https://medium.com/event-driven-utopia/understanding-asyncapis-with-a-practical-example-ee2b4be221d8" style="strokeWidth=1;shadow=0;dashed=0;align=center;html=1;shape=mxgraph.mockup.text.textBox;fontColor=#666666;align=left;fontSize=17;spacingLeft=4;spacingTop=-3;strokeColor=none;mainText=;labelBackgroundColor=none;fillColor=none;" parent="2" vertex="1">
                    <mxGeometry x="170" y="1470" width="830" height="30" as="geometry"/>
                </mxCell>
                <mxCell id="62" value="" style="shape=mxgraph.mockup.containers.marginRect;rectMarginTop=10;strokeColor=#666666;strokeWidth=1;dashed=0;rounded=1;arcSize=5;recursiveResize=0;" parent="2" vertex="1">
                    <mxGeometry x="40" y="730" width="220" height="180" as="geometry"/>
                </mxCell>
                <mxCell id="63" value="Security" style="shape=rect;strokeColor=none;fillColor=#008cff;strokeWidth=1;dashed=0;rounded=1;arcSize=20;fontColor=#ffffff;fontSize=17;spacing=2;spacingTop=-2;align=left;autosize=1;spacingLeft=4;resizeWidth=0;resizeHeight=0;perimeter=none;" parent="62" vertex="1">
                    <mxGeometry x="5" width="80" height="30" as="geometry"/>
                </mxCell>
                <mxCell id="64" value="&lt;table cellpadding=&quot;4&quot; cellspacing=&quot;0&quot; border=&quot;1&quot; style=&quot;font-size: 1em ; width: 100% ; height: 100%&quot;&gt;&lt;tbody&gt;&lt;tr&gt;&lt;td&gt;Classification&lt;/td&gt;&lt;td&gt;Sensitive&lt;/td&gt;&lt;/tr&gt;&lt;tr&gt;&lt;td&gt;Data ownership&lt;/td&gt;&lt;td&gt;CSB&lt;/td&gt;&lt;/tr&gt;&lt;tr&gt;&lt;td&gt;Access approval&lt;/td&gt;&lt;td&gt;TBD&lt;/td&gt;&lt;/tr&gt;&lt;tr&gt;&lt;td&gt;Change approval&lt;/td&gt;&lt;td&gt;TBD&lt;/td&gt;&lt;/tr&gt;&lt;/tbody&gt;&lt;/table&gt; " style="verticalAlign=top;align=left;overflow=fill;fontSize=12;fontFamily=Helvetica;html=1;labelBackgroundColor=none;fillColor=none;" parent="62" vertex="1">
                    <mxGeometry x="10" y="50" width="200" height="110" as="geometry"/>
                </mxCell>
                <mxCell id="77" value="" style="strokeWidth=1;shadow=0;dashed=0;align=center;html=1;shape=mxgraph.mockup.containers.marginRect2;rectMarginTop=32;strokeColor=#666666;gradientColor=none;" vertex="1" parent="2">
                    <mxGeometry x="310" y="242" width="790" height="1187" as="geometry"/>
                </mxCell>
                <mxCell id="78" value="Documentation" style="strokeColor=inherit;fillColor=inherit;gradientColor=inherit;strokeWidth=1;shadow=0;dashed=0;align=center;html=1;shape=mxgraph.mockup.containers.rrect;rSize=0;fontSize=17;fontColor=#666666;gradientColor=none;" vertex="1" parent="77">
                    <mxGeometry width="120" height="25" relative="1" as="geometry">
                        <mxPoint x="110" as="offset"/>
                    </mxGeometry>
                </mxCell>
                <mxCell id="79" value="Summary" style="strokeWidth=1;shadow=0;dashed=0;align=center;html=1;shape=mxgraph.mockup.containers.rrect;rSize=0;fontSize=17;fontColor=#ffffff;strokeColor=#008cff;fillColor=#008cff;" vertex="1" parent="77">
                    <mxGeometry width="90" height="25" relative="1" as="geometry">
                        <mxPoint x="10" as="offset"/>
                    </mxGeometry>
                </mxCell>
                <mxCell id="80" value="Connected Apps" style="strokeColor=inherit;fillColor=inherit;gradientColor=inherit;strokeWidth=1;shadow=0;dashed=0;align=center;html=1;shape=mxgraph.mockup.containers.rrect;rSize=0;fontSize=17;fontColor=#666666;gradientColor=none;" vertex="1" parent="77">
                    <mxGeometry width="140" height="25" relative="1" as="geometry">
                        <mxPoint x="239" as="offset"/>
                    </mxGeometry>
                </mxCell>
                <mxCell id="81" value="" style="strokeWidth=1;shadow=0;dashed=0;align=center;html=1;shape=mxgraph.mockup.containers.topButton;rSize=5;strokeColor=#008cff;fillColor=#008cff;gradientColor=none;resizeWidth=1;movable=0;deletable=1;" vertex="1" parent="77">
                    <mxGeometry width="690" height="7" relative="1" as="geometry">
                        <mxPoint y="25" as="offset"/>
                    </mxGeometry>
                </mxCell>
                <mxCell id="13" value="&lt;div style=&quot;text-align: justify&quot;&gt;&lt;span&gt;Lorem ipsum dolor sit amet, consectetur adipisicing elit, sed do eiusmod tempor incididunt ut labore et dolore magna aliqua. Ut enim ad minim veniam, quis nostrud exercitation ullamco laboris nisi ut aliquip ex ea commodo consequat. Duis aute irure dolor in reprehenderit in voluptate velit esse cillum dolore eu fugiat nulla pariatur. Excepteur sint occaecat cupidatat non proident, sunt in culpa qui officia deserunt mollit anim id est laborum.&lt;/span&gt;&lt;/div&gt;&lt;div style=&quot;text-align: justify&quot;&gt;&lt;span&gt;Sed ut perspiciatis unde omnis iste natus error sit voluptatem accusantium doloremque laudantium, totam rem aperiam, eaque ipsa quae ab illo inventore veritatis et quasi architecto beatae vitae dicta sunt explicabo. Nemo enim ipsam voluptatem quia voluptas sit aspernatur aut odit aut fugit, sed quia consequuntur magni dolores eos qui ratione voluptatem sequi nesciunt. Neque porro quisquam est, qui dolorem ipsum quia dolor sit amet, consectetur, adipisci velit, sed quia non numquam eius modi tempora incidunt ut labore et dolore magnam aliquam quaerat voluptatem. Ut enim ad minima veniam, quis nostrum exercitationem ullam corporis suscipit laboriosam, nisi ut aliquid ex ea commodi consequatur? Quis autem vel eum iure reprehenderit qui in ea voluptate velit esse quam nihil molestiae consequatur, vel illum qui dolorem eum fugiat quo voluptas nulla pariatur?&lt;/span&gt;&lt;/div&gt;" style="text;spacingTop=-5;whiteSpace=wrap;html=1;align=left;fontSize=12;fontFamily=Helvetica;fillColor=none;strokeColor=none;" parent="77" vertex="1">
                    <mxGeometry x="40" y="68" width="730" height="170" as="geometry"/>
                </mxCell>
                <mxCell id="56" value="" style="shape=image;verticalLabelPosition=bottom;labelBackgroundColor=#ffffff;verticalAlign=top;aspect=fixed;imageAspect=0;image=data:image/png,iVBORw0KGgoAAAANSUhEUgAABAYAAACxCAYAAABX2r8HAAAgAElEQVR4AeydB3wWRfrH9y150wnN3qhppAfBgmfv/c7zmt7p/86zC4KNHqqCvWIF+1lOsJwVFEERQZQeIIWEhPTe8+Yt3//n2TeLy0sCIUBAMuNn3NndmdnZ38yS9/nNUzRUUggoBBQCCgGFgEJAIaAQUAgoBBQCCgGFgEKg2yKgdds3Vy+uEFAIKAQUAgoBhYBCQCGgEFAIKAQUAgoBhQCKGFCLQCGgEFAIKAQUAgoBhYBCQCGgEFAIKAQUAt0YAUUMdOPJV6+uEFAIKAQUAgoBhYBCQCGgEFAIKAQUAgoBRQyoNaAQUAgoBBQCCgGFgEJAIaAQUAgoBBQCCoFujIAiBrrx5KtXVwgoBBQCCgGFgEJAIaAQUAgoBBQCCgGFgCIG1BpQCCgEFAIKAYWAQkAhoBBQCCgEFAIKAYVAN0ZAEQPdePLVqysEFAIKAYWAQkAhoBBQCCgEFAIKAYWAQkARA2oNKAQUAgoBhYBCQCGgEFAIKAQUAgoBhYBCoBsjoIiBbjz56tUVAgoBhYBCQCGgEFAIKAQUAgoBhYBCQCGgiAG1BhQCCgGFgEJAIaAQUAgoBBQCCgGFgEJAIdCNEVDEQDeefPXqCgGFQMcRyMnJ4cMPPyQtLa1bZnl3wUAlhYBCQCGgEFAIKAQUAgqBww8BRQwcfnOq3kghoBDYzwgIGaBpmsqaxhNPPLGf0VXdKQQUAgoBhYBCQCGgEFAIHGwEFDFwsGdAPV8hoBA4pBEYOXLkDkLgsssuY9y4cd0yy7v36NFDx0IwUUkhoBBQCCgEFAIKAYWAQuDwQUARA4fPXKo3UQgoBPYzAosXL9YFYRGIv/jiCxoaGrp1LiwsJD4+XsdEsFFJIaAQUAgoBBQCCgGFgELg8EBAEQOHxzyqt1AIKAQOAAJnnnmmLgTPmjWrWxMCZkLknXfe0TG58sorDwDiqkuFgEJAIaAQUAgoBBQCCoGDgYAiBg4G6uqZCgGFwCGNgDjZE78CISEhuhA8bNgwzjjjjG6TL7/8csaPH096evouhIhoDYi/hX79+h3Sc6gGpxBQCCgEFAIKAYWAQkAh0HEEFDHQcaxUTYWAQqAbIDBv3jx69uypC7/d3eFgREQEL7zwwi7kgIFLN1gO6hUVAgoBhYBCQCGgEFAIdAsEFDHQLaZZvaRCQCHQEQQWLFiwgxD429/+hqjNi2+B7pblvcXZoEEA+PtXMK53BFNVRyGgEFAIKAQUAgoBhYBC4NBHQBEDh/4cqREqBBQCXYBAVVWVrh4vQq/yKeBzsig4CB4nnXQSYkJg+BpQxEAXLEj1CIWAQkAhoBBQCCgEFAJdiIAiBroQbPUohYBC4NBFwIhAIF73DQFYHRt2RCEwaw0oYuDQXcdqZAoBhYBCQCGgEFAIKAQ6g4AiBjqDmmqjEFAIHDYIiKbADTfcwHHHHbdDdd4QfLvLMSEhgeuuu24nrQCDFLn99tt1XMxaFAYuh80iUC+iEFAIKAQUAgoBhYBCoJsjoIiBbr4A1OsrBLozAqIloBwNajsIEXE2aNYMEHJg3Lhx+n05GmSBIga681ej3l0hoBBQCCgEFAIKgcMRAUUMHI6zqt5JIaAQ2CMCoilgkALiaG/58uU7BF9DAO4uR3l3w9mgkANmfwKKGNjjUlIVFAIKAYWAQkAhoBBQCPzmEVDEwG9+CtULKAQUAp1BYOTIkfpO+BlnnNFtCQF/4kOwEG0Aichg3FPEQGdWl2qjEFAIKAQUAgoBhYBC4LeFgCIGflvzpUarEFAI7CcEzjzzTF0I9ledNwTivTm2tLTQXm5ubmbz5s28+uqrpKWlMXHiRJ5++mlWrVpFbW1tu+3a68//+t6Mc091BQshBsxkiSIG9tOCU90oBBQCCgGFgEJAIaAQOIQRUMTAITw5amgKAYXAgUPAsJPfk7DckfsirLeVvF6vTgqMGjWK/v37ExgYiM1mo2/fvlx77bUsWbIEIQ46m+S5HRnf3tTxx0URA52dHdVOIaAQUAgoBBQCCgGFwG8HAUUM/HbmSo1UIaAQ2I8I+AvAeyM8+9dtjxioqanRtQMGDBhASkoKkydP5oknnuB3v/sdxx57LGLOsHXr1k6/lSIGOg2daqgQUAgoBBQCCgGFgEJAIWBCQBEDJjBUUSGgEOg+CHQFMZCTk8ONN97IoEGDkHB/RUVF1NfX89577+lEgRAE3333HR6Pp1PAK2KgU7CpRgoBhYBCQCGgEFAIKAQUAn4IKGLADxB1qhBQCHQPBLqCGMjIyOCaa64hPj5e9zHQ2NiogytRAMSOf+jQoSxcuBC3270T6GKCIHlPSREDe0JI3VcIKAQUAgoBhYBCQCGgEOgIAooY6AhKqo5CQCFw2CHQFcSAhP0bM2YMxx9/PDfddBMrVqwgMzOTSZMmIeYFV1xxBT///LNOAojWgDgjzMrK4qeffmLt2rV62MDd+SBQxMBhtyzVCykEFAIKAYWAQkAhoBA4KAgoYuCgwK4eqhBQCBxsBLqCGBCh/uOPP9a1A4477jiGDRvGiBEjdKJgyJAhPPXUU5SVlekaA2J28PjjjyPREgYPHkxiYiL//Oc/+eqrr3QHg23hpYiBtlBR1xQCCgGFgEJAIaAQUAgoBPYWAUUM7C1iqr5CQCFwWCDQFcSAmAOI4P/mm29y9dVX6w4H+/TpozsffOyxx8jOztZJgeLiYh5++GEiIyN1TQLxPSBmBhLJ4KqrrtI1DfzNDWQSFDFwWCxF9RIKAYWAQkAhoBBQCCgEDjoCihg46FOgBqAQUAgcDAS6ghiQ9xITgerqar788kvOOeccEhISdKKgpKQEl8ul31+2bBnnnXeeTgqImYE4JBQHhZdffrl+7dFHH6Wurm4XmBQxsAsk6oJCQCGgEFAIKAQUAgoBhUAnEFDEQCdAU00UAgqB3z4CXUUMCFKiObBp0yZda+D000/fKRKBkAMfffQRUVFRuiaB+BdwOp2IFsG0adMYOHAgt912G+Xl5buAroiBXSBRFxQCCgGFgEJAIaAQUAgoBDqBQKeIgf/+dyFXXj2G351zGyeffgtJw28l5ZSRDD9jLMPPGK9yV2MwYjynjhjHaac/wGkj7uXUM0Yz/HcjGX7mnQw7805OPnMkKaffSfzQmxk64nZOPfs2rr1uIgu/WdWJJaOaKAQODwS6ihiQ8IQ//PADEyZMIDo6WvcvcMstt/DZZ5/pwn5DQwNvvfWWrhmQkpKi+xQQs4H8/HzuvfdeTjzxREaPHk1lZeUuwCtiYBdI1AWFwOGNgAQrMfKOogcvEvK0Bbwt4G6GlkZoqoeGOqitg5o6qKyBmkaobYb6ZmhshuYWsUkCjwu8LtFxwq1n32N0MOV50r1kKaukEFAIKAQUAoclAp0iBl5+5UOSUv9O5JDriE26mYSTxxCbfD+R8eOJjJuochdjEBU3gej4scTE30NM/N1EJ4wkKvEOIpNuJzJJjncSO/RuYlJHEp18K/1j/8bp59zKgk++OywXtXophUBHEOgKYkDU/8Uk4OKLL+bII4/EbrdjtVoJDw9n+PDhukbAyy+/rIc0lGs9evTgoosuYsaMGYwaNYq4uDgGDRqkmx40NTXt8lqKGNgFEnVBIXD4IiBCuUQ2lWwW1L0ekOxpgaZGqKqEkmIoLobyCiirgsISyC2C7RVQWgMVdVBRA+VVIKRjQz24hCBo7dggH4znGM9VxMDhu77UmykEFALdHoFOEQOvvfEFJ592K0OSbyN+6L3EJo8jJnEKMUkPEZM4W+UuxiA2cRaxSTMYkpRGbPIkYlLGE5M6jpjUsa1ZyuMYMlTyvUQn3cq5l9zPgk9+6PYfgAKg+yJwoIkBMRFYvHix7lcgLCyME044gfPPP1/3GyBRB0JDQ3VnhGJCIBEIrrzySk499VTEOaFEMDjmmGN0UuC+++4jNzdXN0fwny1FDPgjos4VAocIAmbB2l+YNu7JUE33TMW2X0IquF3gavZl0QpoNrQCaqCyCoqK4Ze1eBd8TP0zL1AweQYbbh/Fkmuv45OLLuOry3/PD9ffyJYx91HyyKM433wLFi+GzC1QXgo1VVBXA431PpLBKc8SLQRDq2DXoRmv43/cqWbryxl1dmg9tF5ovb0THju1VycKAYWAQkAhcMAR6Bwx8PpXnHzqXcQmjSQudQIxyVOITpxBTNIsYpJmq9zlGAjuDxKTPIOY5KlEp0whKiWtNUt5in4tNjWN2NRxRCfdybmXjGXBJ8sP+AJTD1AIHKoIHGhiQFT/H3jgAfr27YuEJnzooYdYvnw5q1ev5rXXXtNDGAYFBemRB8SXwMqVK3UHhZMnT+bGG2/kjjvu4KWXXmLLli26k8K2cFTEQFuoqGsKgYOHgNsJzY1evM2AaOa3AE6fbK0Lv7ID37rjL5r7ziZobvJp88tlQ3DW65pP9LII5+XgLgTndqjPg+0bYcW38PZbMOsRmi/+PVXJZ5B1VH/Wh/QlPaQPm3r0ZX1EH9aGhZPRK4Ts3qFk9gphXUQwq/pGsD6qP/nnn0nF/10HLz8Hn8yHtT9ByTaoL4aWcvBWAPU+VQXTuKRoKBOYjy4vuN0+RQb9pVqVGgQSpyg3iAKUnLihxQlNza115ZpKCgGFgEJAIXBQEOgUMfDqGwsZeuooYhLHEJcimgIziE4SgTSNqNTJKnc1BjoJMJWolOl6jkyZhi9PJzJlBpEpM4lKmUlM6gxiUycRnTiKcy8Zp4iBg/LJqYceKggcaGIgLy+PCy64gIiICP71r3/pAr4RcrCiokI3IxDNANEWmD9/PmIqYDgdFDJg69at1NTU6FEL2sNMEQPtIaOuKwQOEgIiEMujDQLACTSJCb9Xv+YW2brxV3JAhGaTnO07kbYtbmhyQWMLNLRAvdO3m791Daz8DM8HL1Lx8ATyb/sH2ReeTebgKHIjjqAh/GhaHL1otIbQaAvG6QihJTCURkcg9QFW6jSNFruGO0Cj0a5RZtUoCLBQ1COM/GOOYMMxR7E5fgj5l11KxZ230/TEw/DJe7B+ORTmQG0tNLT6JxAfBQ2N0NiAt8WJ2+ulrqmZRpdrB1lgkAL6BY8PmxZ5ZyFOxCWCBwQagckrQChi4CAtXPVYhYBCQCEAnSIG5r2xkJRTxxCdeD9DUoQUeIjBSVOJTBlPZOpYlbsag5SxRCZPJDJ5KoOTp7Xm6QxOnslgfW5mEZk8m5iUh4hNSSM68W7OvXgCCz75UX0DCoFui8CBJgays7N1PwK9e/dm3LhxlJaW7sC6ubmZV155hcjISOLj4/nggw90YmBHhQ4WFDHQQaBUNYVAFyEgsq3IvCLoyo65rjEgR1EPEAd/rRoENLpwNztxu1vw4sIj7IFbVPjLoakc6iugshQK8mHlT/D+B3gffZKq3/+FyjPPJzMumXUn9GNjryPIDulJoS2MMs1BqaZRYbFQGhxAWQ8HpeEBlAVaqLJoVGgaBZpGiaZRZdeoDrBQabVSplko1yyUahaKNAfbLWHkB/QhL+x48o+JoTzuDJrP+z2N198Mz8+Fzz6D9PVQXgg1xb4xi1aBSxyk1uOmGRcttODStZ3cTS689W7cTcIECBiiPuAjAlp5ExpaMdMJlS6aK/WYthGoa3KxIrOC95fn89KibOZ8mXnY5RcXZvPusjyWbS6jWog3lRQCCgEdgU4TA8mnjSEq6QFiUh4kKmk2g5OmEZUyjuiU+1XucgweIEonBtIYnDyFwclTGZQ8nYEpMxmULKTNbCKTHiYmZTaxYlaQeDfnXTyBDxUxoP4Z6MYIHGhiQKIKXHrppbrGwPXXX8+6dev0H8kSurCoqEgnC44++mgSEhJ0YqCxsRHJOTk5rFmzhvT0dMrKyjC0DNqaKkUMtIWKuqYQOHgICDEgQq7kJlEScLl99vmuemishpYmfYedumpoqgNnHTRVQX0ZVGyHomxYuRTvG3NpmDiW7df9hfW/G8H3gwbxQ4++bAs8giItgnwthEIthCpLKE57GAT0gIAQmm12qh1WCkI1csM08oI1SoQE0DQqNY08TWOrppGrkwQWyi126iyBOLUg3FoQaGGg9cCr9cCphVGnhVKthVNl6UN+8DH8eMQx/JgQR+alF1F+279wPjwNPnoHMn6Gynwo2wq1RdBcCa46cDf6oiSIjwKXExqqwNOoEyUijtUBtUZ2e3UFg4M3e937ye8vz+Ofz60kYcwX3S7f+OwKnQjp3itAvb1CYB80BpJPu4fIpLFEpz5EZPLDDBZzgpQ0YlImqtzlGEzymXGkTCFScuoUBqdOY1DqTAaniLbAI0QlP6ITA0NSphKdMFoRA+rr7/YIHGhioLq6mqlTpyLCv0QWGDt2rO5DYOnSpTzxxBOkpqbicDj0cISiUbBkyRLdpGDkyJFcffXVXHfddTz66KOsXbtWNzFoa8IUMdAWKuqaQuDgISDEgCHoNoomgKcBXLW+XfXGUnBVgLsKGsqgfDtkpsPiRfDiy3jGTaL47AspiE9h65HHkREcRm5wMCU9wqjq1YOGHhE4gyJwB/TEZQ+nxRaKy+qgWdNo1LQdZgKVNo0cu0ZOgEZlgEaTXaPFqlFntZBvCyTLEsgWzcZWzcL2Vk2BKk2jRvMRCPWahlOz4tYC8GjBeLQQ3FooTfYwqkNCKO8Rqpse5ISGsKVHBNkn9KPwlNOouOaP8Mpc+ORj+GUlbM+GmiJoKIHmEmiQcqmPCPHU48RJNR6qgZpWDwZOpTLQ5Yv3v8vzOX/qt92ODGiLALl4xhI+WVXQ5XOgHrh/ESioaOTbjaU62XO4aby8sSRXX6PfbSqjuGrXaFX7iuQ+aAyYiIGkRxmc+AjRXe50Tzk69Dl7fIjoZNHYSCMydTKRqWlEpohpxwwik4W4MRMDU4hJGMX5F4/jI+V8cF+/H9X+N4zAgSYGZKd/xYoVerSBnj176tEGkpOTGTZsmB5xICQkhIEDB5KUlKSHJTz77LN17QGJSiDXJYrBSSedxG233UZGRkabvgYUMfAbXoBq6IclAkIMiBuBOry64ItHSIEyqNwOJTmQvgqWfonr9ZepmppG8b/+Rd55F5M5aAgZ4UdSHtqXekcP3LZgsAeCwwE2TRf+RXgXHwF1moV6zUKT5rvuFL8BVo0mmwj/GmWaRr5FoyRAo9mu6e1bWjUGtmoBbNaCyNKC2KYFUagFUKJZdPMCMUOobc3yrHLN11expiFZ+pWjEAdemwZBDryOQJyOMOrC+1DW5zjW9jiCtYNi2Hz+hWy/7RbqHn8YPn0fNq6AwiwfGVJdDM5KvDQg5EkVHp1M8blfEAcLKnUFAg3Nbsa8tkYRAm1oSKS9t6ErpkA9Yz8ikFlUx6wPN/H7h7/vVmv6z4//wMMfbUbef3+kThIDi0g+9T6iEsfrdutivz44cbYiBg4aMTKL6KQHiUqeQVSKEATiiHCa7zz5Id3UI2qHKcFUohNFY2C8Igb2xxek+vjNInCgiQEBRhwKfvnll/z1r3/Vow8EBgZis9k46qijuPDCC3nuued0M4K///3vCHnQq1cv/vjHPzJnzhzS0tJISUnR24k/AjEz8E+KGPBHRJ0rBA4+AkIOOHXPenVQmYdr6Wcwdw7eWbOou+wPVA07i6wTY1kffjTpAb3Zao+g2BpGpRaEyxFGsy74+3bvhQgQwZ9ADU+EhdIQjaIQC+UBGtWWXwX5WjEXCNSodGhUOTTkvNHia9uiWWjWrFRpdrK1ADK1YLZZQim0hVBic1BqtVJq1Siya+TZNbIDNDYFaKx3aKwN0lgXorE+XGNriEZTiIbL7iMHxGeBkAViotBgC6AprCdVob0pCu1LZnBv1gb3ZnXPo9ncfwjFp55DxdV/gWfmwHv/gQ0rwV2Ni2YacFHnbREvCzpRcPBn8PAfgew0/umxH7qVANWWhsDurt3y4ircHvmaVTrUEXjqswyGj13YrdezvL/gsK+pU8TAy/O+JvWUicQkTWVwggiiM4hOnU5k8mQiUyap3NUYJKcRkzybqPjHiIp/hCFC0sRNJzZhBnEps4hKfIhBCQ8xOHkWUfo83cc5F09kwccqXOG+fkCq/W8Xga4gBgQdEd7FX4CYD4h2gGgC3H///fz444/U1dXp5MG7776rawmINoGYFHg8Ht0Pwfjx4+nXrx9iXiCRDPyTIgb8EVHnCoFDBQEn3pYq6n9ezPL7b+ezITF8HxpBXmAvKizhVIj9vjUcZ0AELkc4LZZAXXhv0axgs4LDBkFWsGu4Wk0Fyi0aOSEaueEaFUEa9RJZwKZRb9eoDNIoC9YoDdCocWg0Waw0ajaqNTvlllDKeh1FxbH9yAruSU5QBLm2YHI0Kzmt/ga2axrbbRpZNo3NQgoEa6wN01gXobEmQmN1D430YI1trWSAob1Q30pOiA8DIQqEJKi2BFIbEE6VI4wSaxgF1lCKA3uT0/M4vul1HF+feS7pzzwMBRngrcflddLU3IgbD04VluCAL+CmFjeyy7g7oVjd8/lZGDVv9QGfD/WAfUPgnteV1ov5e/370/vmWL5TxMDcV78ledhkIuOmEBk/jcjENF2NPXpoGjGpKnc1BrEpUxGTgsghjxEVM5uYITMYEjeFhKRpxCVNJypxBoOSHmJgyiwGD53B4OT7OeviSSz4eN8Wz759yqq1QuDgItBVxIC8pTgclPCD1157Laeccgrfffedfk3uuVwuPv74Y2JiYhgxYgTLly/XyYKCggKmTJmiEwa333475eXluwCmiIFdIFEXFAKHAAISs7AJmspoyfyFpX+6gm979mVbWC8KAh2UOHwCvOz6iz+AarH/t/h24Rtk913TdDMBMRUwzkV9v8KukRuisS1Yo0ZMB1pNCWqtGoVBGvniaDDIQrFmwaVrIART4OjD2j7HsXLEcNzPPELWkEg2RYSx0Wphe5CDigCbbh4gJgIi1Mtxu1Uj16aRbdfI1LOVbJudbRYrRa1RDSSygWTRGJAsZWkrudCiUWjVyLNp5Fp9/eQ4LGwNCWJL2DEs6RfDT2Pugrpi3UlhS704KnThbRTDAhWv8EAv4LFvrVWkQBvmA2bhylx+YWHWgZ4S1X8nEKhpbFHruJ11fMrYhZ1A1NekU8TAq298x9BTphCbPJ3E4bOJGzaT6JTpRCXMICphpspdjEF0/IPEJT9C8rAnSBo6i4TEKaSkiBryJGLixxGVMInBSdMZkDKDQUMlYsG9ihjo9CejGh4uCHQVMSC7/+KIcNGiRZx33nnExsby+uuvU1JSsiNKgWgPXHLJJbp2wN13383//vc/PZzhBRdcoDsufOqpp6ivFwvcnZMiBnbGQ50pBA4JBLxeaGqA+nLcOWvZ8n9/Y2N4X6rsIboJQLlDo6LVMWC13Sfk68SA5VcioEGzUqfZqbTaKRd1f7uDQoeDvGA7RQ4rcl80CcR3gLQtChRywEJ1UBD19hAqLAE0B/dnU9hJLI5Nonbes5CxHPdDE1jf7yh+sFvI6xmqRygos2h4g+z6jr9oAoigLwSArkWg2SnQgijWQtiuhbDV4iDTZmer1c42/Z5VJyIMomDH0apRIOSAkAxCaARqbA+2UhZ0BBuPj2F72gSoKfSFZmysgWYXNDrxKueDB3QJL1pXrISpdoQpMxngX95esasp3wGdKNX5bhHYmF/DuVMWq7W8m7X8f8+t3C2G7d3sHDHw+lJShqcRkziFIamyI51GTNJ04lNmk5DyiMpdjsHDxCROJS4ljYTU8cTGjyYxeQwJSaOJihtNdNJ4IpPTGJg8lcGpUxiUpIiB9j4Idb37INAVxIBoCkjIwTfffFOPNHDcccfpfgR+97vf8dhjj5Gdna2HI5Q6zz77LPHx8brDQTEpkDCG/fv35y9/+Qu//PJLm2ELFTHQfdaretPfGAJCDjSU4y3cTPU9d7Ct11HUawGI6n29TaNBdvwtv+76S2QBySLoN2l26rRAyq3B5DlCyQwJZ2N4OFvCQil0BFJltet1XK3kgEQkqLRadRKhXgvEpfWmQetNhWMQK/rGsunfd0J5NjTk4t38A2V/uogvegawIsjC5lYiwGnVEFJAnA+K5oBPA0C0DxyUaCGUaeHkWSL4JSic5WHh/BIcyqaAEN2BYYnm0P0X1GoWvb34RZB+jBCJukaBTcgQCw22vmw7Lh6efxZqCqBBtAWaocEDTeJ4UDkfPJArXcLy+Qu9/uej5v3C1+tLdhrG5oJaJvxn3U5tJ76znp+yKtrMH67cjggm/n0b528uzd2pnTzTuGc+XjRjiT4W8TJvJCk/92Xmjvp/fHTZTn2Z25vLuxuv8R7Sl7mNUX70k83G49XxEEDgzld+bnOejPlSR58pzNT3996JZqeIgVfmLSY+5QEGxDzAiZH30i/mXiLjxjIo8j4GR96vchdjMCjqXo7tdxPHDryB/tE30H/w34iO/TvRsf8gJv4WBsWN5KTYexmQPJlBqZMZlHQPZ12cxoJPVhwCn7cagkLg4CDQFcRAc3OzbiZwxhlnIKSACPxiLnD88cczZMgQRBNASAHRKti+fTtz587VoxiILwKpd88997Bs2TLdtKAtlBQx0BYq6ppC4FBAwAvOaijLwD1jAgW9j6VZs+vCv0EACAkgWc7FLMBnGmClSXMgAn6FJZiCgFC2BoezOSyCrJBwyuyBuiZBg96XdUfbes1KveagSQuiwdITd3gcG+0nsmHE1bD4B2ipAlcxlKTj+u/L/HT2ySxwWNjSswdFgYG67wAR6HfWGJBwhg4KtBCKtHByLRGsCYxgVUg46wPDybCFkqeFUKwFUanZqdIdHPoIASEGjPCH0qeQDXUWC43W3hT2T4VP5kN9oU6e0NIClUIOiN3VoTB3h+cYckrq9yhMifC8uyQCvyF0zflyzyr2QgAY9Y3j6RMW7fKIj34q2KWeCOm7S0JeSJ/+O6PGc/yPHRlve2TGBdO+3d1Q1L0uREDCEPrPrTr3EbRfnuYAACAASURBVAFt4SDaFXuTOkUMiPPB5GHjiE1JIyYljQuvmsOtoz7ijrv+y113vadyF2Nw58h3uPWu17jrvtcZPfY1Rt/3MmPuf5m7Rr/MXfe8zdV/eZbYk8cxIHkCg1InMVAnBqaw4OPOqZnszQJTdRUChyoCXUEMFBYWMmbMGJ0IuOmmm/TwhVlZWUyaNIkBAwboJIBoA4hmgeSGhgby8/PZvHkzUk/8CogPgvaSIgbaQ0ZdVwgcbAS84K2F6gw8z8+i4MjjadECdCJAyAAxAxBCQHwIiL8A8TUgucYiAr5oBIiQ7yMIarRgqiVbAnXhX0iAGovJBEEnFYQkCMSj9aDG0peikEGk9zsFHnkJiqugqRZqi6EmDwo34XzyYT6PjWJxeATpQaFki+aAXcwGNLZZNTIDNLY4NDY5rGyxO8iwBbHV4jMnELMC0SIo1wkBB2WanSLNTp5mZZvFopsPiI8B0TqQkIdCDIiPhGYtgDprL4rjR8CKb6GlmBZXJXhcUOn0EQNKYeCALdz5K/J3K1CJwF7b+Ovfm9kfbkKEc9nNr2v69bqxq24WtGXHXc4lf7NhZ20D2fU3Cyxm8sHoV55rriNl0VIwkvQr1/xJADn3v+bfj3FuHm9hZeOO8RrjlqP/WI22cswu3j/h4Ix3UsfOIdBRHxmyLiR8oWQpy/o2z6ecG+vHfDTWt7muf1nWibmNf9/m+kZd0XIRrRv//o370t/u1p/5eW2V22s7/YONewV0p4iBl15ZROop40kcPpXhZ81m/IxlrN3ioawKyqtV7moMyqqhqAqKa+XopajCS2EZ5G6HLTnw/GtrOfOyR+ifPJaBKRMUMdCBT2TTpk2MHj1atwcPCAjAECLVUduBheAi9vKCk+D1W0vGXIowvq9ZBPS2UkZGBtdcc41uIvDqq6/uCDkoDgZFi2Do0KEsXLiwTTOBtvrzv6aIAX9E1LlC4NBAwIsXJ7XQmIF7/gtsO7E/LVpwa+SBX7UERMAXp4ISTUCylMUZoQjS4kfAyE2aaBJI1pCdfb2NQ9N9FtTYfNoGQjw0WcIpCTqGrwP7UHHLGMjYCrW14GwGVyO4aqG+DM/GtWy7cyT/CQpjiSWQop5H6mYFeRaf48EMIQUCW7PDQoZdhH47JeL3QLPuyGWalULNQq7VQqbdQkaAhUyHlZwAG/lWnzNCIQdq9XcJocrel8qzLoOMn/FSTC01OL0eqPUojYEDvHSf+HTLToKRWXiRshAARhLB2Xxfdv6NZGgBmAVtKZvrS3sjiRBjvifaAUYy92EWmKRsTub2ZuJB2kv/5mSuay6bnyVEhvleR8oL1xabH6PKBwGB6oY9OxyUtWM2PTGGKeST2QTFf90Y9YyjEFPmNWleI2bSSuoLiWa+L2UhC0TDpq0k688gE8zrUsr+/RjnbfVjvtZe29PG76qhY27nX+4UMfD8S18wJHk0A4fcS8LwNB5+7ntK6sDpBZfKXY5Bi2gsSsx0oM4F9S7febMXaprglbd/5NTzpzIg+X4Gpo5vJQamsuDjn/zXgzoHZsyYQXBwsB5STtS4q6qq9llw3FfB81BsL7gIPhJ6T/AS3H5LqSuIgZycHG688UbdgeCsWbP0EITiRPC9994jJSUF8TUgEQrElKAzqSuJgcsvvxzRgJC1aGDXmTF3dRuJBiFrVHw2BAYG7hi78Q7qqGG324mKiuKOO+5gzZo1XT1Fh+XzPHgpp45mdw7uHxeQGx9PQ2Av3XdAg64J4NBNAqotdips1h3EgE4QSNSCVqFfIhcYzgoNAkCcDZYEauSHaGwP0Shz+DQPGjUr5dYgco/tx5pLL4SFH0JjKd6GMnC36I79GrwtNDVVQVUVrk8X8cuZl7As4jjyehxDRqvTQd3xoMXnOFCcB4oWgUQbkOuiTbDV7ssStUCPXNCqXSAaBluEGAiwkRPgYJs1gDzdQaGDUi2YcmtPSoJPoOnP/8BbvJF6SiijiVohBpoB8a+qTAkO2Pcwc356u0KHCB9mAcVftd98zxCqzdf8hRKz4ORPDBhaCUIemAkAg3CQsZiFNuN5hoDk/1xzXQHPqOd/NLfz79O/blvn7y7LO2BzozruGAKLN/jMR9qaH7kmwraxvqRHWWMy1+YkGitS13/dmOsYZenLfydenuGf2lpPZjJNxiHnZsLM+MbM69L/OzK/p/8z/c9313bZ5jL/6u2ed4oYeGXeIlJPHUtkwr3EDx/PzKeWUijma7jw0txmdnsbkeyhSc8ubwMtHolf26Cft9euK64bY+uKZ+3PZwiWMnanp4FmT4v+d1UIAiFojFzRAC+/vYJTL0ijf+I9REuYyVQJVziVBR8pYsD/yxCbbhHWZAf8UBTGD9UxCV6Cm+DX1Uls9++66y7dXv+zzz5Dduk7ImgbAuH+wLQ9jYGamhqefvpp3WxAiIDJkyfzxBNP6Fgde+yxjBw5Ug9j2FnMupIYELwiIiK47rrrdgjXnR13V7UTB48WiwWJ9LBkyRIqKirUd92GhoxEzVixYgUTJkygZ8+ejB8/vqum6LB9jhADBdTS7CnEnfkdW087haoeR+smAeILoE5zUGPxRR0QYkDPdp8mgE4GCCFgykIUGGSBkAcShaAg2JeFGBCnhtUWjW1BQWxOGgIfvgq1W8ElPwjrweXU3fpVywYCLdDcAIXFuF6ax+qTR7AyIJzCoIgdJICYAZhDEcq5RCkQIkA0CXQzA0OjQI6tpMCWAKtODGQHONhqD9CjF+RaHORbg8l39KKobySu2+/GW5FFLeUU0Ui5hCgUYqBawjwetkvioL/Y3hAD/kKGWYgSoV8ElvYEGrOwLy9t7IxKG7NWgiEYGcAY/fr33ZbQZRaYzGOTvsz3zGXzeOVZ0s4/m+v7l//z/TZjqOp4kBB4Z9m2dudX5kt27o1kXjfmNSLaBFLXfE3aGPMtRIBZgPfXBjCbwphJB/M6lz6MJOYyxj3zdbkv183r0v+7M8YkR3MyX+9IWcyIOpo6SQwsJPXU+4lMGEP88LHMfGqJrsru0fetxXtMx7KXeiR3tP6+1PN463B5avQs5a567r6M2dzWwMo47nyvETdNtOCkRf7zSnYjmgRVDTBXiIHzJ9E/cTTRwyYRmfoAZ108TREDfl/J22+/TVxcnO4Mbn8Ii92tD3GiJ/gJjl2ZZCfYZrPpu8G9e/cmPDxcFwZF8D7ppJPaHUpXEAPiN0D8BYwaNUqPMCA71jLWvn37cu211+rCqjgo7GzqSmJAsDQwM46dHXdXtBMS5uSTT9YjOnS3b3Ff3le0XC666CJuueWWrpimw/YZYkpQSSMNzdvwbltL3V/+TnZgb2rsgTRrFt1UQLz2V1kkW6jWr9lpsvg0CWpanQk2W0JosoVSFxBKUXAwG0Ns5B/Vg+qwYH0Xv1BCHIZacQYFsM2isbpvKLz+FBSvhYY8cFZAQ53s3OB0eqhy1eMSKdxd53P8V5iB+8UnyUxOYommka75TBqaHD4ngkIIFIipgC2EbHsYBeG9yXGEskWzs1GzslmzkWUP0HOG1UaGTUwKrGQF2HymBTaNTLsQFnZyQnuw5YjBMOVhKM/FRTXlOKkTLQH52Sg/Bzv/z+Fhu5b214vtiRgwCzn+AkpbQpRZoBFhS9qb+5BxG7uzhvBiNiMw7pnbGLuz5r7lvtG+rWNbY2urnrnP9jBtq51xTRED7aHWddfnmKJRGPNiPprNTIz1Zdw3/FnIaIW82t26Ma8VKRt9yNH8DDPRJWWjnvm61Deuy9FMOsgYdvcsczszyubrHSkLbh1NnScGTruPyMS7iT/lPmY+tbiVGJB/3dvOHo8byV6vR89SdrlaaGlx6lnKRp0DcZTntje2jlyX9gdiXHvTp9vt0jFzOpsxsuDncjtxeZtx0eTL3mbcXhduL1TXG8SAWWPARwzMV6YEO30nItR++OGHakexjR3Fjgoagp/g2NXp7LPPxuFw7CK49urVS9cgaGs8hnDb0XfbXT0R0NvLIvgLOSA+BqZMmcLEiRN1LYJVq1ZRW1vbbrv2+vO/vrtxdeaePy7jxo3TcRVBW4RG0XIQzQGp559kbIMHD9Y1OD7//HP/2112/sknn+hETG5urvqeO/k9n3LKKbzwwgtdNmeH24Pkl1AN8ve5GAozabzpdjLCj6EqQIgBn+q/EdZPPPjXaTZfOEN7KBWag3J7CNWhvakI7EW+FkyOFkR2YChbekewRtPIFweGNjstQQFUiM8Bi4WaoyLgX3+F+a/h/eh1yuY+Tcazz1P42dfQ6IUWD56WenJXfMePzzxF/isvwZJF8O6beP54DXlH96HwiBC2aBpbWyMJ1FvtFFuDyLCEsS6gB4s0C+sCwtgacRQbHKGs1qyk2xxkB4WRHRiIkAPZNivbbFZyrRq5reYHBQ4LOeHhbDohDp54GWrK8FJHJU4aBCwxSRdiQGwiVTogCBxIYsB/wKKC/cbS3B07pYbwYrb9bosEMIQ5s7CkiAF/dLvv+Z6IATPJJEK3se7k6H9vd8SAmcDy1xgw0BetE9nxN5KhASPPMq9ff2JB1rhckyzfwO7qmsdvPEeO5usdKXcRMXAvkYkjiT/1HmY+/Q1F4li2bU6gI3J3l9cRnsDtAlcLeNywj7xBl4/fzL9IuGQPbtw040FMNsTEwIXbAzV1MO+tFZx+XhoDEu5tNSVQxID5A5Oy2MrLznNnBCnVZmfnfYKj4NlVSVSgH3jgAfydRB511FHtkgIyNn8BWM2jbx79cTETA+Y5nTdvnvl0R1ls1B988EHduWJYWJiuGSF1i4u7znHTaaedxhtvvKG+506SAvItLFq0aLcaNzsmXBXaRMAgBvBWQnEW7nsnsKXP8ZQGBtJg/dX5oDgTbGwlBiqDguGiC+Cf18Ft/8B96ZlsHHAMP/QMYnWfCHKOOIKiwDDqbME4tSDEp4CQAqUWjUq7RnmwFe/gk/CcNYKc+ESW9o9lcfxZFE15BmqaobkRV14WP44dz5vHDuGbiCiqE87Hm3IOpUedwDqrxiq7RmaIRpXDF25QNAbyNTtZWgjrA3uy7rjjWHH80aw49gi2JcXBDdfD/ffivuwycnqEkWm1kWexUqxZdVMEGZ9EJRDng8VBEWQNGgpv/hfqyvBQ96vGgGgKiBN6RQy0uZ72x8U9EQNmm2h/YcYsRMmOp7/wI0KXIeyYd0TNQr3ZxEB2bw2Bxty3sbtqFpbMfRhtzEdze8HJfM9c3ps+ze2MstIY2B+rcN/62BMxYPYvIOvCmDs57okYkPqSxUGhkcxmANKHWRPA8IkhBIEkw0RB6pnXmpTN4/Avd7SuMSY5yrv4Z/m+/Ps2zruQGLiL+FNHM/Ppr33EgGzKt5MlGo27xZel7BU7MlNdOZfrByq7nNAiTnmdO4/BfxzmMZnLB3p8e3pvGbuzyTd+/zH7iAGhBsSGsBmPx9mq3WAQAys5/bypDEy4n+iTpxCZOlY3JVAaA79+ZhJP/t///rcSJPZBkDAEa8FR8DyQySADoqOjiYmJQYTXpKSkHcL+nkgBGZu/AGyMv7sfDVxmz55Nenq6jq1cE42BvU1CBggpIGYTQhJIJIaZM2ceUAd3GzZsoF+/fupb3g/f8ogRIziYmh97u94OpfpCDNSKeaUQAyW5uGc+wpZjBlASGEijRdPDFjpbSQHRGCi3WCgMDCD/mN5w+VnwwK3w1GT4z7PwxpO4brqW5UeHs85qoyIwjGZHOLWaXScG6gJs1NgtPgeBFgslgcFkaEFsCDiC9b3jaRk9EyoqoaoIb8FWyh8Yz5oj4snVjqNGO5YKrSd51mByw4JId2hkB/rIhhKL+BSwsT4omJXhEXx/xBGUX34+pN0Db74ILz0JD9yN9+pLqYqPJqdXDzJtFgrECaJmRUwlJLqCEB9OIQoCe5KVcDp89g00lNHSSgzoP6vFQZIU5KjSAUFgT8TA7gQUs0BkCOrt1ZddUHMyNAPMxIP5vrksgp0IM+3Ziss983NlLIoYMCN4eJf3RAyY3353xIDs2vuvG3NbKQtJZaxdQ8A2axIYpgPmdW0I5+Y1KmWjfVvHjtb1H5//uf/7mp914ImBV78i9bQxRCbdSfypd3eIGBAh2xCuhSBoixwwC+KqvCtxIvgZpICBpRAdzmYvLpe4OhLnj2KS4cLj9uiaEDW18OqbKxlx7jQGxj9A9MlTFTHg/zUBaWlpugDU3YXC/fH+IqQLnvs7tUUGrFz5a5giwwZeSIEtW7bs8fGGALw/3vlw6sPAxTgauHaGGPCfBBEyxVGkmBvsrcmBOA785z//6d/lLuevvfYaf/7znxUxsB+IAXEmOm3atF0wVhf2jIAQA7qTP6/EcM7H/cJctvSPodwRhEvMAFrNCcpsGgUOjbxAC7khAeT1CiP7iHDSj+5BRtwJOP9+CcyZDJ++jGf+cxT9/kzWDTyajZYAKqyhuBw9adDs1FssuIICaewRQlWPUAoCgygIO5Ls8AF4brsPqgqgOhtP9i9su+5v/KD1JEcLoUrrQYkWxGa7jXS7z8GgRB8QTYEsm42vgyx8eHwPfr7mbDyPjYOfFsLzD9F4/ZWknxzLz/2PYdWRPVkdEUJ6sINsq4VCXZPBihAeZmKgOLgPW0dcCD+uwtssMRuqqcCDOEQUHwi6OUHbkV/3DLiqsUcE9kQMdFQYb2tX31/4MQ/GEFiMnVXzvbbKUt8stJl3YkXYMQtSMhZzXenPLBCZy+Z2Brlhvr+nstIYaGu2uvba/iIGRKj3XzdtvYmYw5jXhVkjwXAoKCSDkYzvwLzWjGvmfszljtY1niFHaeOf/UmMnZ/xqxaEuZ+2yrsaibZVy+/aK20RA1U+BQC/qrucyu622+0TZD0eL3Ju5F0q78cL8gwRnpuanDQ3t+AWPfvWJOOQ/FtOXgxiwI1XcBUNDDfoxMAbPzHi3OkMjB+riIF2JlkRAzubA+yLoLs/iQEhA8aOHYuhGSBlMxlgnk5x6nfkkUd2iBSQdobguy/vejDbSujAL774Yqcs3uT9rxkhBjs6VgOXK6+8cgdGcm1/EAPm+RKTA9EeEC2CjpgciPaC+JEQoX93SSIR3HnnnYoY2A/EgITYFMeZKu09AvKLQtz84a2FigLc8z8mO+FkSgJ9xECLbj6gUW7TKAzQ2O6wkB9kJT/IzlZxJNgrnC1HhLMwSOOLIwOovvFSnRzgl8/wPj6JsjNOZW1gOJu0AEq1EJq0UOotgT6bfrHr1ywU2kPZGngEzhtuhupMcG/Fs/1n8v/vT/wU3JtCrSe1Wk9KbeFsighhXaCFLM1CrTWUrY5QvrRZWZQ4kOrpo+D7D/Cu/B+l113KxtRIvj4ynG/7BPNj71CWB9tZYdNYJxoGVtEYsOgaA2JC4DMjkKgJVvIi+pJ/1d9gcxZeZxUV3iqdGKgQ20jRIhVtARWVYO8XWwdb7IkYMKv6S5dmQcPsG6AtPwD+wo+ZBBABTPoyJ7lmziLgG0l2YM2223Ld2IkVYcfct5AZ/gKeuV+jLM83C2DSh3HPfDSEPbNQZZQVMWDM0ME77okYMK8NmVdj7uQoZJCRjDk3zuVo1JW15u+oUO5JG3OS/iSbnyllqWtea/7fhqxvo63hb8Do17+uMSY5mpP5ekfKB1xjYO68hZx86n1EJYzSTQkefGYhxVXeVh8D8udQ/mUX+teNeObVmfO6ZrYXVJOVXcHG9BLWbyhhfXopGzaVsl7O00v0spwfiLxxU5n+3A0bCsjKLKGsvJ6WFiEHZHS+o5TazF4oKa1h46Z8NqYXsjG9WO9rY3qpr8/0YjZs2sfxCxbpZa3ZhEHr9fUbS1m3oYR1G4pZn17MlqwythfWUl3rwikkgD52wdqD1+PB6/aRA7W6xsCvxEDM0GlEJY/nrIumq6gEpq/scCIG6usbqKypY/22MmZ8soGktK+4+PGlvLksm5yiSqpr69sVmqRtdW0dRWXVrNxUxEtfbGHaO2t54+tM1mWXUlZVS01tPfW7ETr2lRjYGzLAmMK8vDwuvvjiDpMC0s4QgDsqMB/MeiIUv/jii3oYORGkjV184x32dBRngdJO4tRLP9Jfe+9j9CUYVVVV8fjjj+vP29/EgDF3cuyoyYGQP6GhoZx33nnm5juVFTGw/0g+RQzstLT26kR+S4g7YLx1ugq/57vlbD/rfLYHh+imBOKAUPwLyI66OCGs0wVyG42h4eRpGjliEhARzrbQYNZZLOT0DKPy3FPhuw9h41I8779O8TV/ZOWxg8jqdRJVQUdRYLFTFhpCbZ8IaoJDqA/tTVHQkVT/9TooXoXLswn3tm9Z+++r+ebIXmwICCFD09hgsbC8RzDfB9gptfaiMPAovu7Tl2/OGAqvPgn56/H+uIiaW29k+TF9WOmwsUzT+MlmYUNQIFuCA8kMdOiRCHI0C3lCSohPAU3Ts2gfVFitZPY9morb74biEp0YKPfWID/Vy3RbytafjQKcSgcEgT0RAyJgmIUnIQO+Xl+i204bAzLbXO9O+DH3I/V2p40gzzXvuhoaAmYVbdmp/XDl9p2EMGMs/gKbMVbzUcZgHq/5nrnsL0yahS5FDJiROjjlPRED5nXnP5dmckvu+a8b81yb+5G1K/fM63F3by/kknmtmZ0SSj/mvmUM5rpSNo/DXDY/03y9I+UDTgzMm/c1w4ZPIiZuLEnD72HW019SWikCqUin8j+hfZvx6jbvHlxeyCto5OFHP+OSy6Zw4SUPcdFlj3LhFY9x0VWPcskfHuPCqx7hgssf5sJ9zrO58PJZXHD5LM6/fPaOPi++4lEuvWI2F1w4gdtvn8Py5dm43egewcXDvx4doJXSEEG7sQWcHl8uKG3hiWc+4/KrxnPZlVO57IoH9b4uueJhLrliNhdfOYuLrpzNBfIOVz269/lKweIJLrriKS664kkuvPJxLrjyMS646jEu0MtPcPHvn+GSPzzLOZfIs2ZxydVTmTT9v2zJraVZnA3r9IYQA6Ix4MTrcelTUVsHr761ghHnTtE1BmKGTicqeSLnXDhDEQOmr+xwIAZEqN9eVs3ijQVMmr+O1KmLCLv9Q+w3zyfg5g844u6PufSJpTz/9RZWby2lvLp2h3Aobcsra1mdVcK7S7KZ9p+13DFnJTc/s4J/P/MjNz/zI3c8v5IH31vHhz/kkJ5bRlVN3Y72ZiGzM8SAaAEYmgGiHbA7zQDTtO1T0RCAzWM/lMrvvvuuLsiLM0djrP7HM888E3P+xz/+sdO53PNvY5xLv0IUyHPM723c9wdXIhJ0VWrP5EDMD2R8ojlw+umn09S0q6eyw4kYMEi+9PxyHv5sI8lpX3HeI98yb2kW2YVC8tW1S9L5SL56istrWLWlmLlfZjD9nbW8ujCDNUKOGyRffftEgiIGOr/iRb4Vrz94G6C2HM+GjRRc+Xuyw8KotfmiEggxIJoDvmyhRQ9RaKPeEkCVZqNMs1JrC6I5uAcNthA2OQLZcPrJ8MozkLsZ7+pV1Dwwjm+HpLIy5Biywo+k9ITjqet/POUOB2VaAIUBEVRfdQ3k/wTuDFwb/8cPfz6b/4Xa2OAIpjAogpLjT2RtQiSLjjmCnwOO5Mde/Un/+/Ww5HPYvgXPR++Sc/U1fNf7GNZbgygMDKHIEUauZmOrZiHfZqfAFkCOrqmg6cRAgcVnliDRE7ZrohVhZcOxx1A1cTJUluNpqaKMeiqBUpcTr+wlSVbpgCHQEWJAhBrzDqh5MCKIm3fudyfQ+GsAmPtsS/jx1yiQcxmLuZ/2xuIv4JnrGWV5pnm8xnX/o/TVnqCliAF/tLr+fE/EgNkHgAjyxlzKWjInue6/boy6cjSTAMZ6NRMLct9YU3I0O9wUksvct6FFYPRvNkeQ78m8Lo1nGXXNR//xm+/tqXzgiYG5ixk+bAqxQyaQPOxeHn7qc8oq3D5FAY/8IRT3so26Izzxld/ihXXpldx+19vExN3D4JgJDIqZyoDYafSPE2/5ExkQN5EBsfsjT2BA7Hj6x46n3xA5Sp+TiIxLIzZhMrFxY7j2T0+wcGEGEj7c4xYzAlHDl7123yvIeJs9vtzQAjn5LsZP+i/RQ/5NVOxIIqPvJzJ6AoOjJzIoZgIDY8YxIHYcA4Z0MkvbmIkMjEljYMxkBsSY32EC/WIncXzkBE6Mmki/KKl7D4OH3M7Nd77GmvRq6pqhSRw36m8hhECzjxjwQm29EAM/csa5aQyOG0ts6gyikidxzoUzFTFg+sp+y8SA7N7nlVbz8c/bGPPOLwydtpCIOz/SyQDbvz/AyPZ/f0DgLfM5avQnXPjYEmZ9upHvNxdRUlFDRXUtS9cVMPmtNdzyrI8MuOnpH/HPQhLcPmcFD72/nrVZpdTV76p90FFi4GCQAaYp3yEwm4Xig12WnXwR1o1wgIaQLuei2i+79osXL9bDBprfZU9lEeqlnbSXftrqX54rzzeeuac+u+r+6tWrd5gcWK3WHeMLDAwkJSUF8T1gTocLMVBYXs3STQVM+2g9w2d8TY87fiX5eo/6mAseW8LTCzezKssn5BtrV/49KK+qZW12Ke9/t5UZ76zTSb2dSL45K/Xr85flsGFrGZXVbZN8ihgwr6y9L4vXH5erDpqq8WRls/36v5MuO/8BGnUWwymfjxgw/A4IOdCsWWnSs50mzcgOyi2hbLD3YUVUMrzzHpTkQ84WGt5+k1dO6E/+ZVfCc0/iOec0SsN74ArtS5k9jPoRl8CKxVCXjeuXr1h34QjWhPckV8Ig2hzUDx2G5+UnyL71Bt49YTCFdz0AW9KhrBDXd0tZdeHvWenoR5F2LGVaMFWalSrNTqVm1bM4GhQSo0QTB4hWPZRioc1KtpACAVaKQwLJslpJHzwQ3nwTCvLwehqoxaX7F6gTaOUHmESL2nuYVYsOItARYsAQMESwESHFyCLsiHBl3JejCO9ST7KU27snwo9RT47+/Rjt2qtjponv4AAAIABJREFUCE/tjUX6M7dtqyzjM4+3rTpyrb2xyRgVMdDBhXYAq+2JGJA5NJII4BP+s05fG2ZiSsgmmU9zXWljrEM5ylozkpRlDRpJCDJzXf/6hoaA1DOSRDqQ54nWi5Haiu4h5INoFPhneYY5+d+Xc/lG/cdlnB+SxMDGjFpG3zefpNTxDEmcSkzig0QlPMjgxGkMTk4jMnkK0UnT9kOeSnTSFKKSpuh9Rul9TicqfgqRseOJjB7JH655lC++3IJsNom/A11bwOvRw/uJqwH5+yTkgNOLLnRn5jiZlLaA5JRRJCWPIyFpGgmJDxGfOIu4JMkPEp88hYTkiSSkTNj7nDyBxKRJJCalkZg0eUc/8SkTiEuZSFzKZKLiJhCXlEZyahqxcaOJib2JMaNfJzOzFpeYEoivBkUMmL+bvSp3hBhwi4pJh5IXmiog801YOQ42PAU1W33ONDrUnp12cI0f/P7H+vp6ckuq+M/yrfxz7griJ3+pEwKOW+bvIAMMUsB8NAiCI+/+hDNnL+aB91fzxtIsHl2wkdvmrNyFDPAnB+RctAfEvEB2I/3HtTtiwCADJJJAV2kGtAe5IQD7j/9gnIt6v6j6G2OSo5gLjBw5Uhfo23uHfbkuRIH0n5iYuNNzjTHsS98Hoq0QF+KLwBifHIUcEJzElMRIv2ViQIT6/NJqPl2dx/3vrWb49EX0vGtXkk++Z/nO5RsWDQIxGVqyqZDiihoqq2v5YWOhbgJ063O7J/lue24F099Zp2sU1NXtSvIpYsBYVZ07ijGly90IzXV48vLJv/lmNvbsQZVdo8YiIfx8ZgRiTiDaA2JeIMSAqzVLWbKQBPWanRpLKLXhA/gqoC+fXnQpzcsWg6sST2kOZa+8BJ9/Csu+wX3JuWQF2imzBlNh74Pzd1fCD99BSSau7/7HqqEJZAT3osbemxyLlewTB8Dbc/Cm/0DNCy/AkmVQV4krP5cVo+/nP0dHsUrrS7V2JLVaEHWaVc8SglBylWbRc3mrbwHdeaHVyjZNo8hupTQ4kByrlYzYaPhwAVSU4qWZWjzUiy+GVlJAfCOpoASdW2sdabU3xIAhUKjjFzuELUUMdGSVHdg6eyIGZL2atQb8R2OYn0i9jhIDInSbTWEMYsH8bZj7EkJC7pkjebQ1DiEbpJ6ZhPCvZ5xLvT0l6cc8JnP5kCQG0jPrGPPAApJPnkB88nSGJM8iJnk20SkziR46jejUacSmzNgPeTqxKdOISfH1GaP3OZO41Jkkpk4jIel+/vLXp1m4KFMnBsQhodvtwut16w4J3eK4TzQHRD3fC41OMYNwMX7iWwwY+Bf69/8n/frfzkn9RnJiv1Gc2H8kJ/a/g379b2ZA/xsY0P8fe50H9r+Bgf1vbM2tfQy4nv4Dr6f/gBvoP+D/OOHEG+jf/18MHnQTA076KzGD/8jI2x5n/ertNNWLScTuiIHlSmNgD1/UfiMGWhog6z8wPxHm2uAVDeZa4e3j4JcZ0FS2h5H4bu9JOC0oq+aN77O4ds4yIsd/TtjtC3bREDCTAW2VDYLgmNGfcNFD33LTM7tqCLRFCsg10Rx44NVfWJFeRK2fQNEeMeB0Og86GWAG3xAwZff8uuuuY/ny5buQHHuah325L8+T55p376Us5gCyS96VSZ4nzzWPpSufv6dn3X333QQHB+8gBXr16qX7GggJCeHYY4/dqXlHiIG9IvmaqyDrXR/Jt+4xqNqyVyRfY2PjHteVqP3nlVbx/oocbn5tpe4XRAgBEf7lO23r+5Vrck/q9B31Mac/9A33vPMLry/N4omP03Xyrr3v13z99jkreeXLDLaXVO8yTkUM7LS0OnXi8UrooAY8RYUUj7mHrIgIGq1Waq0WKm0aJXZfrrBr1Fp85IChPSBEgZAGFeKgMNBKgSOQPGsE2f2SmH/BRWR+/gFN1OASB4dVpbB6Je5X55Ae05+1Do0szUqGNZRNQ4bD8u+hIpeWFV+xJC6SLVoIDVoPyiwOMo48jurZE/SoBZTlQ20FNNfStGkj8y67ireOj2Zjr0HUhvejRHNQqVn8skal5svVOjmgUa1rEGjUCIlgd1Bus1GQkAzffAON9XoEpQbdD4OYbvp2ZHzEgLAEKh0IBBQx8KuQbxaaOlpWxMCBWJV712dHiAGZTxHKRYA376yL4GzWCBENErlmZPM6MN8TUkB24416QgKY6xpl474cjedIP0JUmMchZghy3Wgn/ZnbtlWWum1dN19rb1y+tgc4KsG8TpgSrN9czV2j3yMu6X6i49OIjp9JpGgMJE0jMmUKkbLDn7A/chqRCZMZnDCZQYlylD6nEpUwhZj4ScQMGc0fr32cL7/K2EljQAzydW/+ckS0B1y4PG7dP0J1nYfFSzN5/qXFPP/icua8+AtzXlzLcy+u4dmXfuG5l37ihReX89KLS3nlhSV7nee+sBRfXsJcvf23vPziYl568Vu9z5deXMbLL61g3surmPvCcl6Zs5h5L37OkoU/U11eB7r5huxNtEYm2MWUQBEDe/qnZ5+JAU8LFC2DLy+HV4N8hICQAuY81w7zkyDzP+Bq3O2Q2hM4yypreeuHbC578juOv/dTgm9d0K7Q0J4wYb4ecPN8jhv1Py6Z+S3/fGr5Dm2Bu19exZzPMnh3aS6frtzO/B/yuG/uzzvui2Ahfgee/GgjpRU7aw20Rwzs9oUPws158+btslsudveGZ//25mBfrkvEAOnf32+A7NrLeMTZ38FM8nwZh+zCHypJCCVxODhw4ED+8Ic/MHv2bD777LOdtATMY91vxIB8oznz4cNhv5J8r1jhraPgp4nQWGx+bLvlPREDssv/zvKt/PWFH4ie8AXhd3SO5DM0CM5/cDH/euZH/t2GKZCZEDDKQvLJty2mROJY1Ly+FTHQ7rTuxQ0PuJrwlpVQlpZGRq/eNNls1NusOjFQGvArMVBt9REBukNCi4acC2FQLOEMgzW2hwZB4qkw5RF47x082WvY3phHkbsYGsshK52WUbfyQ0QQBX16UNm7D9lBfVgWFQ8/fw91OTi/fZ+vkiPZ6oigRnNQY3GQ3etoVvzhIli3FJzleBsqcFYUQ3kpfP01vDQPzzV/JS+sN3mavdWpoJgN+MIalmkakss1IQQkIoFoQ4iZgfhSsOLUHNTbAqgadhr8uBKcjXp4ZTE6FWVbp6hnSjhmMePUdTb3Al5VtcMIKGJAEQMdXiyHaMWOEgOG0K2OvjV/aGoMZNQy5v5WjYGU6cSnziZu6MMMGTaLuFMeZMjJMxiSKnnmPmbpYzqxqdMRR3uxen8PMiRlhq6KPyT+Hv70pyf5amErMdCqMeAjBsR3oq4vgNvTrGcRtp0uL80ur8+8oNX3gPggaBKN8VbGWye8RdO8s9lwvCN/HCV7fPK+RFUUDXbdaW8LeJzgbQF3s5uWhkY8zVV4nKV43LX6H1ovbfkYUMTAnv6N6zQxIBNVkwXL7oI3+sArlp3JADMxYJRfDYYvL4Oi732T3cbgzD/OjbI4Cxz19s+cdN+nBN+2YLc7iWbhf3flkFvnkzz+S/722LKdhP5xr63m6zVFrMut5IufC9iUV80H32/bRdi48/mVu+w0/laIAQN2sb8XlXrzbrloE8j55ZdfvoMo2J0nf2OOzEepbxAB0k9b/ctzu9Kpn/HOh/Nxn4kB+ce2dCUsugZeDWn7exZtoPdjYcs8cMm+Z/upPWJA/AC8v2IrVz79PSfc9ykh+/hN22/+gKNHfsKFMxbvRPKNfPEnnv3fFt77LpdPVuSzYHke415dvdP3LiTfo/M3sL10Z60BRQy0P68dvyN/xJvwVpVR/shDrDuqD7WBdp0caNYsNOjCs8+UQKITlNtFO0AjL0QjN8R3LAjSKArUKAu2Q0oK3DUSvvgfVObhpYpabxk0FMOGn3H99c+sEy2DACu1wcFsC+nN1zExNP30Bd76jZR+/hwLThtMbu8jaNCC9HCCGdZAlkZGwdefQ8U2XyQFZz3UVOpODnnhSRovPpv0sAAy7RrbrBp5Fl8Wx4IF5ugDmoVSEzFQr9lo1gJpsYfRdOb5sGYdOFvweFy602RR0RSlCj2Ag2hpKg+EHV9ae1lTEQOKGNjLJXPIVVfEQOfW8CFJDGzYUsOoe/5LfPJYYuLTiIqfzuD46QxKmMKgpDQGJ07Wd/plt79zWTQFRDugbY2BuJSZpAybSVLKWP72t2dZ9HWW7nzQ1eLG5ZKQQl4fdS0CuteDx9OExyPqbk24acaF/BGTOAsGGeCmiWaaqKeJWpxST9qJRlwns9frxav34RadBeT/4rxIIg40u6C+AZoafSSBzg5QA0js1yKgWq+piIHO/Tu298SAsELlsO5xeHegz1zAEPw7dLTAG71h2R1Qk90aKPPXsZsFTKO8Mb+M1KkL99pkYPfEwAJSJ3zF9Y//sJOgMO51HzGwcHUhsz/YyIrNZSxZX8wtz6zYqZ7YMOeXVO20y/hbIwZ+RR0WLFigkwS7CwcovgDMWTQAzOf+vgIMkwU5Gn4D5DkqHRgEOk0MCMlXmws/3gdvHtkxkm9eIHx2HhQsbpfka4sYqKiuY+x/19Dv/n0nBIzvO+iW+SSM/YK/+pF89839RSf3NuZV8cUvBWzIreLD5Xm7kHziNyRze8VO37IiBvbHGpXd8Ga81eXUPP8M647uS11QAM1Wm+4/wOdXQMOp+ZwR+hMDQgqUODRdu0C0B7ZZNDZHOKi6/DKaHnoINq2B+nIoycPzyQcUDUtlU+sOfpWmkWm1sXzwYFj8EVRn0vLpXL5JOok1ovpvdVAiTgHtdpYeeQy8/TYUbIOaKry5hVQ8NYfMm/6PT07ow/ehGtnhGtl2jVyrjxwwCAKDHBDfAqWaRScKxDGhEASVmk3XTGgK6kHLxVfAxs267aP87pKfW/pmiqgOiDmkFxoUMbA/Fl2bfShioHNClbHrrEwJ2lxWXXpREQOdW8OHJDGwOaue+8Z/TOrwySSkziAuZRbRSQ8S2WpKEJUyRfcNIP4BOpfFt4D4KGjbx0BM4jSi4yYSHXu3bkrw1VcZNDaDqzUqgS7NiwQuf6k84pBQQhjKTpBEVxAOu5kWnRxw48RFk/5fLU1U6tlJIy14dCFeutmbLI/0ZSEC3K3PcemhjiToo/zNbCXUddMGlz4+0QyowesRdVbJNYoY2Id/nvaKGDBUjD8+DeY52t5R7BA50Op/4N3+ILbLzRK4yZcMMuD/2TsLODmqrG93j0WB4LtB4hm3JMAuC8sCK+zL7vvtyyqLLJ5A3D3EFQ0QyAJxIS4TdyXuMslkIuNu3T097c/3O7emkx5Nz2SIQFd+N1VdXTa37u2q89xz/sdzHnckiQf6rLqm0AG3EeGeizERPmAtL364q4zBL2Bg09EM1hxIZeT84+w+nc3Ok1kqY8FlF+TP9tLz64MVRhlvZTDgrn+Zy0i+uNXLqL6k/Ss/4u9p8Fe2LNvLfrK/HMfnGeBZuz/ccs3BgPgv58OpKbAoxCNsoFwoUJV9Wg+z7oDtb0Hh2QqQrzIwcCY1l6cmbCGoY9X6Ae4+6u1c+nLMoPW8/HFZ759+0w+z/nCaAnuTlpxS/XiH9OVKIN+5FB8Y+EFapgyJmwpxzJrOmfvuwx4YhNU/gBK9H+ZSrwERH3QXdyiBZC4wlRbxLCgK0FFwh44EvY54XQA7A+/m/B9egi/mwd5j2GfM4Ejzn3Hudh2GBjpcDf0x6OuR+fM2MOYjWLcNZ6/+JN15N0f0Oi7W13H4Lj37mtZn+123Q98BEH8R1zdLyf5LNw4+9Ev23NGUow2CuBCoU+kIVRrC0lSEAgQqlAA/bbsATXww1c+fjMAg8u+6C8vf/g7nEkGggFVSK5e+/Mirlg8M/CBNz/OgPjBQO6PKBwY8W9GNXfaBgdq14ZsSDCjxwf7LiG4/iLDoEYTFjCM0djzB7UZrGgOxwwmNHXkNZRShsaMJjZX5SEJiRxLcTuaybgwCBiRzgIQSSLrCzVsSKbGiMhHISL3AAHl2i5u+CnFzOXC5rKXu+TJ+L2PxmgEvm4ixXr64wwpqOncfR4x/Ke7P7uNINLpRPAZsWgpFm4QsKq0eEUoUdCDavhKzp11lxXSFe3jmudG0jRpEm+jhhMQO4+k/jGHJsn03toffRGf3DgzY1YgLW/4Ns26vGgiIlsD8h2HVU7D+f2HN72BhW5hehfaAGBzTgmDFLyFlo/JY8QQCsiyK4ZJesEnXFXUKBoI6LqVln9X8deKOsmBg5hE2HE5n1b4URsw7poyJbcczK4CBIbOPkJ5T1v34xwIGKmueEoMvav7uIiP/kgJQ5u51Mr/RWgGVXftPZV2NwICjBJJWweqnq9YGqRIIlAMHIjI6/0E4MlbzJpLniqDlSsQH1x9Poc2gtXXel0P6reGfH5SFfAIGJBxo0xHJVHCcrccy2XUqu0Jf7vH1QRJ9HgM/UDexQ4kRx6KFnP7Zz7EF1VdgQIkQ+pdNXSjCg7ZSSCAwwJ2tQAkR+usobKQjK1CPNagxpobNONOwNVuDHsb517dw/PsNTj/wAGfvqM8pif8PDCTZvxFHA+7icKv2nI16igv3tOaUrhGng+pz9O5GLGmgZ/MDDdl7113w3N9x/ONdTrb4NUf1bUluFMJOgQANAjDfplNhB6IfINoCEj4g4QTKe0CvfZZ1qQF+nJP19XRc8NeRIqKDQfXIufc+TP9+ES5dUi9eAgaU0rO8WJWCAaeEbfo0Bn6gNgg+MFA7o8oHBn6wJlnjA/vAQO3asA8MeAkGLJZS3T55gZPi1geQ+H67A4ddwgygsMjOjp3xfPPter7+ZitTv9nB1G93MvVbmW/nq2+38eW07XwxbRdfTNtdi7KLL7/dyVff7lDHmTJ9K1+osp3Pp+/ks+l7+HLmIb6efZyp0w/xxdQdfDF1PXFrD5GcVoTZ6sTmFOFB+Ve5xsAvfj2Ih9v2IrTdaIJjhvLb/xlP3Krrq3xe41+A67iDV2CgKAlWP1P1iKJyK34WEr8DYwrYTGAXt5RiMGdB6ibY9grMbFwFVNDDvKaQfaCMO6+Agex8A69P26fikL0dQfRmu8COS2jaI44/jdvOW5OvZCUQt2LxFBg+7xjdpx5kzIITjP7uhMpGcNlj4PN9fLj0FFm3qPjgdWxevlNdxxrwCgzID7ukEN3+BsxuUnXYgGgJSEaRuCdLId/vYVEoiE5IVcBAwOCydnBplYr7MhcXl+nPAvkmb4zn/p5xdQoGpC8367Wav0woC/kEDKw5mMb6w+mqT286ksEOCQv6omxY0KBZh7mYnl/mWn2hBHXUcF0O7MUmnMeOkfboY2Tq9JQEBJGv11FUT0euXgsjcOp1CBgw6wLI8w8gOyCAQj9JVahlKyjR67Ddro3SK1HCwCAy7vgZFxs3Zb++IRdvb83ZwAdIaNyMxHtac+bhcI6FxLAn+lE2PPI4qx99nM3Rv2R7SAe2NmvLpp8/zPqmP2f7fU05UO9eDuuakOTXgou6B7mg+xln9U04WT+I5CYBFNTXka7EBXXklXoKnPfXER/kR2KAH5k6PyRdYWaAnni9jvMNdCQF6ZDwgly/+pgeaoO9YxfIL9AGYlToZOlATOm7lwzSSPikb/phasAHBmpnVPnAwA/THmtzVB8YqF0bvoXAwASC243x8Bhwj/rLKH9ti/ceA1fAgFNT+5PnkTACpwuVxlAEB62QlmJnxPBFRIa/RURod8KD+xMePISw4GGqhIYMpm1YX9pE9KBNZLdalbYR3QiO6ErbiM60iexMaylRnWkV1Y1Wkb1oGd6b1hF9aR3Wi+DwbsR26E6vvnM4cToPAe9XPAgqBwNPPPs+ITFDiHxsPK0jB/HEM8N9HgMev0pegYGktTDrtsoNgtl3wqFRGgAoHSn0OHzpouTANGrpDCV8oDLDQkYdd3cp83IuYOB0Si7PTNqmUpNVZ/Df3WMlb0w/wFfbzjMy7jRRwzcq4+OOriv4f59/zycbE/h250X6LTquRiwl3dndXVfw9MgtvP7plawEbuO/urnoC8zdmojES3t6OPyYPQYq3lPfmputBrwCA4YU2PAXECO+sn4oIUICAxJmgSFJ67cK8pnBnA3p22DHm9V7Ds25RwmMmovLKv3nFBjoMucgt3dZXqdgQPry/d1X8scx28pAPklHOGLecQUFBPKNmn9cgT7JRuDu35LBYOLiExX0QnxgoO5at81iwXkmnsxnf0daQD2sgQ2QUIHC+jpy/ES9X4MCdp2AgACyAuqRXi+I3ICAy2kMxWsgWfQD/PQ47mtCUqAfR/R+nL7jfk7c25qkmKfh312h40AYPBEmfwPfLYGN62Hvdji4B7bvgg3bYOlK+HY6rg8mUdy3P/l/f5WsR58j4fZQjunu54D+To7cdg97GwbyvYAAvQ5XYz9EIFGyDUgIQaK/npP1AkgIDCBHF0CBCA/qdZzV6zjXQEdKfT3FfvUp9GtMXtM2OHr0g0Ijmp6SDwDUXevy7kg+MFA7o8oHBrxrX9djKx8YqF0bvkXAwHhCYydeAQMxIwiJGVUHZSQhMSMIlvSHsTKXY44mJHpkhVCCK2BAcLUECMhcBAQdOJxOHGLH2SEl2cHwYXHERPUlJmIk0WEfEB06majQKUSGfklE2OeER0wiNHoEoTHDalzCYoYRFv2+VtT+QwmNHUJI7FBCYoYTEjOS4OhRhLcbR1jMaMKjhxIe1Zuu3b7j9BkTZgkxkMwF1XgMPPX7kSqUoGXEUFpGDOTp3/tCCTx/xLwCA6e/gRn1KhoSs5rA8Q81DwHPg0oApTkHrAbPtSCpDZPXwfyHKh5Lshqsf76MoS1G9/pjKYQPW3/VTAQP9V3NlK2JZBss7LuQx+8/3km9Tkt5asI2lh1OJcdo4WRqIb0WHOPeHiuVYdLg3aW07beGP4/f7jUckGwEHyw9yZHEbAzGsoaPDwyUvd2+T9e3BrwCA8mbQGBeZVBA9AL2D4TidM2TrKrLF0+gi8u1MKHKjiPrtr6C2VQ21CYhNY8/T95J/aukGhWY98o3+5my9TxjVsfTYfRm1f8bd17O/3y6iw83aJBv4JIThA7Vfhvu7LKcX4/YzGu1gHwzNiZU8P7xgYGqbn7N1zvtdlwXzlP0wgukNGiINagBZr0OQ/1SjwG95hXgCQYygoKU54AABIECdr0e1+13Kpf+dJ0/J/yCONmyLeaOneCbr2DLeki7ADmpUJANhlwozgVLLjhywS6f88BUAMZcMGVCSSoUXYTEo7BjK64Pv8DYuT/f/+I3LLv3frbccydn7rpdCQmKmKGhVNjQEwycCwggVxegUhWK4KCEFyTU13ExUMIO9OTrG2K+OxL7y+IxkAH2fFySYsk3Xdca8IGB2hlVPjBwXZtptSf7sYGByJ6rCO+6lLB35xPy9kyCX/+Gtq/9l7b/+ZI2r3xBm5c/o/VLn9L6xY9p/dJk2rw6heDX/kvIm9MIfWc2YZ3mE955MZE9VuFup5XNfWCglmBAc2Kz43DZsIvrn8T8OyApxcbw4Sto364P7WJGEhs1iZjIT4mO/ILoqClERX9GVMxEotqNIKrd+zUu0e3eJ7rdcKLbjVAlqt1wItsPI0KVEUS0H0VE+zHEPjaRmA6jiIodRGR0N7p2m8Wp+CIlomiRVIbVgIEnnx1Oy9B+NAsZRLPQfjz5zAgWLd5TbQe8Fb/85JNPanXZXoGBU1MrggEZWdz2nzLCgZcvQLwD9vSCLS/CudmQexSKM7QioQbHPqhEd0AP6/5YBgyI4f3FpjNeCQ8KGPh6xwUMJTaOJBfwx0920XLAGj7emEB6YQlpBWblNRAmhkSp8JmMNDZ+bxmt+6xRqc5e+7RshgL3qKLMZWSx59cH+GrNGQ4nZJFfzltAIIYPDFxuAb6FG1ADXoGBM7MrDwcQ7ZBDI8BWDuYJ5LPkgaWg7F8kqQ3Td8CC5pVDhrgnMBvLuudvPZVGh1EbL/e/qjyA7u0Zp/ptZlEJh5LylcdPUKel/GLMFhbsTybbUEJ8ehECBn7eWxMlFQHC1n3X8Py4bVTXjz37tIQNTVh8gv1nMikylIV8PjBQ9nZ7+2nEiBEVNxVPsrQ0rG+9yYVGjTEG1Mei12OSNIQSKuCv6QlcBgMSJhBYFgwU6/UU1r+TU371yW4bAzICv3QpnDsJxnSw5ZYKERtxYVLiySKgDEZsjgIstjwcAqrl2WQpAqsI3uYBueAqBQhZ6ZCVgWP3Ns69359tzz7B1vvvJV7nR5HOT3kLZOl0pOh0nPfXEx8YQKJ/AJKFoKg0VWFaoI6EIB3nJG2iPgBD0H1k3xsFA8ZDUR4OpYkkb1i+6Vpq4NtvvyUnJ8frQ/jAgA8MeN1YfuAN09PT2b59e43PciuDgYiuywh5exZtXppMy39MpMULo2j+l+F1Vlq8MJpW/5ykYILAg7D3FlyGBbcmGIgdcQ3hA55hB7ULJdCE+8S01hIFWpw2SpwOiu2QlG5l4NBZtGj9T5q3fI2HW3bi4RZdeahFdx5sKaULD7XqxMOt3qRZqzdqVZq3fJsWLTrSvMU7NGv5ljqWHO+hVm/xYKt3aNr8bR5s/g4PNnud5i1eITziVbr3mMKp0xnYRRNBQiCqAQO/emYYwVGDtVCCqME8/tSwHx0YePHFFwkMDOSRRx5h/fr1NfrBqTUY+K4Z5BysoESuTi4jivsHaJkLBCDMvR8WtNTK4jDNAFnevpxBUREMZOUX0Wv+YWQEsSojwr2+PBj4+1d76DznMPEZReSZrMzfn8wT47fS4L1lZY4lcECMigd6xvGbkVt4uVz6QgUFPt9Ln28PMXvzOeKTcik0lA0hcIcT+MBAjZqeb+M6rgGvwED8jIpig9JHN/1dCxUof03Slw+Pho3/p4UX5By6AvlMqRD/34rHE4+BlY+XAQMC+abvOEfz/muu6v1zX884Pt9yjoJiKyfnc+p2AAAgAElEQVTTinhhyh4e6reaCWvPkFpgRoDBl1sTiRmx8XKIkfTjRu8uU4Kivxu9lf98Uj3k6z71AJ/HxXPgTCZ5BYYyQFL6sw8MlG8IV//87rvvUq9ePWJiYli5cqVym1d7CRjIysTRrw/xt99Bvi4Iq84fQ4DmMWAPcoMBnQolyA4IIlPU/P0ClMaAiBBmBASws8EdJPzheZj+DaRfAEM6WMUbwIDLVYLJXESRrRijyqUkbwWlqsnCB0TZWFZINgCjFXKLID8PigUSGMBaCE7ZUFI1F4I9neJty9jzjz+z//Z7yAi6TYkOim6ACA9e8NdzNtCPi34aGBBvAvkuI1BHYpCOsyrsIZCC+veTdH8UjPsSl7FIJXqWdy3fdG01IJlv/Pz86Nmzp1eAwAcGfGDg2lpc3e3doUMH9b7+l7/8hUOHDnl94FsNDIS9u4C2r06h5T8m1BkAqAlMEPjQ5pUpfLTE+zrWeX03PDacPm0rjz06grDwIcQ+2pdJk9eSk+co9cSXeH15+kiaPwsOSb/ngopZCcqFEtxwMKCFDkisvl2u3GXB7LJQ7HSQY7KyatN+Rn84h1EfLGTkB0sZ+cEyRnywlOEfLmL4RwsY+cFixkxcztgJK2tR4hg7fg3jxq1j7Pi1jJ2wmjET4hgzcSWjJ8YxauJqRk9Yy5gJaxk9bgWjRs9nwsRZLFu2ifT0TJwe2ROqEh98/OmhtArvT9RjEwh/ZCR/+PMkVq0+6nFXfxyLd999N5I6rlGjRjUCBLUCAyJMtu557WWqfPXJCGP+SVjeoaKw2TeShSAQlj8Ke3qWEzOsCAbOpuby1y92X9X1WOCAJxg4nlrIpHVn2HE2B6PFztYz2fzfF99ze9eqY5tFwEw0ByTt2ZPDN/HsmK10+eYAX609y4yN51i9P0nFIZtMZQXV3FDA5zFQviH4Pl/vGqg1GJCMAmlbKg8fkBSlRydcgXxz7r0C+STF4YHBsPJX5SBfRTAg+gJDlx7jru5aGI8b6FU2Lw8GXv12H2/PPMjJtEIKzTaWHk7l2Q+206hzxf4skE9ERSWs4OWPyqYvdEM+STU6fWMCpy7mUFBUOeTzgYHatd7mzZur59Btt91GdHS0AgRK4Dg3G/vHEzlx373k6Oth1QUp/QARH3Q2kNSFWkYCk84PAQPZgUEU6jUwIN4Cl25vzMW//B+sWwvZyVCYgcuQhtGchRUb7kxG7rkak5cISVlRBC4DlJRonpAKEpicUGIHq10JZcrbj8NlJ82YRZo9FwuyQxrs3IDlX//hiF9DBQOS/dwZCfSck7SEej+lLyBgQDIWiEjhJfEY0OvI1geQ36Ap534eA98swlXsAwO1a1UV9xKPgSZNmigQ5e/vf1VA4AMDPjBQsRXdmDVnz54lKChI/U42aNAAbwHBrQQGBAhUZ8T/4q1P+MeQWfSfsobxs7fy2eLdTFt1gIVbjrFmzxnW7TvLyp2nWbT1BHM2HGHaqoN8uXwvkxftYtK87YydtZnh327gzbELea7nVKJfmVjl+WQ7bycfGBCOISTf5cJhd+FwCGEXrwEbdqzYsWFViEOD7fJ8FZ4u2XWkiLOeFFkvAMThrEURpiICgqVF0hFaJbW2RylxgBT1nfs57hTiXoLLVYTLVVxNusK9PPPcGNpEDKRF+BBahg/gV08P/9F5DEijl1CChg0bqh+bmgCCWoGBmY3g6ERwVBIraS2AHW97iJtJrvMmsPY5OPg+JC6EnCOQtLqcoGFFMLD9dDq/GLv5qq7H5cFAlsHC2UwDxhK78hYYt+YMzbwYqZTjCCBo8O4y7um+knem7+dsSi65BcYKrsaeQMC97PMY8Pbn17fdD1EDtQIDAvlWP6uFC5S/KHk+FCZoYoSiAeKpJyCQ79sAWBKleQDJcTy/L+cxkJiex6tf763gsXM1MBCfYeDjDQlsic+i2Grn+8Rc/jl1L026Ve1FJH34ri4riC6FfM+M3kqn/+5nyuozCvKt3HuJpIx8jKay4QPufixzHxgo3xi8+ywG21133XX5OSSAQHkQzJ+HfeEsTrRsRlZAI+z6BipmP0+E/Rr6KwFCSVUoYCDXP4icgCCK9AEU6/ww6vWcue8eckeNgNxsbaRf3MgtZlwuG0YgxWUlW2MAWu5j98uKekHRNJZlUYrwAgEHJhyYcGKUpMcikFhk0V525IWkxAjJCZByCcfXszjxcCuVheCSvwYGkvR6zvv7kaLTwIAIE0rGAgkzSAnQcTHAjyx9IDmNm3K2xaOwegeuEgMWlWbZ5zHgXWuqfis3hJL3HfFUCQgIqBIQ+MCADwxU35qu77evvfaaarPSdqW4AcH+/furvJBbBQyEv7ewjJHe8oWR/L/+05Txf/RcOnYxFn+AyWC2cuhsGl8s/Z4XBs64fA03JRiITzDSp/8yotsPIix6BGExN5PHgEvzxRf9QSlicDsll6FZeT/YHSXY7FZl9IvbvvWy4e6iBJt6yNmdDiTc1FXLIvsqOFB6bDE1xe+ixKUVgQQCHuT8sp1Lit2BS/JwK1RhqRYMiMaAgIGw9mMIjh3GM38Yy7IVB6ptlu7OeqvN5cel/DXLw7K6qXZgoDEc+xDUPfA4ungLZO/Tcpq7jQRJiRY/tTR2uVSNWbbLPQaiXu7eTgyPchoD8/deoMWAq7selwcDDqeLEpsDq92JocTOrO+TaD9qsxIjrMwQqWxdw/eW8dxH2zl+KaeCm7GnAeG5fCuCgfj4eHr16kVYWJhybyvffnyfdapepH6knqS+btapVmBgZkM4MAQc8qtbbrIVwd4+ZSHfzNtgze+0fSQ9afYhTWtANAou9+WKHgN7EjL4zaStCrxV1t8813l6DIhoaEKmEYPZpvqyZBdpNXDtVcMR5HhuyHdXtxUKShy/mO015LsaGBBXZl/f0F5qy9dD/fr1K9SNhLrZN6/maFQYOQ3uxuV/m6byL2CgkeYZ4AYDkq4wzz8Io04DAwa9nlM/vx/Tl19AYQHkF0K66ApYcGKjAIdSCxAVDOEByvKXFwl5RZBmLU4BLjCLk0DpqgJsZGIhBzuyn0Lc8l+RTXMrMBkhIwnSU7AvWM7eB1twrEEAFwI0MJCq03NJ70eazk8JDwoYKPYTUKAj1V9HUqC/8ozIvO1BLrb/Pew7qWCDtYZg4OOPP65Ql+Xr+6f82XMwROpB2tlvf/vbcj9k4AMD1x8MHDt2zNd2Sw3/yvro7bffXqF+7rnnngpt173iVgMD/9vvW75ddYDMPEG313+6lFnA54u/V54F3p79unkM3HJgQF4Q1UuiDafTjtPhVJ6A8mDVwg002i7EXYqsVyFzguFrUWRQSviRHMuGq9RLwaWe5/JMl3DAfBMYLWCTDARyPuXpYMVhN+JwVO8xUBsw4G0jupm2u64eA2LEz2sKxz8qK0pW3ltAUqKt/1PF0UgvwcDnm85wZ/eqRwY9jQnPUAKL3cmBi/nsPZ+rXI/PZRnpveCYEiqTWGTP/apaFrGzyPc3sP54CtWFD9zKYGDMmDGKVPfv35/du3dTUFDgNQTx/Lt/7MtSL1I/Uk8C36TebsapdmCgERwcBqIl4DmpPnoUPNOLSspS6fPWoivaIsqr4BxIiEE1YGDFoSTaDvbOoPcEA56Qr9jqYOGBFH45dotX4UXuvi0eQM9M2srehEyv+/LVwIBnVfmWr9RAeY+Bxo0bax4Dc2bi3LWOzL/+ifP6RhBwJza9H/YgP1Q4QX09Vp1OwYJcP38KAutTrAtUngSmgADOPfgA+155HU6fAbMRl60Ik8uEARsm7EoZQN4XpIjxLza+wtDyTqK8B8RFUntFkTcOAQomLORTTL4KHJC3D02vyGg14HQawJQNR/ZhGzqKHfc2VWDgor+uVGtAT7LOj3SdnsLS6zb56xUYyAzQkygZCQIbk9qkGVnPvwhnknCVyBllIOOHGTG7chd+GkueHgPiml1dSIEPDFx/MPDTaIW1+yvFY8AToMqyhBT8WDwGRs/Y5FXFmK0OTiQXsuJAKp+vPcekFWcYuegUA+ceo8f0w3ScekAVWZZ18p1sI9su3pPC3oRc0vIUDvbqfFfb6LqBgZtbY0ALJVCj8PIAdTlxOqyqSGCBGOIWK4jyf4kViqXYwCTFDiYHmO3a9zYr1KaU2FBCh8UOkLA/kwuMLjC4oKh0WW67m/SL14LNKY9WKy6l8Fv3HgNXazw34/fXVWPAbQBISIFkHkjdqIUHHBkLs++6YiBIWrTzCyrGLkuDS1571VCCCatPUe/dpV4Z8p5gIDmvmF4LjvKfaQcUIJCQgg0nM/nDxzu9cmUWg0IyFzzQZxX/3ZpQrcuxp1F8K3kM9OnTh1//+tdqBNzzb/AtV60hIXUjHgNSb1J/N9tUKzAgkE/EQUVgsESU3ZU5pRn/nt4CEiqw6mkoKacErsBA4lXBwIydidxTmibUbbBXNfcEA+L1cySpQIUQFJhtXMotZvDSE0pTxJ1dpKrjuNcHdVxK6JB1LD1wsUKK0arauw8M1K51t2jRQo2CXQYCK1dqbcpiwJVyiryOr3Fa1wiLriE2fQCuxvWUYW0J1NISysi7gIHCwPqYS8GAMSCAiw82I6PrAFKmziZr42YwFOCyF1OUn0Z+dqpKhesym7CVmDBZjRgcJiwueWuwg720OEr1BMQrEjNWTJgwYqYYhyAFqw1HVg4Um5QgoePCKU59NI7T/3qJg21CONogAAEDIjIoqQhTdX5qLqkMi0o1BlL1eoyNGpKiD6SofhMu3dkMw1vdITlThT5YXRqAqF3t+vZy14AAKPHauRoQcG/vAwM+MOBuCzd6/mPXGHhp0sYqq1jexeMOptFr5hGeG739cuaAytIM1mRdTN/1/Hn8DvrMOsr6oxkUiJFai+nmAQMxIwiJGVUHZSQhNU5XqIEBFUGgRu5d2JwOrE6nGsE3mOHgsUyWxp1m6coLLFmZzKKVqSyKS2FRXBKL4i6yJC6RpXEJLIs7W/OyMoGlKxNZEneeRavOsWh1PAvXnGLB2pN8p8op5q8+zby4U8xacoiZC3cyc8F6Nu7cR2ZBnlJBkOSKggmqEh/8KXgM3JCsBG44IIaFAILZd3u4HIvIoD/E/UrLiV6+g4pHiqRGKxOXXDGUYOKaU14b8p5g4FhKIc9/uouf9VrF+DVnlIq5pDj7aEMCzQes8Qo0iNEhx/xi01mvjYlbBQzMmzePiIgIpeZclWHkW181IJA0WVJ/Uo8301Q7MCBaATqY0RA2vqABO0kvKp4Bc+67AvkkVCD+ay1Y2/OPFs+CjN1wlVCCKZvPUt9LyOcJBiTN6KClJ/j31/vYk5iLyWJn25ls/vez3TTuXDbDiBsElJ9LX/557zg+Xn+a/CrEBsu3dx8Y8LzJ3i2Xz0pQfi9XsYmCAd04U/8eLLrbsOv9cdULUmCgJEiHWa95DOTp9RQFBGEpBQOGgACSH26Ja9JUskdN4UDHgWR9MgvOpEKOEYqMYDKB2QQlZmWAY5PhBBmhN5GvzH+T5hVjMYNDUhoWUUyBKqJVhMEAWRZIseA4n0fCx/9lwRtvkvzRJBxffsnpX/2Cww0DSPLTISkLc3R6FUYgHgO5Op1KZSjigxl6PcUNGpKhD6K44T2cu6sZxX2HQKakRLQgoZe+6dprwJeV4NoM/ZoYXbLt/F1J137TfEdQNdC+ffsfdVaCN6ZUrpPwYdwZHh+8qc5gwNXacLdphxWEqEmz84EBJT4oLnVOFcOv4vjFFa80tl9G8FNzHIycsJioR94iqkNXItv3Ibz9AMI7SOlHeIc+hHfoRWSHXkTVprTvRVS7fkS2G6gd75GehD3anbDHuhL6WBdCftGFiMe7E/NkLyJ/+R4xj7/J4799g77DJnM4Pgm5RiWNUE26wp8CGJCGL6EEtZlqpTFwGQqUGhWVfRZtgbMzNFGIMhcmwZ6ZWmaCMvtVBAPLDl5S7vwy4lf+Zb/8Z08wcCS5gOc+2UVgx6U8NXEbG09lKs2BE6mFvPz1Php4YaDc0XW5yohw8HwWpuKqjURPg+JWAQNi1C5fvtwXNuDlffW8x+5lqT+px5tpuiYwoPqiQL6GMEcgX+AVKDDND5a1A1NKxT/XaYOTn5WDfBU1Br7cchbR7Sjfbyv77AkGTqUX8bcv9yhvgxErT5FeYCbXaGHK1kSCh6zzSphUwEDT3quYtPY0eT4wUPEe1uGaESNGVHk0p7mYjKG9uHR/C6j3M+y6QJWOUAQIS+pLjL6uVJBQj8HfDQb8KAwM4kKr1rB8E5xMwzZ1ERv++g4r//I6p4ZNgnU74Gg8JFySHMuQlQtFRSrMzVVq/Ftd+VpqwgKBAHmad4wzFxx5YCqCjEKcszeS0m8ym1/uxYZOfTj31VeQnIht52Y2RLbhUMMglapQoIAbDIjWgIACKblBmvigiBBm6YLI87uDxKZt4eNPNcFEs3gw+Ka6qAHxGBBA6+3k8xi4NpDgAwPetrSrb5eens727duvvmG5LW4VjYHKwMCLH+64bkCgPDC4KcUHK4YSjCM0dgLB7cbQtt0I2sYOJzR2FKGxo6+xyDFGEhI7kuB2MpfjjSE0ehSRsSMIj+zDP/75CZu3JAq4VjqDLgkdUNF2moEtRrY7Rs9ghYQUC4NHLSCifUfCY3sSGjuQ0JihhMYM0+axQzw+y7qalvcJjR5JWJR2nSExwwmJHUJwu4G0ba+VFlF9aB7Rg2ah79I87A1CYl+lS58pnEjIUtfqAwPlfj1q+PEHAQPTRVvgeTBnVbwaewkcnQTT610xPNxGSTnxwfTcQiScoEX/NVcVLXtQRve3JirvgD3nc/n9RzuVEXJvzzj6LjrGmQwDImQ2Z88lwoaur9ZAadxlOc9M2obERRcYKk9n5jYQPee3AhiQWPmoqCgfFLgGKOC+51KPUp8/5PTAAw/QrVs3Jk+ezJo1a0hISMCpsrJUPOu1g4EqQJ9oC5z4tBLIJw+MfIj7dbm+XBEMrDuWQvuRGxHtjspggOc6TzBwMq2IF77YowDAY2O2sPp4OhKXGJ9u4K0ZB2nc5eqw4bYuy/nz5J3sOpPhdViQz2OgYvu61jUCBrImDOXCz9vgDBIwUF+BgXy9juJ6Ogz+Ogr1OsRjQAMD9VRWgvygIE63bknhlKlQYICCQlyJF8lZvIwd/Yay/t+d2Py3N3F+PAOmLoCFa2Dzbjh6HM4nQNpFSEuCsxdUrD+nLsCBEzjXbCLzi2843PN9trzUnZ0v9mXDq3058808SEqC3IuQeRrbxiXs/v2v2N84SOkL5It+gPIY0CtQkKbTdAckleEFAQQ6PUb97RQF3cv5FlEweyYY81WowrXWoW//2tWADwz4wEDtWs7Ns9etDAbavDqF0I5zrisckOwIrV/86OYUH6wcDIwnuN1oDzAwUhn1YtjXvLihQu3AgJai8Ir4n8XlxOJyKR2BxBQzQ0bMIzL2LSJiuhIe3Zfw6AGERQ8kNHoAITEDCYkeSkjUSEKiRte8RI4hLGIc4RETCI8YR1ikHGMEwdHDCY55X82lPqIfG0dUhxFExPYnPLoLXbrP5ER8ISaLlopYAgl+yqEE1/LT5RUYOP0NzChvyFdhRMjo4pJIyBZ3otJ4ZfcFOq1waSXMbVrRkJCQhPXPVzBYz6Xn0XP+Ie7tubJaJfK7u6/k1W/38+mmcwxdfpKI9zcoA6Rep6VEDd9A/8Un+HLbeUbGneaxMZurBA3i7txu5EalLZCRV1ThetxGYWXzWwEMiIH5zjvv1Ojvquxv9a0rVvUo9flDTgIfRFRL0nFJGjhJ/6bX62natCnNmjUrc+ofBAyIgOjqp6E4rcy51AdJV3p6KkyvX7E/l0tXmJlXxKcb4mk7aK3y5PEEAeWXBeZJ2E96YQkHL+Xzv5/vVmCgSbeVdJ13hJNphcprYMH+ZGJGbKwWNDTqvJwnxm9hwd6L5BV6D/l8YKDi7b7mNVYLjjlfEv+zVhTpbsPp1whnQCAmfx35fjqKAnQUlIIBo38QVp0GBvKC6nEytA1sXKuN+pvywZADpkK4eBG27MT89Vx2/6cLO196lw3/fpuVL77BopdfZ8Grb7Dg9bdY+HYnVvbsy4LXOjL3f/7G9N88z7w//pVNr3fm9JBJZEyeDbvOwJkMBR6wG8CVC8UpWHesZ2WoeAzUI12nU1kICnR6MnR6kvSl6Qv9dCRKRgJJuagPoiSgCebGTbkQ+RhsXg8lhUrrwCF5l33Tda8BHxjwgYHr3ujq+IS3Mhho/pfhKn1gy7+PR4MEc+seEvRaQ1in+bR9bSqt/vXhzZ2u8GYEAyIkKKkkxWNAywkgLdiFw2nH5rBhdzqxiD5cejGDh00jOPTvBIe8Stvgt2kb3JE2wZ1oHdKRVlKCu9AyuCctgvvUuLRs25fWbfrRtnV/2rbuR5s2vWnVtgctg3vQQpVePNiyOw+36kGL1t1p1bozrVu/wXvvTuNMvAGrVdMVcrl8YKC2v0FegYGkNeWEAquAAtODYPkjkLa13OiiSxMzS5gB8x+qaESIx4AAhV1dKhiskhHg2MVs/jV1DzLyV96IcH+Wkci7e6xEPAd+3nsVYhC4vxNjX4yNh/qtVt/f2W1FpS7IEnrQauAaRq88wcXMfK9DCNxGcmVgwGaz0aZNGzXqu3bt2trepjrbz5v77f57fPPqQ0gqu991dqM8DvT0008rka3yKY/uvPNO5UHg3tQrMHBmNsxoUHkfLBPaU9onFwVD+rZKIJ8dUjfBvCr6c9wTmI35ZfrzhYx8Bi46QtM+q6qFfLd3Xc6L/93HJ5vO8f6KU7QbuUltL/0zdOh6ei88xpSt5xm9Kp4nxledAlFlFhm2gc82nCEtp7DMtVytbfvAgLtV1eHcbsOxfSUXWkZQ4AkG6unI0esoCNSR5695DHiCgdx69TkS0obcebM1/QC7EYolZj8XnAVaOIA5GwxZWorBk0dhxzascXEULVpEzrx5JM2by+6pX3F03hxy16yGfXshMR7SL0JWGmRlaiEINjuiW2SnWDtu1iUcCxaT+IsnORVUT4UMFOr0FOj8LoOBS/46lcYwUa8jM0h0EgIw6RthbvwgyY89DccPoECDw4nDomVHqMNa9R3KixrwgQEfGPCimdzUm/wYwIAbEKj5/42k9Ysf0+alybR55Qva/ucrgl//mpA3pxPy9ixCO84l7N3vCHtvAWGd5hH6zmxC3ppB8BvfEvzaf2n7ny9p88rntH7pU+UZUObYpSBC1t1CoQQ31mOgDBhQKQlEhFAeWHZcTisup8zBUGRj2TJJ0/UV/ftNp1+/OfTtN48+qsyhd/9Z9O4/h979vqN3v4W1KIvo03cRffsupG/f7+jTV449l97959K733x691tEzz5L6NtvJb17LaVfn6UMGbiYuTMPkZFsV1kV1WX7PAZq/YPmjaHoKEqCVU9VjCP2NCQkJnn1s1pOc0lnJiEDNhMUZ2iCZpv+rgmcee5zeVnSHz4A2QcqfXk3mkzsS8hUKce8jVN2QwFv5xKHLGCh65yDnEnN9TqtmaeBUZWhePToUcaNG8eTTz6JqHX/4x//YPr06WRmZtb6vtV2R2/ut+ff5FuuGg5Udb9re28q22/fvn0MGDBAiRV5goH777+/DBSQfb0CA8kbQbKFXO57VUG+QFgaA8lrKkI+m1HLNuKZyrD88ba8jNlY1hgXyHcyKYfXv92HGP9V9U0BAHd1vwL5GntAPvEAuqdHnBIGFQhYNeRbwsP9VjNk6TES0/NqDPl8YKCy1niN6xx2XMd3k9fhaUoCm2LRN1CaAsYAHYUSSiBzvYzIixCheAwEYtT5kVu/HieCW2MTsc/sbLAUgbNICQiWUIiZQqwUAvLcEWhQKkiYZ4BcA+QUQaFBif9hEzdDeS4Vga1A2wcTuDTRQpfLRomrBIM8t2w5kH0Jx9wFnA2JJT5QPAYECmglS2Um0ClBwgsBOhJFYyBQy1iQr2+I+e5I7C93gfwMsOfjclpUGFBVoUDXWLu+3aupAR8Y8IGBaprHLfHVrQwG9pxM4rmeUy+P4ldlxNf1+p6frqjRvb2B4oOiMXBjwYCnxgACBlQ6H5tK+YO4e6vixFrixGx0YikGiwj+lgr/FhdDsRlMZjCWXFuRY5illECxFAsqREAd1wxF8gw3axmERCMoN8NJQY5TxT44Slw4rOIt4PMYqFHr99jYG0PRIWmeCs5qqQnLq4+XMQj8YV5TWPkrWPdHLb3ZgpYgngRltvMwRqYHal4GKRsUnKrKEBUBwDVHkokevtHrFIZVGR6VrRfj4/8+38XRizmVwomqrstzvTeGosAAgQICBwQSCCwYO3YsAg+ux+TN/fb8m27mZTE0RWX+RFIOY+JOEjN8A3/8eAdzdp/nYkY+hQZTlfdS9i00GMnIKWR/fAZfrzvLqO+OMXvzOY6fzyanwECRwVStQenN/a7NPXXDgJCQEEJDQ5HzxMTEqDRwAgcqgwJyHq/AQFEyrP9z2Qwi5fumhA+sfAJSNmqePgL57MWaaKikJt36spaJpPx+7s9z7oGMXZiLK9a/QL6DiVn8/qPtXosRVtZfq1snkE/Awtsz9nMqOadWkM8HBmrTcq+yj1D8pHM4//I2ObqfqTj8Yr8A5SlQFKjD7KejRKCATodNF4DNAwycad6M7L794eRJMGSDLRcnBRSqf4IGSrBJLiVx1TeV2vtFgEElJ5DshFq8pDhJ2tFcJpVKkWQpMINVXmgsIC83AhccuVCSDIkHsI0fyZY77+REPREf1KsUhaIjIGkK80vTFEq2goR6Ok7pxOMhAEPQfWTfGwUDxkNRHg6VWllO7JtuRA34wIAPDNyIdleX57yVwYDUg8ls5avl+3h7/GIee+vjHwwS/KnPN3z03Q4OStaaGk43GAzcPOKDSoVQ4gYs4pdvQw3DSzo5lfPX5RYfwOXmBrKJpAUWniDFCW333NkAACAASURBVDaXC8nOW5viwIETK04sOCjBrh7wFmw4VMYBuTSrHRwOcKoHemn0g/J0sCKyiT/1dIU1bPtlNvfGUHRI5ctkN8PFpbDy8eqNfbeBUN1cQge+aw7HJpbmT9dOUZ0hml9oYMqms7QdvNYrEbPqjAfP7xp1XsazH2xjy8m0WhkR7muujaEo4QUiLifhBjUNOcjLy+PNN9/UKs7L/7253+6/52adi1GfmlPI1lNpDFt6nPYjNyFgJ6DjUqUdIXoUz3+yg682n+XIhWxyCw2XAYHsm5tv4EhiFgu2n2fU/GN0+XI/HT/fxzuf76Xj53vp8tV+xi08zvLvL3L6Ug4FVSjZ1+Z+V3WbKoMB+/dfSfsjegJuKCB5kCubvAID8htflAjbXwfJHCLaHpX2Uz+Y+zNY8UsN8q1+Bha2qUQ01APyCVBYGq3piDjtmKsQeBTIt+Vkqrpv9d+9unigZ1/1ZlnCiP706Q4Onc+uFuxU1759YKCyFnaN61wuyEjF+VIvsv2bUejXhCK/QAqDNOFBqwICOmTu0PmprAXKY6BePc4+8CBHn/8zrlmz4dhBMGaBowAnRgyYycdCsVIaKn0/kHcFUSaWYgWXBWzyviKyNyqCUpSJ5Esz2AxgKABTMWTnQIkBTJk4z+whbeokjD27cCoslGMNgrjoL2kKtRSFBp2WRSFHpyPFT8fZIB1n/XTk+AVSUP9+ku6PgnFf4jIWYaFEvadcYw36dq9lDfjAgA8M1LLp3DS73epgoHxFnkvNY97Go8rV/5UR83iy42dewYK2fx9Nh9c/5LfdvuTl4XMZ+vV6Zq09xL5TKQo+lD9PTT7fQDAwntDYiVeyEsSMICRmVB2UkYTEjCA4RjIdyFyOOZqQ6JHVZiWoHAyUgENIgAvEJpSHrF1FGijjXOxEVWTgXrEDp4rKk8i8mv2zKSjgogQnxTgwYVfFjA2rwgXy6FY8QKId5KEuc4cNp60Il0PcB+WB6/CJD9ak9Xts642heBkMqP0kn2UuHP8YFrTStAEqNSw8DIYy3+s1V+Zd70LhuQqxy9W9rMt3l7LyGbLkmHITDuy4pEp3ZG8MCNmmwbvLeGz0ZubsSsRgrDjCebXr8fz+Wg1F8RoQ7wFvQw5Onz6tYs//9a9/edzR6he9ud+ef9PNtCwGZXJ2ISsPJdH7u8N0GLWRO7quqCAkGfDOEsTl/P5ecfzho+0qs4Uo0mflFZFXaGDH8TTen3uUTl9oMODtz/ZSvggk6PzlPsYvOsGxxOxK1eyv9X4LDBg4cCBuzwBZ9oQBnndSBAjvu+8+qoICsq1XYMAN+RwlkLRKExacUYl4YJk+W1VfLl0/rTQU6PAokFhv9UMtnmDmy0CmfDsyGI1M23GOsKHr1L3ytr9ebbtG7y3jqYlbWXM0+Zognw8MeLa+ulh2YXUVq3h+Z+fhZDdoRYF/E4r0ARiDdEqAsDowcL5lK5xffcuFgSPY+J+O5M36DnLylQChy1WMCQt5WMlWcwuFThPFjmIsThlsEF8CGX6QpinPLwkbKMJJEVaMlGBU7x1qUMRqwWU2krVvN99P/pDjQwfjGDyShMgOnKhfj0t+ZcFAkU5HthsM+OtIrq8jWx9AfoOmnPt5DHyzCFexDwzURQu6lmP4wIAPDFxL+7kZ9r2VwcA7Uw+wJyHXq2o0mq1k5Bk4l5rLkXPp7Dp+ie1HLxKflEOhuJJ7OWUUlPDd7mSk3rydfGDALT4o7n3KuneCU4blrbgcojPg0DwDxJHAigrNs1o0xwLRKCixlRYHlDihRJ63tSiixWN1gsxlf/H4k1LsLk4w2sAk57Rq57fZnDglfzbSSCw+MOBtq69kO28MxbJgoPQg0m5k5HF3N5h9dzUjjx5GhYierfsfyNhZLm75yoWVNyDKf5YR32OXsnlrxn6V21yMwKsZC1V9L+Jkkrrwo3XxNRYnK39d8vlaDcUrtYDSH/Am5EAMxkaNGvHb3/7Wc/cql2t9vys9onT4PDg3B/YPgpOToejCZcOw0l3KraysHsuvM5lMXMoqYP6eC7w5bR+R769XQEDuX1X3Vta7AYGkvxNjccCiI8zekciHy07x3pf7K8CA8nBAPov3gIQXZOZWzFBRm/tdExjgrqrk5GT++Mc/VgsFZNsagQF1cJeWbvDUFFgUUr2GSKWgQA8SWrTtdSiIrwD5qgMDco/F60OEPlsMWENQx+rvZXX32f2deB9ISsRvtyUg3kXl21FNPvvAgLv11c1cvPqsrhLIycQ5bDI5d4WSG3AnhXo/zPX8KPbXPAVsuso9BhJatYaZ8+HoGSzTvmPD613Z2mUgWbOXwokzOBLPaZo2TokjkGIsjScQHYFSLQEJGRCNgWIDmEVjIE8TGLQXKcDgOJnA0blLmTdqAhPffpeVo0bB9t04txwg6fHfcqx+QwUGUnV6BQNEC8ETDCT468ho7E+WPpCcxk052+JRWL0DV4kBi3pP8WUkqJvWVPOj+MCADwzUvNXcXHvcymAgqrfW/jpOPcCkFfGsOJDK+Uz5na7bqcBkZfHeFDp/c+hy1oNbEwzEjiA0dnQdlNqlK1Qqg/K8UqM8YnDbcTodKkSgwOBg5aoDDB02k8FDFzBo6FIGDV3OoKHLGDRsMYOGLWTQ+/MZNHxO7cr7cxk0bB6Dhskx5jJw+GwGjJhJ/xEz6D9S5rPpO2w2vQbNpPegGQwePovR42axcPEWUjPylEeg5kTg0xiobfe6ZkNRAE3Gbi1uuaqRR7eL8bl5WjhCNRfrzcu7jOzviE/nT5/urHWcssQhP9hnNQMWHeVsWt41jS66r7k2hmI1VVHmq6pCDiT8QFzMg4KC+NWvfkVJSfVE9Zrvt/uqbMWQOF9zHZ/mr7mjS3iIiEgeHgMlOe4tq527666quajJz96VyD++3K1CSBp3XlbBQ8BtGFY1dwOCn/eK47nx23j784oeApVBAVknngMDZhxm3+mMCh4l3t5v8QJwewaId0B1ngHVVtZVvqw5GCg9oEA+wyXY2w/m3Ocd5JteDyS8IHVzlZDvamBAIN/plFy6zDmovDukT1Z1D6+2XiBR28HrGLfqJElZBdcEBaQt+sDAVRpbDb++DAay03F+NofMB2LICrqLAr0ftvoBlPjrsFcSSlCs8yOvXhCn27aGBfOhoACy8nFu3M3FEZ+x64XOnPv3ACx9PoVPF8KcVbB9F5w9BbnnwZgERRchLwlyJGtBFlxKhrNnYP8+XCtWYf5sJnlDv+DAX/uw9oUeHPhgOrnfH4aCIsgrxLZuFxtbRXG4fuPLYCBLpS3UKZ0BWZZQgkR/HVmN/MnR1yPztge52P73sO8klBix+sBADVtM3W7uAwM+MFC3Ler6H+3HAAbcgMA979B/A38evxPxKBi+8CRTNySy8kAaBxLzqi2rDqbxzebzjFlymm7TDvPPj77nqfe3XIYB7uPL3AcGYkcSEjuS4HYyF9gwhtDoUdWGEjhdThyXIwZcWJ1OrE4XJZKuMLOEwcOn0yr4r7Rs+zLN27xB8zbv0KzNOzzc9i1VmrV5l+atu9K8VfdalJ40b9mb5i37qnmzVj14uHUXHmrTmYfadubBtp1pEdaT1uG9kPO0DH6bViEv8/rbH3PwaJrSChLPBYkWdCGZFCxaRgUXGEwwY+4ennx2OG0iBhLWfgzBscN45g9jWbbiwPXv1TfpGW81Q9FtQAocWHk4SbmTi9u4GAY1KXd2W67U0Q9fEDfxqpXn3efzZu6toXitTcEz5MDPz++yKJ3kum/Xrh2iPVDVdM3322sQFAPn5tcaBOXkG5j7/XkFf0R9XkI+rmYcVve9KN0/0GMV/zN2G29O3nPZW6DnNwf5ck0CC3ZcYvX+VJZ+n0y/aYcufy9wQHQHPl1xiuy8sl4D1d3v6wUDPO9zrcGA+yAi4pK9Hzb9reoMIgKBFoXCmWmaIKF730rmVwMD0qekH+9JyORvU76vNh1pdfdWwM/PesXRY95hTiXn1kl/9oGBSm7oNazSwIAVsjJwLlhHevDjZDS8l3y9P456QUp0UMCAhBNc0RjwR4GBoCCOBbeicMFsKCkCowGSUiEhFfYk4PxqOZdeGciR/3mbA//vLXb88002vfkW67p1YsPALmx+vyc7Rgxgx6DB7OoziB1de7Op43usef0t1rz0Bpv/9ia7/9Edpm2BTQkgP5/FDk2IMDsb+7Z97H/qOQ41aEySXk+yTgQItewJIkAoy8l+Oi4F6EgP0pMf2JjUJs3Iev5FOJOEq0QCHcSz0ecxcA1N6Jp29YEBHxi4pgZ0E+z8YwQDngb8D7X8w4OB6Vt57NHhhIUPIebRfkycvI6cfHG/F798iWCTeHezEtKTmDabC06fK6L3gIVEd+hDePRgwmNHEtZuFCHtRtI2drjSBAiLGUNYzNhrKLL/aI9SerzosYRFCRgYTnhkH/7xz0/ZtOU8ZtEWlMuW9PIOByUOEfqTGEAXZoECLu25eD61mMEj5xHZ4W0i23cjol0/wtoNIqzdEMLaDSUs9n11zoioiURGfliL8hGREZ8QGTGZiMhPCI/6iLCoSYRFT7xcQqLGERI5itCo4cQ8MoLw6J506f4dZxItFNvAYtf+DoUH3KkWPcDAE78dSqvIfoR2GEVw7GB+89wolq3YdxN085vjEiZPnsw777xT7QhbpaEElV5+qWv52Vmwty+c+ASKzte5a7k3RvqN2EbqUerzek1dunRRmQ0809gJHBChOnE/r2yqNRiobejI+j8phXqV/aSSC6rsPolYYI95h2jWbzUN3ltWbc776gxGz+8avruU2MHreemj3WWM/kEzj7D5aAbHL+Wz7lAa8cmFLNmVxDvldAe6frWf1Kyy6ffKgwE3DJBMAj+kZ0Al1ahWXTMYcB/YLTK6/FGP8AIRI7wfDgzRshO4t61m7g0YcMOBdcdSeGLcZqU3UBPAJ9ve3mUZL07dw75zWXUCBeSafGCgmhtbi6/EKLbLO1JBLs6te0l95FkymzxAgT5QgYFiDyhQFgzoyAsK4mhYa0zrFmPNvagJD4r7v2QPkGLOB3MBxJ+BHXtxzV2G+YOvSB0+jvj3h3Fw7DD2TRjF96PGcGTURM6P/pDkDz8nY9YsDNs3QVICmAo0DwGzHZfVjilbxA0l7VIBlj17mR8azqEGDUnW6xQcSPcAAxmlYCAtSKeyFhTVb8KlO5theKu7jK6AxYzVJW9YvulG1YAPDPjAwI1qe3V1Xh8YqF0b/sHBwLTpm3j0sWGEKjDQnwmfrSe7wK5gACqPrqEUDIgEn6j1Q8KFQvoMmEFI5H8IjuhEy5DOtAztSXD0QEJihhIeM4rwiLFEhI+vZRlHhOzvLuHjPI4zlpiYsYRHDKZ1my688LfJrNuYqFICGsxgkFTzkrkHhxLosbgcWFwuJdJTVALnkqwMGbmA8HZvEh7bhbCYPoREDyI4ehjB0SMIjhpFaORYwtW1TyAivA5L2EQiwiYSGjKGNm2GERwyhMioIURF96Fr90WcOGVSgMNSqpEooRAup62sx8C83fzqd4NoEd2Tto8No3WH/jz5/HCWxO2tq756yx9n9+7dREVFVQsGKjPefOsqehlIPUp9Xo+pZ8+eNGjQ4LK3wJ133qm0Bho2bEjTpk2rvISagwGBPdcqNnkX7O6iQaJyr8eVtaNTKTkqVrwuxCXdcKChxJ8P2cArH39fFgzM0sDAxiPpTFxyin1ncth+IpNOn+8rs927U/aRUs5F3RMMWK3WGwIDPG/0zJkzESHKyurUva5GkM9SoHl9SIjBsQ+0lKWlwoKe561q2Vsw4L62m2nep08fRkmMuW+qkxrQwIANjIU4D5/i0m+eJ/3u5uTp6+EKqoepFAxIusLyYKAwKIhTbVtimjtN0zSx5eMoyaDImUUeBeRjQuQHEX0BkxGyiyCtAFILICMPxMjPzoCMXMgrhhwj5BdAcR7YRRCrSBMfVOkL5Y3IhstuArsB0i5iX7yUo7/5HUfrN1BgQBMgvOIxkCZgQMIIgnRc1PtR3PAezt3VjOK+QyAzFywW7KLf5JtuWA34wEDtjCr3KO78XUk37N75TqzVwI8VDEjYQPnpuTHbKw0L6DH9cPlN+XJ9YqXbutvudQMDIRFDiHpsAOM/20BWgSjri1SeJM01ybi7cm0X93zR9DsZn0bfgV/x+K/f5rEn3iP2sS5EPtKdsHY9CI7qRkR0byIj+xAZ0bd2RfaNlGNUcpzI3oRHdKFtyBuEhL3K3/41iuWrT5Avz0/xlHOoR6CwfFVsTocKI5BHo4j9JWc4GTF2IRGxrxAW+xahMZ0JjulBcHRfgqMHEBw1iNDIAURE9qvdtUfItfciMrIHkZE9S+tBjtX/comNGUT79gOIiu5KROQ7RMW+QefuUzl8IhNJZSjpEmUwU3nplaZLUCGzEkowbzeP/34gzWPKgoHFcT6PAc/eFRERwfLly6s1KG6ml/ab8Vqk/qQer8ckRqgIDrZq1Yq//vWvTJw4kTVr1lTpJeB5TTUCA+6R47pKT7mgBRz/SBO8K72oyu5l3JEkHuiz6ppCB9xAwD2v32kp4QPW8uKHu8oY/INmHWHT0QzWHEhl5Pzj7D6dzc6TWSpjgVt3QLwHen59kNTs6j0GPOv5RiyfPHmS5s2b+/pxFWkSK2trVa174oknEF0P31Q3NSCj5TIAQUkxrrPnKXy9E6ca3oMhoBFWvZ8WQuCnUyEFFqU14IdF54dRBP78/bn0wIMUdOsDpxLAmIvLnoMBAQOFFGPGLka90wJWtypy6VzcI00iOCifJbeyU2VccrpMGCmgmHxcGEBAQHEJmKUUgKMILDlwKQH7hE85fn8rEv3rkarTccFfR4pe0xeQUIJUvRZGIPOievXI87uDxKZt4eNPIT9PO2bdVKPvKLWsAR8Y8IGBWjadm2a3nxIYmLg8vlJjf86OSxXux80DBsKHEvXoIMZ/tomsAolwd+f0k1x6mue0GKcSYZBf4GDbzvPMnLuLWfP3M2v+EeYsPM20OSf478zDzF5wmPmL9zF/8Z5alu+Zv3g38xfLfG/pseR42jG/W7qL75ZtZe7itcRt2sqF9BSVU9fozMXkzFakXMCATHK9DrluCTGwK90ddu9PZd7ig8xdfITZi08we1E8sxadY+ai82o+Z9EJ5i3eX/trX7KL+Ut2MH/JzrJ/w6IDzF90gLkL9jB34S7mLtzGrO/WMnPBcrbu3Ue2oQhBMpKosFQ3sTSHokOBAqUxMO97nvjdEFpE96HtoyNp3X4IT/7PWJas9GkMePauefPmKaM2JyfHZ1TUwqiQehMoIPV4s0/egQG7lkpyy7811flKFel1IKKS8x+GVU/B+v+FNb+DhW1hejXp76YFwYpfQspGRfTKG2ZGo0mlF2zSdUWdggFRvW/ZZzV/nbijLBiYeYQNh9NZtS+FEfOOKSiw7XhmBTAwZPYR0nNubjAgbe/xxx9n9uzZvn5ci37sboubNm1S4Tg3e1++la5PwIBVRs2tJbhSUjD27seZux/EEHg7Vl2AAgIlfjpMeh1uMCD6AqL6L2Ag9b6mpP75X7BwBcSfgqJMlW3AShEmiii0FWG0GDDbS9TQjLzRKNd9GTQoseMy2bEUOyi2OVWwpwkb+ZgxqMEck5bRwFiseRJIxgJrPuQmwfLvsL/WicP1mnBJH6TAwPkAHUl+GhjILw0jSArQtAaK/IIoCrqX8y2iYPZMMOZrsOJWulk/wmv1gQEfGLjVm/VPCQxsOZlVKRg4k2aocBtvQjCwWQRyr4xYu0euS+duOCDQWlz3jVYotmup+UySgk+WxQhXzmuaW7/myFZ3y9qxnVhcxRS78rGQi50sLCRjJQWHq0BlIpARd5foDji0v0fggAj7FUuaQCeYJZWgaA+4wOQCo5TS1ILXdv0uZeCLkS9ReJf/fpcWiiFeAZLKUAI2tHzEMjog+YdzMTuzsIr7oLwBqCEJh4ID8neIR+HMuXt44rfDaBk1gJAOY2gTO5ynnpvA0hWHKjSun/oKcZ399a9/TXx8vM+oqIFRIfUl9Sb1dytMXoGBoiRNcd6dbaA8GBBF+jXPQuJ3YEzRXqrtFk2MzpwFqZtg2ysws7GWraD8/t9K3vumkH2gQlvLzjfw+rR9tc424fYQKD+XsISmPeL407jtvDX5SlYCSUcongLD5x2j+9SDjFlwgtHfnVDZCC57DHy+jw+XniKrBuKDN6otxMXF0aJFCy5dulShbt2Gr29eMQzIs05+8YtfMHXq1Bt1C3+U51VgwCZ5j62QnY7jww9JfKgthYF3YPELVDBAUhYa9ZrXgHgRGHV+SvW/yN+PtKYP4Ojdj0uDhpE4dDTs2K1lKDBL+KaFAmxk4UTDBVrKY+W8X/puIKBAkmNJKmQ18mG3YHcVY8WA2VWAVUCAzQzFRsjLxpFwghNffczhPp0p6dyZgl8+wQX/AERb4FyAjov+OgQKSBFIcDFAR47oDugDMDduyoXIx2DzeigpBLsdh3gq+KYbVgM+MOADAzes8dXRiX8KYCA9X/1CYzDbK4ABCS9wT8YSbTBbPt9EYGCY5jEweTPZEqJ22ZpFLFityFNJjOxSY1sT+kO5vytXfbsGCUSHwOYSo1gze2s9l2OUGtPyDHKXErsDi8OOyAva0Di5nRwcZOKUR6nTiEu54Jder700+1Sp54OERFidGsCQRGhy2zyLaO1a1dFrc/1yTRaPYtPqQv6O0r/BKuEOsuyyY7YbKXGIp0ARFnKwkafOXhUYmDVnr8pK0CpyEKHtxxMcM4rf/OEjli0/6m5fvrlHDYwZM0bFrffv31/FyhcUXHvaL88X7h/LstSLaAlIPUmcv9TbrTJ5BQaS1sKs2yo36mffCYdGgQCAKuPNpQMbtXSGEj5QAQyIt4Gf0h0o3yYkfd0zk7apDBPljXvPz3f3WMkb0w/w1bbzjIw7TdTwjcrD4I6uK/h/n3/PJxsT+HbnRfotOk6bQWuVgOHdXVfw9MgtvP7plawEbuO/urnoC8zdmkheobGMse2pMXAz3f/333+fRx55hMOHD5e53vJ17ftcFhBcvHiR5557jk6dOt1Mt/NHcS0KDIgbot0Ghdk45szifOtIcvxvw+JXD6tOjzFAR6G/DhEiLNH7UaT3U4a3wd+PpOYPw8IFOHft4vyIsSx94WWOvj8B9h+HQhPWrExwWHG4StWI5f3L471MBmksVhc2GZkpkJEaCS8wg9mklSIDHDuL4+ApTs+czzedOrKodxc4tg/bjs1837I55wKugIELAVfAwCV/DQwU+esp1PtjbvwgyY89DccPaDoFDicOGd2QSvBNN6QGfGDABwZuSMOrw5P+FMDAigNpl2vs7x/uLgMHhn534vJ34lHgnm4CMLCZRx8bTki4gIHBjJ+85QoY8Bw2FzhQCgacdhdOh6TTEwPXjsVpUTltzQ4TJY5iJftXCrUv27e1+uwOYXDPS2Pv5d1dFTWo7sThLMHqKMLuKlCxdSLYVwZmuK9dALcI+uFQY/kOrNhVLJ8JO0bsGFRxqEwMEk5xZeC+Zsuyr/gDqKAA7Vrd1+wqDW8QRwD1YLditZXgcEkRXYcSkBcBOaGQF4cNHJK2UPMYmD1nL79W6QoHE95uIiHRY3jm9z4w4O5Qlc1lBLxXr16EhYURGBh4WdzOU/n+p74s9SL1I/Uk9XUrTV6BgdPfwIx6FQ36WU3g+Ieah4DnHy0dzpwD1nJuXvLbkrwO5j9U8VjiNbD++QqG6/pjKYQPW3/VTAQP9V3NlK2JZBss7LuQx+8/3qkU7Z+asI1lh1PJMVo4mVpIrwXHuLfHSgUNGry7lLb91vDn8du9hgOSjeCDpSc5kpitUut5GtM3KxiQWyMZCvR6PSJSuX37dpXC0vPafcsaFCgsLGTfvn0MGTKEJk2aMHjwYM+W7VuuwxqwyzuRuCQaM3GsW8n50FgydY2x+TfE5v//2zsP8KqKNO6fdEJH2dXFSheEJKiIu/ut6+qq665+3zZX3eaua++9UBRpIgqKors2UEHRtVAEbCBI0UVRmnSQkkBCSO+5uff+v+d/bt4wGe69uQlJCDfv4RlmzpmZd2Z+M+dm5j1T4lCU4CA/PqAYKIuJRUFsLHIdB0Xxcdje4xTgrdeAnExg92543v0Aq+96BPN//Q9s/OdwVE2YCXy2GfhqF7AjHzhQBvDrEzdU4gaAGdlAIZdIVQEHKoDMYmDrXmDpWmD6QvgnvYuSO6bg88tuxYIbHkL6e3Ph27wWyN2DqoUf4ZtzzsHmhETwBIKtCQ62VysGmD8qCXhUYXlCPAqdeBS3/RH2//JSYNcG+Kty3f2PuP2B209pRJ4qKnICqhhQxUDkraVlhmwNigFzc0F7nwFRGnC2AJUBcrUgxcBIpJw9AuMnLz6oGBDttD2wdnfKr4DPXwZueONHMXwogg+FAbfPAx4fzT50o5hKwGcYzo4rKwLKuWlvdRpV9OcfaXdAfVCJAU4P4AicA2wK8VfA7y+Fz18IHwrgRS68OIAqZLsT99yZB/5yV5bIrrfNsptGOFSXwe+pHvsLVyoJOP73AJ4KLzycUuBqPqoAL89h5MkEfncpwfQZX1YrBobi9DPG47TU0Tj/oomYNXu1tCm1lUCrIhCRYmDDC4cqBqYlAkuurrVxYA04zg748m7gs6uAbdOBnDVAaWbAcKkBd7Q/ZN+BGOCjS2opBnim/XMLN0e08SAVAy8t/R5F5R6s3pOPS55ejh4PLsBTn27FvoJy7M0vc2cN9B/xMeJveM9VDPC8+/Y3z0Kvexfg4rGL8Y/JtU8oMGcNBDYc/Br/WbAZ327djzxrtgAH1i1ZMcC6+f77791ZLTwtg8dYtnaFXrDyx8fHo2/fvuDRn2vW6Eyymne6CRzsbrh/7Isz4fvmC+w+4yfYH9MBVdyAMDYWBQkxyIt33BMK8EBDAgAAIABJREFUqBjIi41FTkxAMbC156mofPt1oCzX3XwQu3YBu7KALzeiYsLr+Pyia7Cc5rLrsfyvt+HL2x/AmkfHYcuzz2LvtFew/42ZWP/0C1jz+BSseuRxLL9nKD678Q588tcb8Nlvr8eKS29C1s0TgamLgE1ZQD6VCvuBwhx4Fi3GsjOGYHNCkqsY2JLoYFuCgxzHcRUXohgoi0tAmZOEwjbHofKKq4Hs7aj05Qc2Rmb/xQXQBGBVZJ0EVDGgioE6G0kLD9AaFAPXPP8VZB8BnlYgJwvQ3psbWGbA2QItXzHAkxaqZwe4O+O7+wvwkzcHrNQWcCpBOXz+YneAzR1wOcj2IR9e1644OECv3pvgoBz+IY3ASPq0+QfIMqIocJ8bYWUQ76ZBhUCVjNAr3TN8/d4S+P3cSYCGXwML4Hd38eUU/hz4wVkHVCBEkMdw5bDjG3kk26rygPEyW1QYUHnAMopMd0oz817u7kzs9/lQUgK8/sYXOPeCEeg94AGcfuZY9EsbifMvmoBZsw898qKF/yZo9pRAoxBosGLgrVOAA6uC926rSoGvHgSoPKDhefdv9wiYd/sD3zwKzD7TmjVwqGJgf14h7p75LbgcwFw2EMxtKwYu/8+XuGXGt9iUWYjckkrM/GoP/s/4xUi+eVYtWVQO8ISCE+76AOeN+gx/tY4vpHLg+in/w72vfIPpi7Zh0+4cFBTVXkIgX9tbumKgURqMClECjUXA/TvvQVVJJny7NyH73IuQk9AF3sQO7vKB/MTQioFtvXoCC+YAeZmApwDwFcLvLUTp/h1AQWAAj5Ur4Z83H7n//g82jhiGpbdciw+uvQrvXXs53rnuz3j/husx96Zb8fGdd2DRww9g6b8nYMP8mcjdsBLYn3Hw5AL2K5hX9odyi1H1/hJ8M+gX2BrXNqhigJsR7kxw3D0RPDHtUJB8PHDbvfAXcaPnYnDWqNv3oky9jggBVQwcnmLg33P5t1+vI0mgtSgGzJMHRDFg7i/AmQQtSjHw0ssLcdbgRzHozCfw4/MmYMKUZcjK5QdrjmRlyoBpUynAOWQ05fCjLIjhyn1zHYIZP1I305e/ZtVNl3+EQpma1i0KDE7HFxMszYPl8B9SjsPJf0BpcnDXAlMWyxPqYsFEexD4a+utqoS3qgw+bwU8lR7kFwCvzfgCP79wOHoOuAd9Ukegb+pQXHjJeMyZq5sPhiKrz6ObQIMUA9yE8KPfAJUFh8LhMoK874DZZwFcHmDuJ/Ay9xJIAGafDXx5F1BrM8NDFQNbMnLwh+dWoM1NtQfzdSkG1mUU4ImPNmPplgMorqjC4s3Z+N1zX6DjbbNrKQVMOdyMkHsOpA39GD8buRAXjF2MW1/+Gv/5cAte/XQb5n+1G+n781FSUnsduigFjoYZA4dWlj5RAkeOgPuXmhsGFWXDt3sb9l/6/5DR+YcobdfR3WSQSwlkj4Gy2Bh3KQG/yhfEJ2BLzx7wvj0dKNkPePPhqcpBKUpQgDIUohwFnLJfXggUFQSOCDyQ7W5yiJydQPZmYP8WYN8uIGc/kM9ZB7nuyQP+qgJUoAKFqEKO3+N+/uB2hoWVZQCnVuYUwDtnCbb8+BJsi22PLCcGO+Ji3OUD3GyQhssIeCpBbkwMStp0RGbnE4GR44BC7sNSjkrZXyDQVTlyFdCKU1bFwOEpBsa/qke3HunXp7UoBszlBJxBQOUAlQFyUUnQohQDr7yyCIMGjUD3nsPQL20oxj71GTJ55K27Pr7S/XrOL+gH99mvcg/U46F6XKkf2FmfK+rloz5X1jNMOXwobaApgw8V8LmH9FS6+wEwJZ/7zw+u4D/U0NcLn9/rKjVcxYa7S6LPnYbv594Crgks3efyfdO4Kw5qnrFkh5P/kuqlFZxJwWUWvA9WpsC5Bdym0SxrhacKFR4fqrxeeL0kGzi+kEcST3/rC/zsomHoOeAu9Ekdhr6pD+KXl4zBHD2uUN4xtVsZgQYpBl5rB6yZEJiuY/OqzAeWXhc4utBVCsQA3Ivgw18Bqx4Btv8XOLAa2D3f2tDwUMXA5xv34Zxxi2qm/psDedttzhjYX1SBLVlF4NozzhZ4bMFmnPLAgjr3KaBMKgiSb5qFrnfMxfXTvsKW9Bzk5BejsKik1jIHUyEgbp0xYDcGvVcCwQlwTEydAPj1PKcASM+A58GHsKLrsdjbtSPykmNQHOegMs6Bt/pkgmIeVegkIieuHdb+qBsKnhoNbPsKqMgE3BOWKkFV5QEAmQC46xD1lO53Fs46LfUC5WWBkwE4y4DbJvMDSGX1UVD8XsNlidwiBcB+D1DIaH4fSguzgbIcIPN7eJ5/Bkv79sNGpy1ynCRkxychKz4G2TEOsh0HGTEOdjsO9ifFIKvrMVh7Ug/glRlANo8qrHL7e7mc7RgcjT5tBgLDX/+y1rRk+RKpdmQKg7GvzGuGWtIkwhFoLYoBvpNycfYA72WzQZ5awPsWpRh47bWlOHvIGPTs/TBSzx6FyS+vwIHSwN+hg4N9GfQHsTmjzDbut+/AFn8cYtffMO7B7+eH7eY2A6bhlgM0gZMAXZubCNG4zxi2eovC+uc9oDKhcuSgCShRAjLDl4vMqYznkYbkSuUFVxUw/3lFwIuvLcdPLxiOnin3ofegEeiT9iAu+PVozP7gK2l3aiuBVkWgYYqB9sDaiYCXM3qMi73w7JXAzBMPzhSY3hnY9ALg4dKj6k9kDJezFpjR9WA4zi6w9hiY+b/v0f3ByAb0pmLA6/Oj3ONFZZUPReVVeP2L3Thz9CJ3M0JboRDqvu3Ns/CrSZ9j3a4DdSoEVDFgtAF1KoEICPCXgMcduxMbSyqBXenwPP0UlvXuju0/6Ihd1ev1yxwHHsdBpeOA7kInFlkxiVjTsTO+u+xC4N2pQM4uoCQL/uIc5JUWYr8XyAOQzzTYLzk4wTHQUfHzY0KFeyYTd3lif4b7Fsv5hdQV8NZVMnirUF5RHNhLJWsXfPPeQ/qf/oBF7Ttio9MGGU489jqOe2whNyLcXz1rgO49STFY37kdVg4YCMxdAGTmwn8g3z3imQoH9lf0OjIE7n52HgbcPluVA/dEpggwFSan3/IOnnrr4FFxR6YGNdXxM2vv0m/WUUty8yu/fYXLH/cSkEtmCMgz7jfAuDy+kBc3IOR9y1IMvL4MP/7JYxiQ8hjO+fkTGDXpc2zYXYG8isAJOAUVQEG5YcqAAjGlQIGYEveEHZ6y4z4rLAMKyxtoGLexTClQaJoSoJCm2DBFAE/2qTH0P5z8R1ruMGUs5ulDZUB+UbUpBnbv9ePF19bigsueRK/UYeh9xqPolfYQzr9EFQPyEqrd+gg0SDHAQfyb3YB1k4AKdr+rL3u2wNR44ONLgYqDP/RuyAgVA1MWbkaXO+reX4CDe1MxUFHlw9c78/C/HTkoKPNg2/5i3PP2WvzonnkRzRqgvMQb38fARz7Bx+vSwy4fEKUAbZ0xIA1BbSUQKQF+rS8FMvfC89abWNGnF77v0glFyYkochxUOQ78MQ4Q68AX46AiLh5Fbdshq9MxWJaQiPyLLwOefw5YswrIPwBwEO/jaUU8F7p6RaesUKysBKpKUYVClKIA5ShxT4RyZw1wxSSnCZRwE2OgxMtdlDjfkxsa5QEZ2+CfNg35F16Kze1+iK0xSchK7oD98YnuhoP5DvcUqD5akQqMuBjkH9MZ33bpiG/PPw/4lvnLhTc/112ewF9NZkuvI0NgzPTPcdq1r6pioAGKgT7/eAHT5n99ZCpOU60hMHHm5+h/09stvg03hmLAXDpgyuORhS1OMfAylxKcMRL9Th+LgWeOxG/+NBG3D5uBB0a/iQdHv4GHRr+Jh0bPxEOj3sJDo97GQ6P+i4dGvYuHHn0fD42chaEj52DoyLkYOvIDDB05z7WHjZyD4SNnH4aZg+GPzK1tXJlBntcK9wGGj5yLYczXo+9j6KPvVRu6Z7nPh1POIx9g+CPzMfzhBRj+8IcY/vBHGP7wx9WG7nlwwx1WGVh+cjBZzMLwkbaxOc3BiEfJcQ7uHzoTw0e+gdHj3saoce9g6MhZuOqaqRj0s7HoOWg0ep35GHqmPYzzLhmHWbqUoObHRh2ti0DDFANO4Es/lxTw5IGMTwPLA1aPA6Yfc3AWwPQuwI63A9N2TKxcprTnwzqXEjw+fwOSbno/5L4A5td+UzGwJ7cUd7+9BldP/dpVEHBJwSffZeHip5YdsvmgKcN08+SCE+6dhxcXb0VxSd3LCFQxYFawupVAPQi4M43SUfnhPMw/5RR8ndQGJV1/gJL4OFTEBGYLVFQPujkAz3FiUJCYjLy4ztjX9jhsP/U05F5+FfDyVODbb1wlAwrzgbw8oKgQKOXyAY74i939CNy5BP4c+MoygLIsoJT7ERTD3aG4hMc2lQSObsraBWxfD9+Hs5D1wD3YkDoYaxI7YYeTgCwnCbtiY7CzepZAYfWMhlIep8hZAzEx2Nm5Ez7t0gkrf38psO079wQFv5/qCG41HVhCWg9KGrQRCfx38Ub0uHw8Bt75QYsfWIX7utrcfqff+j66/34MlnyzrRFrQ0U1hMDMT9eg99+eb/Ht1xzISznDtVuZHcCwMmPg8okrJCpM/58OX9jyFAMvvbQQaWkPo/+AceibMgx9z7gVPVKvRbe+f0O3vn9Htz5Xo1vvf+CEGvNPnND7moDp9S+cWMtcixN7XYeTet6Ak3vcdBjmZpzc4xbD8F7k3YiTe5hGnksc2jfgpJ7MS+38ndTzXzi557U4ued1OLnn9TiZ+XTzSnki53BtyYeZf7r5/MaDaUraYrtlYto3onufm3FSj2tx/IlXonvPq9C3/1/Ru99f0P20a3Bin1txUv/h6DnoSfQ6cxJ6po3Czy95HLN0h9Wal04drYvAYSkGZA8BKgimH2vsK8BNBuOAD34KlO47FCiPEeXJBHVsPjhhwYaIB/KmYmBtegF+M3k5jr97HsYv2IyswnJkF5Vj0idbceqDCyJSNFAxQJnPLdwCHptozgwI5dYZA4dWtT5RAnUS4FnJe3egauUKfP2b3+CLk07Fd+06Iqd9JxTFJaLcceBzYt3ZAxx4Fzg8wjAGlQntURjTFulOAjISOqO0Zxpw4W+Bu4cCM98Gdm4FDnCZQQZQsS9givcAB7YD+7YARfuAogwgPwMoSAdy9wC7NgH/Ww7MmY2q4Y+g6O//xMaUwVic2A5fxMRhS7sO2Nq+PdbFOtgS77hLHpifqphYeJ24wHKHmERktO+M5V06Y0FqP3w37G5gzyagOMudklABDwo8pbrHQJ0No+kC5BRVoscfx6HP1f9p8QOrcIOo5vbr9ZdncPpfnoTPx+k4eh1JAut2ZOLU345EvxveaNFtuDEUA2zn/MBjXrKsgH4tainBtGlLcPbZ45CS9iROHzQSfQfdgX6D78eAIaMxYMi4WmbgkHFIGTIWKUPGIGXIaKQMGYXUGvMoUoc8itSzRyN18FikDR6PtMGPN8ycNQFpZz2BNNquDMp6DGmDxyHNlU35YvhMzGNIHfwYUs82zTiknl1tJP7ZY5BWy4xG2tmjMGgwzehq2YeTf+Z9ItLOetIqg+RzrJX+mOo0A/5nnvM4Bg1heUfirCHDcObZ92HQ4HuQMngoUoaMR7+znkbPQVPQ68zn0CPtMZx7yZN4T08lMN83dbciAoevGKiePWCePkA39xbY8mrgmNZaPP2Br3Q8maBWnEP3GJi1apc7nT/xhrpnDZiKgdV78vGrp5cj4Yb38fMJS/Dphix3z4H1GQX460srkRzBLIROt812T0RYtWM/SkpDn0RgKglUMVCrovVGCURGgIqBzJ2BIwLnzkXl/Q9izaDBWHXMcVgXn4ydMQkoatMOnvbt4UlMBE8oKE+Id9f1F8XEoSqhLZDQET6nA7KdJOxI6oSd/U7Hlkt+gbVX/x4bht2EjOfGoPKtF4F57wAfzwM++RCY+x4w83X4X5mCkinjkfPYQ9hz53XY9NuLsWHwGVj/oxOwNjYJqx0Hmx0H6XGJSG+bjM3JcVgf7yC9Yzyy2nD2QgKK27RFTmwSdsW0wbb2XbGxT3/svvIK5E58DFi1FCjLBgq5JWKJeyqV18edDnVwFVkDaZpQfxvzjjuwUuVAZPsM9L3mZZfX7ZPnN02FqNR6E7jw9n+jx58mYMAdc1qscqCxFAOy4aBAko0IW5xiYPr0ZfjJT8eg/+kj0bv//eg36D70P/Nh9E0dh76pE2rMaamPI2DG47TUx3Ba6jicljoW/VLHoF/qaMOMQb+Ux9A/5XH0H9gQMwH9B5rm8YCslPHo78odh/4pYy3DZ0yTYR5HP9dMQL8UGrmnHUzGGPRPHe2a01NGgSYgf/xh5P8J9B/4ZLWhm+VhOYKlb5aF5RiHfimj0T/lUaSeMRIpg4ai/4C7kZJ6PwYOGo5+qY8G6uGMSTjtrInonTYS510yHrNUMSDvmtqtjECTKAamcW+B3wBl+w+lWVUOrHkCmJZUp2JgX04BuJyg+wML3NMCzKn+tvtEft1fvN2dHfDljhxcNGmZOzPgB3d9gPveWYvNmUU4UFyBGV/uQv8RH4edNdD+1tk4/4klmPPNbuQXFUc0W0CXEhxa1fpECUREgDsElxQAJYVA7gHgu+/gffklbLjyz1h1zo/xv5NPxnc/+CF2d+yEjHhO43eQzeMLuyQjp2NizcZ/nM6fy40AY2Kwr20S1ifHYVXntlh5XFesPOlErDqpB1af0Afrj+uDtcf3wRfHdceSbidiYbfj8dEJXbGgWwfM75qIj9o5WBzvYKXjYFN1WmVt2qAwPqCMSHccZMXHIT0xzj2qcEdiEra374zvjjkeq3v0xeaLL0PGvfcBy5YA+9OB8vzAMoZSHllVAZTx6EMeB62KgYjaRxMF+nzNLnegy6+uHPQ299f3oyk9UQpw+cXa73nuh14tgcDIVz5x2zCVAy21PTWWYoD7CZgXjzGUMreoGQOvT1+En/1sKM4Y9CAGDRqKtEHDMCDlUQxImYABAyfWmIEDn8TAlCeCmAkYmGKb6nCMU28zEQMHmiZUusHyYqYrMuqKb+R94AQMpHHL80QD8s7ySrq2XVc+pDzjkZI6EqlpDyIt7T6kDbo3YKfdj7S0B5GaNhRnnPUw0s4cjtQzH0D/1Jtx4a+HYt6Hq8z2pm4l0GoIRKQY2Pgy8Ko9kA8xU2BqLPDeQCCbO9FWn0IgNH3cfXwu8EY3SylAWTGuMsH8Ak/3tn25uGvmN/jBXXPDbhx47B1z8fdXvsLkhdswYvZ3GPDIJ+7gP+nG95Ey8hM88O56/HvJDoz6YCOGjF0UUtHQ5qb3ccaoT929BTJzCyNWCqhiQCpZbSXQAAJUDhQWAsXVa/3z84A9e+B757/IvOMObP3Vr7B5wEBsPO44bO/QCXs6tsP2RAcZ7WKQFe8gL8aBNykWvgTHXXpQnuAgP9bBgTgHmXHx2BvXBlmxHZEd0xX5zvHIjT0e250O2JbQARvbdcDqtolYmezg63YONnRxsKdrPPa2c1CY7KCQchwH3N+gwklARWxbHIhNQnqnLtjU9YfY3KMXtp/zE+z63R+RO3Q48MlCIDcXKCkGKsuAijKgshy+Eh5ZxV0NywNnNapeoAENpXGj3PHULFUOhNmAcMBts9D7b1NqGA17aVHjVoBKOywCPJ79wjv+49ZPzyuebJF7ZjSWYuBXY2ufhCH7C1A50KIUAy+9NAcDU/6OU0+9Et1PvRp9e9+CPr3vQK9ed6FXr3vUNDOD3r3uRO/eN6JPn3+iT9+rA3aff6FPn+vQp8/1rt279zU45ZQr0b3H5ejR63c49/zrMWvu0sN6OTWyEjhaCUSkGNi9wNooMIRSYFoiMHswsHextYSAO48XAltfBWaeFEQpwD0JYoHltx4yEC8pKcXandm48oUv0eHW2SG/9PMUgWPvnAvOHODpA+1uORiWg33OHDjp/vmuf5fb54B7CNizDrj0oOdDCzBm7nrszMqLeAmBKDN0KcHR+hZovlsEAeoR5QhDjw8o4/FORcC+fcDq1e66f9+Y0dj5i/OxuF07ZBzbBdmJCe6AvTw2Bp7qjQqreIpBkgNPnIOyGO5HQBOLUqcNypz2KHc6ocTpgDwnMNuARyNuj3ewpZ2DzR0dbGrjYGusg5w2geMHOQuh0okBYpLhdZJdOfviO2HjyT2R+8crgOeeB1YsB3ZsBbL2AoUFAE9A4FnRHPyL4T2XydLQbelNW0QdtMJMXHb/1JqBb6+/TG7xa7blK2lT2gPvWoC+17yC7n8YU8PmD8Omt8LW0fKL/O6S9TV1xPo67brXa76kN2UbiVR2MMUAFU6h4nNmAAf6NFQGmOHkuZxGIH5MQ/zolufBbM6yiPRyIg1ohvt61TY89+9PMPnZz/DU00vx9OQVmPzscjw95XM8PWWJmmZmMHnKEkye8hkmT1mEZ579DM88uwTPPLMUzzyzvMY8++xyTHpqESY9/TGefGoO/vPSh9iwKd2sVnUrgVZDICLFQOFuYN7Prc0CLeXA1ARg/gXAvqUBJQCXDHhKgNLMwAkECy8HXm0bXCngHn94ApD99SGKAQ66eSrAyq1ZOP+JxWh786xDBvT2AL8h91QUULFw24xV2JyRE/ERhaIU0BkDreaV0YI2EQGOk7nynsf4cQKB66isAopLgbwcYN9eYMNaYM67qBo1HGtOOQXb23fC3oS2KE9qD7TtAMQnwlN9QoDXcUBD5YAsMyhw4lAZ3x5IPgZVsW1REZeI3DgH3zsO1joO1jkOdnMGQrKDbJ6EEBMDJLWFv90xyE3ujF3tj0HGKb2Qed75wGvTgSWLgZ07AkcllhUB3sAhhDVjf5aDSgBREvgP3qpeoIkaUj3F5hZX4tzrnqgZXHFpAb++8li+/jfNDDvICDbwOFqfDbxrvnv83Wn/moaef5pQi8f/ffA1lFawEevVEgk8/c7yWvXF9ksFQUs5dcM8SYD8uPSh/41vNuu7RR5UnDS5YqAlNhDNkxJQAkogUgIRKQa8VUD+lsDRhK93DDG4p6IgDnizGzD3p8BHlwDzfgG83QPgTIJaGw0aSoVpCYFZBumfuGtuzYG26eYGgAtW70HqyE8jPsKwPgqC9rfMxu+mLMeanQeCKifMvIRy64yBSFudhlMCwQlwWO3liJlf2akl8FBB4AMquDa/2D3yDyX7gd2bgA9nw3ff3dh7+iBsctphHwf9ThsgtiP8SZ3cJQVUCGTz63/7RBT8sANyj22L9MQYbHcc7HAcZHJfgkQHuW1jkJnkIDM2sE9BscMlCfGoctrB43RBemwnfHl8N3xz2QUofOVxYPMKIHsPUJADlBXCX1WCck8p8jyVKOQEKRaPZaCDxgP4uO8qgDwAhdWPg1PQp81NoKSiCleNeL3W4IoKAjHd/zjOVRb0umoSos30vOIJdP/D2JqySpnFvvGJ2c1dHZpeAwg8/d/lSPtbbQXXqb8bhV5XPeXO/uh3/XT0v+ktnH7zf5vdnHPvLNzz4jJ8ty3wEVbaVs8rJ4KKKOZr4J1zG1VRcPqt76Lvv6ai91+ecU8gkTRVMdCAxqVRlIASaD0EIlMMVH8pqCoDdr4PzP1J+MF+KCWA+ZxLB946FVg7ASjPqQEeatDN53kFRXh+4Rb0GfYhuHSgPgP/cGHb3TILFzy5BJ99t7dBMwUkz6oYqKlGdSiBBhGoUQrwJ4cDan56r/TBU1KCqorAjv7wFwMV3OU/Hdi9FVi4CP6Hx6JoyIXY1rYbdsV0RnHSD4E2P3T3A8hyYrE7xsGeNg7SO8RiT8dYZCQHlgns52kD1QqCvLgYFCclozyxA4qSuiC3/fHYFn8sth9zKor/3xXA9GnArtVAxTZ4yrYBlblAZTF8qEQZvCgAkF997oCrGHDzflDBwdtiANkA+IvnhmkQJY3UVAQmv7MCA/82MeQgWQYXrcH+yQ3PYdoC3X+rqdpaU8jdtDsbNz7xXottvwu/3uYWO9T70+Pyx8DlPNzs8rR/TcVp177qznzod/0Md4kPZ/D0v/ltV5HAYxpPu+419L1mKvr840X0+fvz6P3XZ9Hrz0+h++8PLoGx01LFQFO0PJWpBJRA1BCol2LALbU/MJBf9xTwds/A3gDmgL9OdwwwvQuw/CaggH8kak+olUF2KHvX/jwMf28tTr5/fsgNBMMpAWy/5JtmYciYRZixfDuKiksaPFuA+VXFQNS8FlqQI0VApt5zpgBnDHA07QN4bHqF34ty+FACH0r9lSiqzALAwXkOULAP+PYr+CY+gz0X/wGbju2NfU5XVDpd4Y0/FhXx7dy9CDJjHOxu4yCzg4O8BAel8Q4q4mJRHhOPYicJOU577E44Bms7dMO6lLNRcNudwAdzgZ1bgLzdQFk6fDiAChShAh6UAyitVgZQbcF7Ztk9cIAOlqO6DLQYRmcMHKnGFVm6RaXlmDBjES6686UWO8CyBzuNdd/jD2Pxp4ffxGsfro4MloZqkQQ+WrkFV4yY3uLarygG3vx0zRHJ2zXj3saBAv5iR3Y1aI+ByERrKCWgBJRAyyRQf8VAdTnY8y3cDqy4HZh+bOBUgbqUAq8mAx/9GshcZm1OeJBNKIWAPHc3I9yVjWtf/Qpd7wx/UoGtBLDvOeuARxdO+mgT9h4oOCylgCoGDtahupRAwwlQC1C9Jp87+NNdvS6fX9g58Obgusg1XuT4S7GraC/yKg4AvmKgMAdY9iV8jz2D9DMuQNbx/bEn4VhkOW1QmpCI8uR47I133KUE+xwHxTEOKpISkZfQBt/HJmNzl27YccZPsPPP/wCWLgU2rgey04EKDudL4EUZPChDkWsCSwKYl2KfH2VVfniqgCoP4OXmidU6T9F1cBIElQMyEaK2SrThxDRm0xHIzCvB3BWb8NyslRj7+mJ3fTK/OEaTefyNzzF1/jdY/O0OVFbxhdMrWgjy/T7ZAAAZrklEQVTsyynGax9+i/ufn4d/jfsvfvvAVFx678tHzIhigHzXbs9036Of3fBskykJevx+FH7/0KsY/epCzP9iU72rVRUD9UamEZSAEjjaCTRYMSAF93mAzBXAx5cBr7YJvpfA1Hjg/VRg25sAlyOEuUQBEM7ml/2lm/bh0snLGrwZITcbPPHe+XjwnTXYsjf3sJYQSF51xkCYilUvJVAnAQ6Vy+BHRbXxwAcarzvG5oaE3O7EUwn4yoGqAo7CA5v5BdbuV6LEXxZQEBRlA8uXwPv4WGz/5XlY96MfIL19Iso7JcDbMQbeZAfoEI/KtnHISI7Dui7tsGZQP+y96R/Au9OBbWuB/H1AVTHgr5664PPDz5E/FRa0qic1uAN8UWZw9O/3wYcqlMODEnhQ5KoSPPC7Gw14AI8H4KaKnAahlxJQAkqglRPYtCsbs5dtxMS3luGWibNcxcVPr5+M0/88PiKlAcP98rZ/4++jZ2LYCx/hxbkrQSVElffwfmNVMdDKG6YWXwm0RgKHrRgQaJ5SYPvMgAJgalxAQcB9BN48Afh2LFB+QEKGtWWQXZdN5cDcb3fjrNGfIunG9909BzgDIFLT5fbZ+OcrK/Ht99koLik97NkCzK8qBsJWrXoqgToI+OF3V+tzxX4FvPDAiypU+TzwUytgDr45RZ/TByoC0/ZLfHDX+Oe6G/t5UOrJAyrzgLwM4JsV8D/7JA789tdY1/NErOnaARt/0BHrju2I9Sd3w/fn/hhl990OzH0L2LUeKNsPePPh85Wg0l0u4EdRlQeV3ASReeBnfyooqJegVkCeUVNQ6YHPU45ybylKXaVABQpRgbJqZQd8FUC5B6igRuPwOq11wFRvJaAElMBRT6DCU4Wdmfn48rvd+HzN91i1OQPcS2FPVgFyC8tQ6aneA6sJSqqKgSaAqiKVgBJo2QSeeeYZXH/99WEHxl5vpD+83H8gF9jyOvC/+4D1TwOFO6rPHouMQ10KgZbsT47kqZcSUAINJVAFP2h8NaZGEgfhpuG42h94xF8od1zurkKoHql7PUBZCVBQCBQUAFlZ8H/zLfJmvIF14x/HrhdfRPnHHwPbtwEFeUBpMVBSCHjKAX9gcwCv++0/oAtwJwPUZOZgVtxHZr6q8x6Iy7kDnPPAPHF5gS+gEKBSgHH0UgJKQAkogRZJQBUDLbJaNFNKQAk0JYEVK1YgJSUlrGKgJQ/GW1LeyJE89VICSqBpCcg4XAbrtcbYpicDVH/hDxx96Ic/vxTlWbkoyyuEt5zrEqq/+jOe1we/8SXffVS95YEpStJt2lKqdCWgBJSAEjhSBFQxcKTIa7pKQAkcUQIDBgzA7NmzVTlQ2vAlBeRHjnopASWgBJSAElACSkAJHN0EVDFwdNef5l4JKIEGEnjzzTfdQe2BAwdUOdAA5QC5USlAjnopASWgBJSAElACSkAJHN0EVDFwdNef5l4JKIHDIHDvvffi3HPPxaZNm1Q5UA/lAHmRG/nppQSUgBJQAkpACSgBJXD0E1DFwNFfh1oCJaAEDoPA2LFjkZycjAceeMBdK5+fn69KgiBKAnLhXgLkRF7kppcSUAJKQAkoASWgBJRAdBBQxUB01KOWQgkogcMgwC/gd999N/r374+EhAQ4jqPGYkAu5ENO5KWXElACSkAJKAEloASUQPQQUMVA9NSllkQJKAEloASUgBJQAkpACSgBJaAElEC9CahioN7INIISUAJKQAkoASWgBJSAElACSkAJKIHoIaCKgeipSy2JElACSkAJKAEloASUgBJQAkpACSiBehNQxUC9kWkEJaAElIASUAJKQAkoASWgBJSAElAC0UNAFQPRU5daEiWgBJSAElACSkAJKAEloASUgBJQAvUmoIqBeiPTCEpACSgBJaAElIASUAJKQAkoASWgBKKHgCoGoqcutSRKQAkoASWgBJSAElACSkAJKAEloATqTUAVA/VGphGUgBJQAkpACSgBJaAElIASUAJKQAlEDwFVDERPXWpJlIASUAJKQAkoASWgBJSAElACSkAJ1JuAKgbqjUwjKAEloASUgBJQAkpACSgBJaAElIASiB4CqhiInrrUkigBJaAElIASUAJKQAkoASWgBJSAEqg3AVUM1BuZRlACSkAJKAEloASUgBJQAkpACSgBJRA9BFQxED11qSVRAkpACSgBJaAElIASUAJKQAkoASVQbwKqGKg3Mo2gBJSAElACSkAJKAEloASUgBJQAkogegioYiB66lJLogSUgBJQAkpACSgBJaAElIASUAJKoN4EVDFQb2QaQQkoASWgBJSAElACSkAJKAEloASUQPQQUMVA9NSllkQJKAEloASUgBJQAkpACSgBJaAElEC9CahioN7INIISUAJKQAkoASWgBJSAElACSkAJKIHoIaCKgeipSy2JElACSkAJKAEloASUgBJQAkpACSiBehNQxUC9kWkEJaAElIASUAJKQAkoASWgBJSAElAC0UNAFQPRU5daEiWgBJSAElACSkAJKAEloASUgBJQAvUmoIqBeiPTCEpACSgBJaAElIASUAJKQAkoASWgBKKHgCoGoqcutSRKQAkoASWgBJSAElACSkAJKAEloATqTUAVA/VGphGUgBJQAkpACSgBJaAElIASUAJKQAlEDwFVDERPXWpJlIASUAJKQAkoASWgBKKcQFlZGW644QY4jnOImTFjRk3p6R41alTNfTDH5s2bcd9994EyeTG8KZfpiJ8Zn7LNcBdffDFycnLMIIgkfYkQaZkkfH1t5o15XL58eX2javijjADr2Gyb4g7VlkMVj3IijRMt7UsVA6Fagz5XAkpACSgBJaAElIASUAItjIAMou1BrgxORDkQycCcYSQ8lQK2IoH35qBf0rYHTJTBAZiZp0jSF7Qi14xPP7tMEr6+tsix5ddXjoZv+QRYx3b7ZK7ZloM9D1WiUHKChY+W9qWKgWC1q8+UgBJQAkpACSgBJaAElEALJBBqEM2smoNx0x2sGJTD2QKcNRBqYGM/p8xQgyvbr670zTxFWiYJJ1+BaTMduSS/4i+KDnkuigGWOTU1tUYRIvcSj358JhfjiR/LT24im2FMf4aTdCS+2s1HgOyDtVFpO2Z7setNlGDmc3km8aUd0BZZ0r7YJsTfzkNdbcyMK2kKNZEvss22J2Eaw1bFQGNQVBlKQAkoASWgBJSAElACSqAZCMgAJdjg0xyMm+5g2eJARZYRiEx7MGPGkzDB0mU4GbyIf13pRypb5Ej65qCIfjKIF38+42Xem3mTAZrk076XeMLC9mc8DtAkH7w3B3IMf9FFF9VSLJhlVXfTEmB9SN3ZKUlb4nOGk7bDe2kjZr2KHGkT4sfwZtuTuGY7YFiJb7chkSf+lCVukS33Ipv55SVxpZ27DxvpP1UMNBJIFaMElIASUAJKQAkogaYmwM6gfDWibXZEJW07jIQ3O8EMGyqc2fkVmdKxFVm0paMqYdRuHgIyMLD5Sx3Jc9ZvsLqUXDKc6S8DkFB1TP8rr7wy5IBX8sV0edWVvuSDtsSVvIufXSZ5Ljb9ZRDOuMHeB4aVss2ePdsNI3kUObZNfxmY2eWQvJKduO1823Fs+XrfdARYF1J3dirh/BiWdSrvRF1hzbYn7ctsB6a/nQ/e220sVJ6DtSXK5rvIdBvzUsVAY9JUWUpACSgBJaAElIASaAICMgCxBz7siNqD9GAdSWaJz834wcJJOtI5ZrxgHVw+o6KBMvRqXgJSR+YAXtxmfQSrXzOnrGNzIGP6Sf1SrrSZ5lAMSDlM2yyT5JF5lzCi8GK4UIMrGbgxjoQXWWKbYRhOZDEtOw98RmPHkTzRpr9ezU8g3IA+mJ/Z1s16CxaWpWG9Sj1LWwr2bkjbMN8xeSbxpY2Zz0WmkDPTk3i05b2UcI1hq2KgMSiqDCWgBJSAElACSkAJNCGBcIMedjzNTiLDBhuUSOdTOqr1CScdWLOI4fJkhlN34xIQxYDUYyjpoeqX4dkWWKe0w12SFmWJO1S6kbavYOnVJVviyCBJ2qOptArXHiVvDGOHEz8OtujHywzDNOW5mQ8+l7ihmEh4tZuPAOtC2oedKutRfhtNhYDUH/3E35bD52wjIttse2wH9mwas22IO1Qbk3zKe2AO/M08SbimslUx0FRkVa4SUAJKQAkoASWgBBqBgHQW7cGJiBZ/6dyanV8JQ1s6p3WFY1h2RiU9hmdHVeKZMtXd/ATs+g6Vg1DtgOFZlzIAkntTuWTKNAcmlCkDI4Zhm+I9bco0ZYRL35RPdyRlYhr24MscnNnpm2mYbV/cZvs2y8R4ZjntckheyUXcIstMU91HhgDbgV2fzIldV3a9MozZ1k05dbU9aVOMI5fdNu08mW1M4ohtygsXTsI3lq2KgcYiqXKUgBJQAkpACSgBJdAEBMxOYijx7NDK4CRYh5fx+DzSgZstg/dUDoixO7mh8qXPG5+ADHDMQUiwVOw6NMPQj0YukWnXqzm4Ydhg4ZgPaRdmnsKlL+mKLXLN+OIntv0eyL1MvRYZZrlkoCdhRT5tiUe3+V7wnuURFmTAsGZc+lM2L1MW74PlQ8qgdtMTYH1I3Zmpsb7M52wn9r1dr+Jvtx+5lzYk9xJe2oDZRsK1MTsvLIOEF9lmu7bDm+U8HHfUKAYISH6UTFsqRCARtOlvuqUy7R8AiSt2MH95ZspjWno1LwF5ecx6ELe8vMFy1FQvmJmW5E3amelnuyVsY7Qh+XFqDFl2Po+W+1C/D2wb9m9EU5SJ6TdHOmbe5beOaduX+Mm7Ibb8EWL4xmyDdvpNcR+unbO8UjY7nFlO0808ss6k3hqjDoV7sDqxmfBvimyoZfvV957lsr+y1VeGhj+yBOy2GSw3bKvStmjLe23a8h5I/HDtOpwf0xK5kqbIVLvpCdi/Y6FSDNUORowYUXNMoR3XrFvWsd1mJHwo2YzD3zpeocLI76rIoh1pmeR3lOnIYJ15lHYo74q0T+lzyXPJG9NkPsTfLDefffLJJzWKA4Y106U/T3OQNOlvl9X0o79ezUfArCtpB7TtdidtTsLQn/UmbV7ajIwfTLl222NY/p194YUXan4bpW1JycO1MTsvkqbEtceZtmwJd7h2VCkGQlW4+ZyVWhdM6ZBdccUVh+y8Ko2EjYiyeEl42nJJBeoPgxBpHlteTLMuIkmZ9VRXu4hETrgwkgZ/cKTthAov7ayucKHim8/lx6YxZJlyjyY32Zu/A82d9+ZOX+qcZZY/cGaZ2RaCtXfmU8I3Zhs0024qt5Q5WDvnMylXuHDhyny4dSjphqoTm0uwvyt2mEjvG/q7GKl8Ddf0BKT9sB0Gu8Rf2r/dXkP1Sexwpmy21VDpSTjz3ZJnarduAvy94aA62q9I3o9oZ6Dliz4CUa0YYHXZHT3+EQvWITarVjpk1PrYfxQlvjm4Y5hgMkM9N9NSd+MSiLQDLO2CCh5q5aj5NeuQ9SwaRD6nP/8IyGX6m0oi8bdts9NGOaYsCcv2YqZptjGGYRzxp23KoJvtlXmln2gaJV2JJ+3ZLL8ti+2f5aWx/SSvR5vNcpu87PwLJ+Ej/owjz8IxYxhpQzZr+skzaWPSSZfnkoakG8xmmHBlMONQPjXXW7ZscQfEbK/mJb9jLLd5me+PlNeMy/QlzzLQNuMfSbfUoZlfyQ+fMb8ZGRk17wjLQaZmOU0347K80gak3KzDRYsW1SgaJA3KkvqVZ6ZdV51IepIO25M5Y0DKJ/6Sf8aTeuMxXHz36Sd5kTJJPOFDW57RlueUx7JMmjTJLaPtZ5ZJ3c1LIFwbkzbO+ubFsPbvhdS5Xdd2OMaXdsOw0vYo077Yrs12avvrvRKIBgL2u6ftPhpqVcsQjEDUKwZYaOnY0c0/ctJhCgaEz+SFZ1jGNTvPvJczUOWPK23tPIWi2bzPpYPMOgx1SYdHOjkMy860tAu5t+tXOk98bg6KpL2ES5N+HKgxbTs+88m8mDKZltmmeC/5Y3i7zdnh6W8rB/iMl5Rf7u1On5Rf+LiRjvL/WBapv1BFYRiTsdmW6mLGuGZ9mfyZnpm+Lcu+D5e/usogcc30GMeOx/yZZZV44cps87HvRcaRsqUdS7s288Fn8n7Z4Uz+ppvxTXYmUzucLdNMW9xmfFOu+POZ1InIs99hsx4pT/wlP1JGybvIo7+5lMDkwbD2b5gpW/Kn9pEnIO3CrGfmivVp/v7wmdnezJyzDUm7CRVO0jHbW7A0GJ9hzHBmWupWAtFCQN4Jvmc05jsULWXUcigBEmgVigHzD6T8cZOX27QZjpfZSeJXE97zYueKHa1gX+EY15QlHTI3ov7XbASkg2zWhbilTuxOMTPH+hN/s73QT/4gsPMjbsowLzuO6Ue32XkSGYzDy77nMymHnY4bIYi/Kd+WKfJFVrC8so2L4sJs/5Le0W6zzNIObFu42OXm81BtgjxMZpQvYeln15/J3PaLlK0pI1wcW75dLsY1y2bKYjuScthy7DKa8VqC227nZp5YXhlM2eHMcppuxjffK5u/6We2BTNdcdty7Tqx/RnPDiOyxDb964pPf1EM2OUXeWb5WnpdS55bq836MX/HpG2bPMz6NJ9L/UscW5bI5XP7YpvjgEjC0A4Wzo6n90pACSgBJXB0EGiVigHp+IaqIrPDxQ6l/OGjm53BYJ0wUxbDyB9OiWv6q7vpCJgd4FCpsE7sNmAOlFh/dr3JIEDqXurXtBkm2BUsT2YeRCbzIJd03sxn9GM8M03xD5dnWxbDmjLELR1Fs/1Lfo52m9xC1Y+UTThJ3ZtM62Jm1ifl2XVqp8974R4uX6xfCWfbkk/Jv9iMY7Zvu1wMF0qutIFgZZAyMR8t8WuJlFPeCeEh5ZWy2eGkXIxnuhmPdSP1Y9ehyZluCWemK24zLJ9JHqQOg71zzIsM5kUObaYjbUHqIVhYsyymvzwXGaYtZWC+zDZkpq9uJaAElIASUAJKIDoJtArFADs70gGzO2jBqtXspLETxQ4SbcphfOlY0R3uor90RsOFU7/GI8C6CdaZNlMI1uk124XZXiQen9FEWvcSjzbTMzvfpjtUe5KBg7QxkSHtyc5HuDzbsqQsZh5Nt9n+zedHs5v8WO66Lmkb6enptdpRXcwkHlnzsusnVPqsX2kPDBPuCiXDjCN1LTJNW9oOw5vt3Yxvuu0yiJ+ZhilT/I+ULfmSd8bMB59JXu1wZjlNN+Ob9W7zZ1j5rWG4YOlShqRn1oW4JU/B3jlTvuSF8WTAbsaxwzK8WRbT33zOcMEullXSCeavz5SAElACSkAJKIHoIxD1igG7ExRJh9jscLHK2enjvgKiIDBlSqcvWKfelhN9zafllcjsAIfKnTlIkDBmR9geAEgdsx2IO1h9iyzTDhVenoeSGayNmQMP05/pUQ6NXCKf+RS3xDfLKuFNOxrbrV2nZnlNt5RdNnIkO151MbP97fqpK307vpkncdclg+Ek/7TNi/f8uixtgHZdAz+7DKY8uuvyt8M3xz3fAXKyL5Ov/T6Y5TDdlGG+V8H405/LzeRvg50u7yOpEztdOx79RQkhaZhy6xNfyh+Mk8g2eckztZWAElACSkAJKIHoJhDVigHpAJkDpkg6xGaHi9XPOPxSI3LsTpj40zYvs1NpPld30xEI1oG2U5N2IR1jGTTJQEnupT6lfqX+eS9TeCnblmemZ7cl049y5Iuh6WYYpsU2x+e2fLkXfwlv5smUJ+H5jJe0Xyk/n5kDgXB5dgUchf+xfFJ/4bIvrMz3neHrYmbyM8MLczN9kSV+kibDhLtMGaHC2fkww5m/R0xb2rsZxnTb+bRlU4a0XzPekXQzT+Z7wLxIOYSv8Bb+4s970824JrNg/BnHbit2+W1upr8tX+pE8ihlsfMl97a/xLfzzvCmYsHmJOkJo3B5NvOvbiWgBJSAElACSiB6CESVYoAdNNtIR0eqTDpydjjeSyfLHhhJJ4xxedn3fCaDSVOunbbkQe2mIyB1Y9aD6ZY6McNxcCNf/dhB5mW2E3a2eXSYxKU/3cHk2iVjx9/srJv+kgeRa8qUo8Kkzdnti2cEUy7l85J0WBbmS9qypCeyJbwtz8yj3f5FxtFsS/nNOhO3PbiVsMJeyh2OGeOYDKVuRYbElbTM9sV8SL1IWg2xJU3mJdjFNKVd0G3mN1h4kSdlkMGjcBNZweIeyWfCWvJJW8og+ZI6JneznKabYekvdSNypQ7pb4cX+WKLfyR1IulJvjlrxTwGjmUQP7LnPfNC2ZIO8yph7PoVP8mLMJDw8pz5oNuOL2VSWwkoASWgBJSAEohOAlGjGIjO6tFStRQC7FSbHeeWki/JB/NHo5cSUALNR4ADcg6gaR/JSxQDtgLkSOZJ01YCSkAJKAEloASOLgKqGDi66ktz2wwE7K9l/FJofrlrhizUOwlVDNQbmUZQAodNgAPxlqCQU8XAYVelClACSkAJKAEl0OoJqGKg1TcBBWATOFqmTJv5VsWASUPdSqBpCchvhLmsoGlTDC9dFQPh+aivElACSkAJKAElUDcBVQzUzUhDKAEloASUgBJQAkpACSgBJaAElIASiFoCqhiI2qrVgikBJaAElIASUAJKQAkoASWgBJSAEqibgCoG6makIZSAElACSkAJKAEloASUgBJQAkpACUQtAVUMRG3VasGUgBJQAkpACSgBJaAElIASUAJKQAnUTUAVA3Uz0hBKQAkoASWgBJSAElACSkAJKAEloASiloAqBqK2arVgSkAJKAEloASUgBJQAkpACSgBJaAE6ibw/wHQUyG/QVQqkAAAAABJRU5ErkJggg==;" parent="77" vertex="1">
                    <mxGeometry x="40" y="257" width="730" height="125.45" as="geometry"/>
                </mxCell>
                <mxCell id="52" value="Messaging Pattern - Event Message" style="strokeWidth=1;shadow=0;dashed=0;align=center;html=1;shape=mxgraph.mockup.text.textBox;fontColor=#666666;align=left;fontSize=17;spacingLeft=4;spacingTop=-3;strokeColor=none;mainText=;labelBackgroundColor=none;fillColor=none;" parent="77" vertex="1">
                    <mxGeometry x="40" y="417" width="350" height="30" as="geometry"/>
                </mxCell>
                <mxCell id="76" value="" style="shape=image;verticalLabelPosition=bottom;labelBackgroundColor=#ffffff;verticalAlign=top;aspect=fixed;imageAspect=0;image=data:image/png,iVBORw0KGgoAAAANSUhEUgAAAY8AAAEoCAYAAACgg32xAAAfAElEQVR4Ae2dCZLjOA5F67Rzjr5XX6Yj5iA5gXH/NAxDKymJy3OEgiS4P4D8JWdV5Z8fPhCAAAQgAIGDBP4cbE9zCEAAAhCAwA/iQRBAAAIQgMBhAojHYWR0gAAEIAABxIMYgAAEIACBwwQQj8PI6AABCEAAAogHMQABCEAAAocJIB6HkdEBAhCAAAQQD2IAAhBYJfDnz58fnjIGq4A7rUQ8OnUcy4bAXQRMOH5+/sNzksGL313eum8exOM+1swEgS4JIB5lwol4dBn2LBoCECglgHiUi8dff/31Y89IH948RvIme4HABQQQD8QjCyvEI6OCDQIQ+CWAeCAev8HgMoiHg0EWAhD4JoB4IB7fUfHDf4yYQcEGAQi8CSAeiMc7Gt453jzeLMhBAAIJAcQD8UjCgjePDAo2CEDgTQDxQDze0fDO8ebxZkEOAhBICCAeiEcSFrx5ZFCwQQACbwKIB+LxjoZ3jjePNwtyEIBAQgDxQDySsODNI4OCDQIQeBNAPBCPdzS8c7x5vFmQgwAEEgKIB+KRhAVvHhkUbBCAwJsA4oF4vKPhnePN482CHAQgkBB4Wjxs/tLnyf9S3tbOf4yYBBYmCEBgbAItiMff//z35+zTwvoRj7HPCLuDAAQSAi1cvmeFw/q1sH7EIwksTBCAwNgEWrh8EY/2YoyfebTnE1YEgVsJbP2SolbFw9aVPVFoWlg/bx63hjSTQQACdxDQxbYkIi1cvlEQ9HWUrS2r87YW1i/Gd/jzrjl487iLNPNAoFECuth86pfawuXrxUB5Wxfi4T11bx7xuJc3s01IwF/KveXNXYgH/84jO7aIR0YFGwQqEuhNMOJ6WxcPvYEo1ZuJ0hbWL6YVw+rxoRCPx13AAkYn0PrFofXFVH5p4fKVEPh0SSx8G8u3sH6xFdMRUsRjBC+yh6YJtH5xaH1KI8wWLt8oCBIFW1tW520trH+JbWTdUxnx6MlbrLVLAq1fHFvra+Hy9WKgvK0L8XjuSCAez7Fn5kkIbF3OrWNAPPiBeRajiEdGBRsEKhJAPMovX71t+FRvHjH1bSzfgvj1HgPZcUA8MirYIFCRQO8XRwuXbxSEI+UW1t97DGTHAfHIqGCDQEUCvV8cLVy+R8Qitm1h/b3HQHYcEI+MCjYIVCTQ+8XRwuUbBeFIuYX19x4D2XFAPDIq2CBQkUDvF0cLl6+toeThl0FVDOh/h0I86jNlRAh8EEA8yn5g/uTFX2NuE73eY+AjoP8tIB4ZFWwQqEig94vj6TePGhf4k2MgHhUPE0NBYCYCiAdvHr3HQHZeefPIqGCDQEUCvV8cvHmUiR9vHhUPE0NBYCYCiEfZ5fvkV0415kY8Zjrt7BUCFQkgHohH7zGQHQe+tsqoYINARQK9Xxx8bVUmfrx5VDxMDAWBmQggHmWXb42vjp4cA/GY6bSzVwhUJIB4IB69x0B2HPjaKqOCDQIVCfR+cfC1VZn48eZR8TAxFARmIoB4lF2+T37lVGNuxGOm085eIVCRAOKBePQeA9lx4GurjAo2CFQk0PvFwddWZeLHm0fFw8RQEJiJAOJRdvnW+OroyTEQj5lOO3uFQEUCI4iHXYA85xn0HgPZceBrq4wKNghUJDDSxaG9kP71+9+sH2FRMaweHwrxeNwFLGB0ArpcRtin9kKKeCAeI5xo9tA0AV20TS+SxUHgIAHE4yAwmkPgKAHE4ygx2vdAAPHowUussWsCiEfX7mPxCwQQjwUwmCFQiwDiUYsk47REAPFoyRusZUgCiMeQbp1+U4jH9CEAgKsJIB5XE2b8JwggHk9QZ86pCCAeU7l7ms0iHtO4mo0+RQDxeIo8815JAPG4ki5jQ+Dn5/dfIgMDAiMRQDxG8iZ7aZIAbx5NuoVFFRJAPAoB0h0CWwQQjy1C1PdIAPHo0WusuSsCiEdX7mKxOwkgHjtB0QwCZwkgHmfJ0a9lAohHy95hbUMQQDyGcCObCAQQjwCEIgRqE0A8ahNlvBYIIB4teIE1DE0A8RjavdNuDvGY1vVs/C4CiMddpJnnTgKIx520mWtKAojHlG4fftOIx/AuZoNPE5hdPP78+fPjn+gPq+PTHwG81p/PWHFnBGYWj0wYoi2WO3PvtMtFPKZ1PRu/i8Cs4rEmCr7O5+/yCfOUE0A8yhkyAgRWCSAe33i8YChvqfK+h+xH6tQ2phpXdl82W7RbvWxK1Wf2FPGYPQLY/+UEEI9vxP4itnwsq4e3m82XfT6r8/U+n7XVfLFO5djft581j3jM6nn2fRsBxOMbtb+Mfd5a+rLPx1FinS/7vPrJpjTa95bVbvYU8Zg9Atj/5QQQj2/E/gL3eWuZlc22Zo/1sa0fN9apr0/9imN7XzdzHvGY2fvs/RYCiMc3Zn8h+7y1jGXf29f5vG+zNIbaK1WfWJZd6Va92s2WIh6zeZz93k5gVvEw0NnFG21r5Vp1cnocL1tjbBPLGmv2FPGYPQLY/+UEZhYPg2uXr38icF+XXdS+fq2vr8vG0Vp8O+W35lA70jcBxOPNghwELiEwu3hcApVBHyeAeDzuAhYwOgHEY3QPz7k/xGNOv7PrGwkgHjfCZqrbCCAet6FmolkJIB6zen7sfSMeY/uX3TVAAPFowAksoToBxKM6UgaEwCcBxOOTB6UxCCAeY/iRXTRMAPFo2Dks7TQBxOM0OjpCYB8BxGMfJ1r1RQDx6MtfrLZDAohHh05jyZsEEI9NRDSAQBkBxKOMH73bJIB4tOkXVjUQAcRjIGeylV8CiMcvCjIQuIYA4nENV0Z9lgDi8Sx/Zp+AAOIxgZMn3CLiMaHT2fK9BBCPe3kz2z0EEI97ODPLxAQQj4mdP/DWEY+BncvW2iCAeLThB1ZRlwDiUZcno0HgiwDi8YUEwwAEVsXD/3Yt8p+/DW0vjwFihC0UEuhdPPbGOu2W74jCEGqy+6Z4/Pz854fnHAM7THwgMIJ4cAecuwOM26j3wOrt9tr0eWizB9yoQYMcHCOAeMx9h4x6DyAeF75ZjRo0x65OWiMeiMeIpwDxuFg8er84Rgz6u/fUewzwDUSZ+Bm/3mMgOzOIB+LxFRcW7EvPV2MMmwR6vzgQD8QjC3LEA/H4jQsJhi67LFWb305kNgmI42bDRhsgHohHFpqIB+Lx/7iwC0KX3J70daFkIYUtEhDPaO+ljHggHlmsIh6Ix//j4qh42IWIgGRH6tuGeJRdvr3/rU1/tr6jo18L4oF4/F8EdMEdSRGPfQdfTPe1bq/Vy89zC0CJgCEeF16yJY5puW8vQePXqYtub/q6WNq78FpakVi2tKYja3n5GPE4e9f483WEe+ttefO4UBR7CBq/Rl1yR9LXxdJ6mD+7PvF8dhXnZ3/5GPFAPD5jCPFAPA79oFwXoVLE4/NAZSWxyup6sCEeZcJp/HqPgSxOEQ/E4zewFeBHUsQjO1afNvH8tPZTQjwQjyxaEQ/EA/HITkZFG+JRdvme/bqolX68eVx4ybbi5Nrr6CVo/Dp10e1NX38qrXjTDjiUWPa6tZeP5xaAkrvBn69eYyBbd/NvHga+5ClxemnfXoLGr1MX3Z7U+vHZJiCW2y3bbPHy87PiYWsoeUrPckl/W3fvMZBF5urpfzpobP6///nv6aeF9fcSND7Ateat9MU3CytsnoA4eltP+RbOEfdAexGDeFz4dZy/kNtz/eeKbK1+vbrwltLXhfI5BqWcgBjmte1bX75+7s3D5kc82osTxAPx+IjKLQGx+tdl8tGNwgoBxKNMeBCPleB6sArxQDy+wk8CkaVfjTFsEkA8EI/eYyAL8i7FI7vUsj+dmK3kB12lfW3+K4PGxr7682J49Sxjj39lDNQgtxVHLZyj7GsrW1f2xLYtrL/1GDgTR12LRwySWB49aBSQW4f/TGCoz4uhSqRnCMhPZ/re0UfrW4qjFs5RPNtWtnXZk9V5WwvrF+M7/HnXHIhHx19bKSB9WjtwXgev9qhzjSf/tLprrc+nfq0tXL5eDJS3ddmj8lLawvrF1nPtPY943CQeCp670lqB+Tp4tUY7P85d3Jjnr9+vWo2FfVq4fDNhsHXZk9V5WwvrV1ydPwHt9exaPBQ8Sn3AWL6loFHw3JXWCrUXw1qjnR/nLm7M8ykexqOFcxTPts63zr5PY9sW1q+4On8C2uvZtXjEIInl0YNGAenT2iH2Ylh71LnGk39a3bXWF1Ott4VzFM+2lW1d9mR13tbC+sVWTEdIEY+bvra6IlgUkJZe9XkdvKtGn2Nc+anV3Wp9SuM6W7h8vRgob+uyR+WltIX1L7GNrHsqIx6di8fVwfY6eFfPMvb4rV8cW+tr4fLNhMHWZU9W520trH+LcY8nAPHoWDzuCLjXwVueSQe4JF0efYya3i+OFi5fLwbKK+ZUXkpbWH/vMZCdxK7FQ8GjNAYPQZO5/JjtxXC5j9VH7kfKW+Mvz9xPTe8XRwvnKIspW1f2xLYtrL/3GMhOW5fiEYNjqUzQZC4/ZnsxXO5j9Uv899i3xl+euZ+a3i+OFs7RnlhaatPC+nuPgey0IR58bZXFxa9t63K3+qVDu8e+Nf7vQjrO9H5xtHD57omlpTYtrL/3GMiOH+KBeGRx8WvbutytPh5as2VPbGflrfF/F9JxpveL4+Wjsv/csOT/ibP5s9jZa2th/b3HQHb8mhYPCzhzfMlTErSlfW3dvQfN6+BlofOyWX08xPJXtGflrfGXZ+6nZowYeE48uAfajPXmxaP0An+yv12MY1wcy8GLeCyzUc0YMfCseDx5jkvnHuEeUCz7FPHgaysfD195C/ytJ75RqH20Z2VrO/oH8ZhbeCzGe4+B7IyuntzXwZ7b8SV/6hg1aHwg2R6jKJgte2I7K1u70T+9XxwvH3EPnL0LjF/vMZCd0dWTS9CUHZhRg8YHku0xioLZMntsh3h4ku3mzZdnL076vX5ui3hc+BXPiEFmh27EoPHXXCYSZsvsiIcn10/efDni+bxrT8ZvxHuAN48LBXHUoPHXXiYSZsvsiIcn10/efHnXRTviPMYP8bjwoiVo+rlM/EozkTBbZkc8PLl+8ubLEc/nXXsyfogH4nHoEI0aNP7ay0TCbNmDeHhy/eTNl3ddtCPOY/wQD8Tj0CEaNWj8tWd7zERhr+11MfkRx8v3fnG8fFT2l0dGFIW9exr1HuBnHhcK4qhB46932+NeocjavS4mP+J4ecRjbuEZ9R5APBCPotsa8djGh3ggHr3HQBbliAfikcXFbpuJR+mze7JOG/Z+cZh/935FQ7tvoTR+vcdAdvQQD8QjiwtsFQn0fnEgHt+CcEQkEY8LL9kjjuip7ahBU/FenWIoxKPs8u3pzGdrHfUe2HzzsI3znGfQ+8Uxxe1+8SZ7jwHO//nzL3a9x0B2RFbFw3fQ5kn/+v3+8ggLz5L8XAQUJyPsWnsh5R5APP46FwRHD88IFwd7OEdAsXKud1u9tBfSc/dGW94sW81u8Sibht4QmJeALtp5CbDzEQkgHiN6lT01RQDxaModLKYSAcSjEkiGgcASAcRjiQz2ngkgHj17j7V3QQDx6MJNLPIgAcTjIDCaQ+AoAcTjKDHa90AA8ejBS6yxawKIR9fuY/ELBBCPBTCYIVCLAOJRiyTjtEQA8WjJG6xlSAKIx5BunX5TiMf0IQCAqwkgHlcTZvwnCCAeT1BnzqkIIB5TuXuazSIe07iajT5FAPF4ijzzXkkA8biSLmND4Ofn9z/SBAYERiKAeIzkTfbSJAHePJp0C4sqJIB4FAKkOwS2CCAeW4So75EA4tGj11hzVwQQj67cxWJ3EkA8doKiGQTOEkA8zpKjX8sEEI+WvcPahiCAeAzhRjYRCNwqHvp9vj4N61ksWp+lz1rdUh/sbwLeHzH/bkXuLIHZxWMrpji/ZyPr2X7LN3LldS0FyJI9Tr+3Xey3t3z1+HvX8US7J/b+xJxPsLU5ZxaPzM/RFstP+Yl5jxFAPP7lNXMAP7H3J+Y8djTqtZ5VPNZ87Ot8vh51RrqawOPi4TcYg8iXlbdUefXNylk7ay+775PZNPYMqWeR7TfWZ2Ux9P3VLtaprHrfZ8Q84vHtVe975RUXsbXsaufrl+rUNqbqK7svayzZlKqtUtlnT28TDwMt5yw5Idp9WX3lsFiX2TXnmTr1mSEV2yyNDGPZ+yGr8/VL+dEZIx7fHo6xEMvq4e1ZfKldVuf7+nzWdmkctY39fftZ87eKh4dszogOWSvvrdvbzq/F8rFfrB+5vGfvaqNUPNbKR+o03ogp4vHtVR8bPm8tfdnn4yixzpd9Xv1kUxrte8tqN3v6mHgIvHekz1u9L/v8Wp21i082l2xK4/iyz5Du2bvaKBUXK8fH1ylvqe/r877NiHnE49ur3v8+H+NEZWuTtZNdqWaKbTWOT31b9Vequqy9r5s5f5t4ZM6MjoltfNnn1/rFdt65Z+v8GCPm17hov2qjNNpV9ula21jn+42WRzy+Per97/PWMpZ9b1/n877N0hhqr1R9Yll2pVv1ajdbOrx4eMf7vDnal31+uiBY+Tc0nkXGKNp82edn5j2reESfK5bW4iL2WWt7pG5p7jjfnrLGmj29TTzkFHO4f6IDfJ0PjiW7xvXj+Lberraq93WZzdePnNfes9Tv2+qzj+/n62N7X1Yf337U/MziYT6Vr5VGP8uudK1+b52NlX3W7GvzZ2PNbssJd0ZlKSA62wbLHZTA7OIxqFun3xbiMX0IAOBqAojH1YQZ/wkCXYvH0mvmEyCZEwJLBBCPJTLYeybQtXj0DJ61z0MA8ZjH1zPtFPGYydvs9RECiMcj2Jn0YgKIx8WAGR4CiAcxMCIBxGNEr/67p62/hbZVPzCaW7eGeNyKm8luIoB43AT6iWnW/kLBWt0Tax15TsRjZO/OuzfEY2DfrwnEWt3ASB7ZGuLxCHYmvZgA4nEx4CeHN4Gwj1KtRWWl3m62aNcYV9VpfK1D5aX5fLse8ohHD15ijUcJIB5HiXXUXiKgVEtXWanZfT6Wr66z8f0cPh/Xoj30lCIePXmLte4lgHjsJdVhO38JK6/UtrOU36rzKPwY3p7lfVuf35ovts3GbtmGeLTsHdZ2lgDicZZcB/38pau8Ult+zFvZP36LS3aNo3rfJ9ZZG318Xu18ncZTqroeU8SjR6+x5i0C79O81ZL67gj4C1p5pbaZpfzWRn2/2NbX+fzWfL6tz8fxeywjHj16jTVvEUA8tgh1XB8v4bXy1XU2vp8j5mPZY/d13t5LHvHoxVOs8wgBxOMIrc7axkt3T9naxHa2bdnP1mkMj1BjrtVl8/kxesgjHj14iTUeJYB4HCVG+0sIjCASS2AQjyUy2HsmgHj07L2O1x7FIpY73trX0hGPLyQYBiCAeAzgxF63YIKhp9c97Fl37+IhH5G+4/Uoiz1x0lsbxKM3j7He7giMIB4/P//54TnHwIRmxM+YuxrRU+ypWwKIx7lLdxSxQjy6PbosHALPEkA8EI/eYyA7Qbx5ZFSwQaAigd4vjtefnOcWgJK3IOPXewxkxwHxyKhgg0BFAr1fHIhHmXAiHhUPE0NBYCYCiEfZ5Vvyp/4W+iIeM5129gqBigQQD8Sj9xjIjgNfW2VUsEGgIoHeLw6+tioTP948Kh4mhoLATAQQj7LLt4WvnkrWgHjMdNrZKwQqEkA8EI/eYyA7DnxtlVHBBoGKBHq/OPjaqkz8ePOoeJgYCgIzEUA8yi7fkq+MWuiLeMx02tkrBCoSQDwQj95jIDsOfG2VUcEGgYoEer84+NqqTPx486h4mBgKAjMRQDzKLt8WvnoqWQPiMdNpZ68QqEgA8SgXD7uAS56Sy7+0L+JR8TAxFARmIoB4lImHXb5///Pf04/1LxWAkv6Ix0ynnb1CoCIBxAPx6D0GsuPAD8wzKtggUJFA7xdHC39y582jYkBWGgrxqASSYSCwRADxuObNw0Qte6LQtCB+vcdAFtuIR0YFGwQqEmj94thaXwuXbxQEK0s4sjpva2H9W4wrhtttQyEet6FmolkJtH5xaH1Ko59auHy9GCiPeERP3VtGPO7lzWwTEli6lFtBofXFVOtDPMq/dhNbMR0hRTxG8CJ7aJqALo5e09bFQ28gSvVmorSF9cv3TQfqwcUhHgeB0RwCRwno4ugxtb22cPlKCHy6JBa+jeVbWL98fzR2Wm6PeLTsHdYGgRsI6GLzqZ+2hcs3CoJEwdaW1XlbC+sXW8+19zzi0bsHWT8ECgnoYrM0+7Rw+XoxUN7WhXhkHrvHhnjcw5lZINAsgSXR0IIRD35grljwKeLhaZCHAAS+CLQuHnoDUao3E6UtrF9vd19wOzYgHh07j6VD4A4CLVy+EoIzaQvrRzzuiFTmgAAEmiLQwuV7RjTUp4X1Ix5NhTSLgQAE7iDQwuUrITiTtrB+xOOOSGUOCECgKQItXL62hpKn5PdxlPa1dSMeTYU0i4EABO4g8LR4lF7eT/dHPO6IUuaAAASaI4B48Fd1s6Dkb1tlVLBBAAK/BBAPxOM3GFwG8XAwyEIAAt8EEA/E4zsqfn4Qj4wKNghA4JcA4oF4/AaDyyAeDgZZCEDgmwDigXh8RwVvHhkTbBCAgCOAeCAeLhx+s7x5/KIgAwEIZAQQD8QjjYvMiA0CEICACCAeiIdiwae8eXga5CEAgS8CiAfi8RUU9hsmMyM2CEAAAiKAeCAeigWfIh6eBnkIQOCLAOKBeHwFBW8eGRJsEICAJ4B4IB4+HpTnzUMkSCEAgZQA4oF4ZIGBeGRUsEEAAr8ETDx4yhjwX7L/hhMZCEBgRgK6BEn/+v0dHUdYjBQzvHmM5E32AoGLCRy5KGn7LTAXu+fW4RGPW3EzGQT6JoAgfAvCESZ9e/9z9YjHJw9KEIAABCCwgwDisQMSTSAAAQhA4JMA4vHJgxIEIAABCOwggHjsgEQTCEAAAhD4JIB4fPKgBAEIQAACOwggHjsg0QQCEIAABD4JIB6fPChBAAIQgMAOAojHDkg0gQAEIACBTwKIxycPShCAAAQgsIMA4rEDEk0gAAEIQOCTAOLxyYMSBCAAAQjsIIB47IBEEwhAAAIQ+CSAeHzyoAQBCEAAAjsIrIpHjV8As2MNNIEABCAAgc4IbIrH3//89+fs8/r1lZ0RYbkQgAAEILBJAPHYREQDCEAAAhCIBBCPSIQyBCAAAQhsEjgsHks/B8m+2rrra6ulNa3tvuba/PxxzprzxLFrlf0a/V5ivtZ8jDMXga048vE3F5m+d3taPDKxiLa7gmJpniV7TZfFObbKNeeuNZZfs8/XGn/POE/Nu2dttDlPIPNrtMXy+dnoeScBxKOA9lLQe7vPF0x1aVe/Rp+/dNIw+FPzhmVQrEhgzae+zucrTs9QFxN4RDwsWJaetf36Pr7dUvB5u/Ix1Thm1yObUtnV19uVX0rVR2PEdrKrna+XTW18neW9XW3VRnXRHus1jrcrv5TGMbOy5vdjqF2sU1n1vg/5fgms+dPXKW+p8n7Xsh+pU9uYalzZfdls0W71silVn9nT0+Ih0ErjV1ZWrgk7juXLPu8d6u2Wj2W19Xaz+bLPb9VpPJ9afz/GUj6OrfJS+2iP5biGpbL1i31li6nG8O21zr11vu9SXmOR9k3A+zfuxNdZPpbV3tvN5ss+n9X5ep/P2mq+WKdy7O/bz5o/LR6ZWETblcD92JbPHu9U314BofpYJ3tsF8tr/TRGbBPLahfH3irHcXzZ57fGifWxr9VnH7VTqjZr5SN1Go+0XwLR334nvs7nrY0v+7zvH9vFctZPNqUa72hZ/WZPHxEPc9bSs+aQ2Edto/Nl92ls48s+7/tY3uriozZr/ZbaxD5LY2tujRPL2ThqG8dca7s1rsaMqcZUqvq1ubO2vp/ypGMQiP72u/J1Pm9tsrLZ1uyxPrb148Y69fXp0lq9ffb8I+JxBnrmcI0T62T3aWzjyz7v+1j+TJ3v4/NxvLW62DaW1/rGOuvrP7Hel33e94l5tVOq+liW3dJY58s+7/uQ75fAmk99nc9nceIJ+LY+79ssjaH2StUnlmVXulWvdrOlXYqHOdM71OeXHBjb+LLPW39f9vlYV1r2Y1vel7fG9m1jX1+3NU6sj32tfumTtY02X/Z5G9OXfX5pPuz9Ecj8Gm1r5Vp1IhfHM3u0bZU11uzpafEwwP6JP++o/QNzOVmOVSr7liN9+6yP30sca61OY6lN1tfbsnXIplTt95TVRqnva7Zoz+p9G/XJUvVV6vvJZqnvG+1LZfXx9eTHICDfKo27kl3pWv3eOhsr+6zZ1+bPxprdlhP+l4rBzERhr23JUbNDv2L/sL6CKmNCAAJLBBCPJTKN26NYxHLjy2d5EIBA5wQQj44daIKhp+NtsHQIQKBDApviocvpbNohE5YMAQhAAAIbBFbFY6Mv1RCAAAQgMCkBxGNSx7NtCEAAAiUEEI8SevSFAAQgMCkBxGNSx7NtCEAAAiUEEI8SevSFAAQgMCkBxGNSx7NtCEAAAiUEEI8SevSFAAQgMCkBxGNSx7NtCEAAAiUEEI8SevSFAAQgMCkBxGNSx7NtCEAAAiUEEI8SevSFAAQgMCkBxGNSx7NtCEAAAiUE/gef+4iJVZZeggAAAABJRU5ErkJggg==;" parent="77" vertex="1">
                    <mxGeometry x="209.20000000000005" y="447" width="331.6" height="246" as="geometry"/>
                </mxCell>
                <mxCell id="67" value="When a subject has an event to announce, it will create an event object, wrap it in a message, and send it on a channel. The observer will receive the event message, get the event, and process it. Messaging does not change the event notification, just makes sure that the notification gets to the observer." style="text;spacingTop=-5;whiteSpace=wrap;html=1;align=left;fontSize=12;fontFamily=Helvetica;fillColor=none;strokeColor=none;" parent="77" vertex="1">
                    <mxGeometry x="50" y="697" width="710" height="60" as="geometry"/>
                </mxCell>
                <mxCell id="69" value="Integration Technology" style="strokeWidth=1;shadow=0;dashed=0;align=center;html=1;shape=mxgraph.mockup.text.textBox;fontColor=#666666;align=left;fontSize=17;spacingLeft=4;spacingTop=-3;strokeColor=none;mainText=;labelBackgroundColor=none;fillColor=none;" parent="77" vertex="1">
                    <mxGeometry x="40" y="800" width="350" height="30" as="geometry"/>
                </mxCell>
                <mxCell id="70" value="Court Case Created events are serialized and deserialized using Avro (TBD), an open source binary data serlizaation format.&amp;nbsp; Avro is supported by Kafka and the Apicurio service registry.&amp;nbsp; The events are exchanged through a Kafka topic.&amp;nbsp; More on schema registry:&amp;nbsp;https://medium.com/slalom-technology/introduction-to-schema-registry-in-kafka-915ccf06b902" style="text;spacingTop=-5;whiteSpace=wrap;html=1;align=left;fontSize=12;fontFamily=Helvetica;fillColor=none;strokeColor=none;" parent="77" vertex="1">
                    <mxGeometry x="50" y="844" width="710" height="60" as="geometry"/>
                </mxCell>
                <mxCell id="61" value="Avro Schema" style="strokeWidth=1;shadow=0;dashed=0;align=center;html=1;shape=mxgraph.mockup.text.textBox;fontColor=#666666;align=left;fontSize=17;spacingLeft=4;spacingTop=-3;strokeColor=none;mainText=;labelBackgroundColor=none;fillColor=none;" parent="77" vertex="1">
                    <mxGeometry x="40" y="957" width="210" height="30" as="geometry"/>
                </mxCell>
                <mxCell id="73" value="&lt;div&gt;{&lt;/div&gt;&lt;div&gt;&amp;nbsp;&quot;namespace&quot;: &quot;example.avro&quot;,&lt;/div&gt;&lt;div&gt;&amp;nbsp;&quot;type&quot;: &quot;record&quot;,&lt;/div&gt;&lt;div&gt;&amp;nbsp;&quot;name&quot;: &quot;User&quot;,&lt;/div&gt;&lt;div&gt;&amp;nbsp;&quot;fields&quot;: [&lt;/div&gt;&lt;div&gt;&amp;nbsp; &amp;nbsp; &amp;nbsp;{&quot;name&quot;: &quot;name&quot;, &quot;type&quot;: &quot;string&quot;},&lt;/div&gt;&lt;div&gt;&amp;nbsp; &amp;nbsp; &amp;nbsp;{&quot;name&quot;: &quot;favorite_number&quot;,&amp;nbsp; &quot;type&quot;: [&quot;int&quot;, &quot;null&quot;]},&lt;/div&gt;&lt;div&gt;&amp;nbsp; &amp;nbsp; &amp;nbsp;{&quot;name&quot;: &quot;favorite_color&quot;, &quot;type&quot;: [&quot;string&quot;, &quot;null&quot;]}&lt;/div&gt;&lt;div&gt;&amp;nbsp;]&lt;/div&gt;&lt;div&gt;}&lt;/div&gt;" style="text;spacingTop=-5;whiteSpace=wrap;html=1;align=left;fontSize=12;fontFamily=Helvetica;fillColor=none;strokeColor=none;" parent="77" vertex="1">
                    <mxGeometry x="50" y="997" width="740" height="190" as="geometry"/>
                </mxCell>
                <mxCell id="5" value="Inspired by:&lt;br&gt;&lt;ul&gt;&lt;li&gt;Data Catalogue&amp;nbsp;https://catalogue.data.gov.bc.ca/dataset/old-growth-technical-advisory-panel-tap-recruitment-forest&lt;/li&gt;&lt;li&gt;NRS Common Show Case&amp;nbsp;https://bcgov.github.io/common-service-showcase/services/chefs.html&lt;/li&gt;&lt;li&gt;Red Hat Marketplace&amp;nbsp;https://marketplace.redhat.com/en-us/products/insightedge&lt;/li&gt;&lt;li&gt;BC Digital Trust&amp;nbsp;https://digital.gov.bc.ca/digital-trust/projects-and-initiatives/credentials-for-people/&lt;/li&gt;&lt;/ul&gt;" style="text;html=1;resizable=0;autosize=1;align=left;verticalAlign=middle;points=[];fillColor=none;strokeColor=none;rounded=0;" parent="1" vertex="1">
                    <mxGeometry x="91" y="13" width="660" height="120" as="geometry"/>
                </mxCell>
            </root>
        </mxGraphModel>
    </diagram>
</mxfile>